<?xml version="1.0" encoding="UTF-8"?>
<svg height="23px" version="1.1" viewBox="0 0 24 23" width="24px"
    xmlns="http://www.w3.org/2000/svg">
    <!-- Generator: Sketch 57.1 (83088) - https://sketch.com -->
    <title>Shape</title>
    <desc>Created with Sketch.</desc>
    <g fill="none" fill-rule="evenodd" id="Symbols" stroke="none" stroke-width="1">
        <g fill="#818799" fill-rule="nonzero" id="Bottom-nav-none"
            transform="translate(-237.000000, -13.000000)">
            <g id="Bottom-nav">
                <g id="Navbar">
                    <g id="Nav-icons-2" transform="translate(29.500000, 10.000000)">
                        <g id="Messages" transform="translate(199.000000, 0.155000)">
                            <path
                                d="M20.5898435,3.345 C14.2734375,3.345 9.125,7.770781 9.125,13.3098435 C9.125,16.5246875 10.8867185,19.3235155 13.5917965,21.1535935 C13.5878905,21.2610155 13.595703,21.4348435 13.455078,21.958281 C13.2792965,22.6047655 12.925781,23.516875 12.208984,24.5442185 L11.6992185,25.2746875 L12.5898435,25.2746875 C15.675781,25.2746875 17.4609375,23.2629685 17.738281,22.940703 C18.65625,23.1555465 19.6015625,23.2746875 20.5898435,23.2746875 C26.90625,23.2746875 32.0546875,18.848906 32.0546875,13.3098435 C32.0546875,7.770781 26.90625,3.345 20.5898435,3.345 Z M20.5898435,4.2746875 C26.474609,4.2746875 31.125,8.348906 31.125,13.3098435 C31.125,18.270781 26.474609,22.345 20.5898435,22.345 C19.5703125,22.345 18.609375,22.2473435 17.707031,22.0110155 L17.4179685,21.9348435 L17.2285155,22.1672655 C17.2285155,22.1672655 15.785156,23.7961715 13.4804685,24.18875 C13.8984375,23.4348435 14.207031,22.7317185 14.349609,22.2004685 C14.550781,21.460234 14.5546875,20.960234 14.5546875,20.960234 L14.5546875,20.704375 L14.3398435,20.567656 C11.6992185,18.8879685 10.0546875,16.288359 10.0546875,13.3098435 C10.0546875,8.348906 14.705078,4.2746875 20.5898435,4.2746875 Z M15.5898435,12.3098435 C15.037109,12.3098435 14.5898435,12.757109 14.5898435,13.3098435 C14.5898435,13.862578 15.037109,14.3098435 15.5898435,14.3098435 C16.142578,14.3098435 16.5898435,13.862578 16.5898435,13.3098435 C16.5898435,12.757109 16.142578,12.3098435 15.5898435,12.3098435 Z M20.5898435,12.3098435 C20.037109,12.3098435 19.5898435,12.757109 19.5898435,13.3098435 C19.5898435,13.862578 20.037109,14.3098435 20.5898435,14.3098435 C21.142578,14.3098435 21.5898435,13.862578 21.5898435,13.3098435 C21.5898435,12.757109 21.142578,12.3098435 20.5898435,12.3098435 Z M25.5898435,12.3098435 C25.037109,12.3098435 24.5898435,12.757109 24.5898435,13.3098435 C24.5898435,13.862578 25.037109,14.3098435 25.5898435,14.3098435 C26.142578,14.3098435 26.5898435,13.862578 26.5898435,13.3098435 C26.5898435,12.757109 26.142578,12.3098435 25.5898435,12.3098435 Z"
                                id="Shape"></path>
                        </g>
                    </g>
                </g>
            </g>
        </g>
    </g>
</svg>