<?xml version="1.0" encoding="UTF-8"?>
<svg height="24px" version="1.1" viewBox="0 0 24 24" width="24px"
    xmlns="http://www.w3.org/2000/svg">
    <!-- Generator: Sketch 57.1 (83088) - https://sketch.com -->
    <title>icons8-home-50</title>
    <desc>Created with Sketch.</desc>
    <g fill="none" fill-rule="evenodd" id="Symbols" stroke="none" stroke-width="1">
        <g fill="#818799" fill-rule="nonzero" id="Bottom-nav-none"
            transform="translate(-31.000000, -13.000000)">
            <g id="Bottom-nav">
                <g id="Navbar">
                    <g id="Nav-icons-2" transform="translate(29.500000, 10.000000)">
                        <g id="icons8-home-50" transform="translate(0.500000, 3.500000)">
                            <path
                                d="M12.9811399,0.0542969754 C12.8762051,0.0579161659 12.7750717,0.0944745039 12.6920774,0.158789175 L1.19207725,9.13242223 C0.974183793,9.30231451 0.93527116,9.61667697 1.10516345,9.83457043 C1.27505574,10.0524639 1.58941819,10.0913765 1.80731165,9.92148423 L2.49969445,9.38144523 L2.49969445,22.5269532 C2.49972206,22.8030842 2.72356351,23.0269256 2.99969445,23.0269532 L9.91570995,23.0269532 C9.96970567,23.0358777 10.0248002,23.0358777 10.0787959,23.0269532 L15.9157099,23.0269532 C15.9697057,23.0358777 16.0248002,23.0358777 16.0787959,23.0269532 L22.9996944,23.0269532 C23.2758254,23.0269256 23.4996668,22.8030842 23.4996944,22.5269532 L23.4996944,9.38144523 L24.1920774,9.92148423 C24.3330286,10.031401 24.5219145,10.0577672 24.6875775,9.9906501 C24.8532404,9.92353303 24.9705098,9.77313043 24.9952075,9.59610234 C25.0199053,9.41907425 24.9482788,9.24231822 24.8073114,9.13242223 L20.9996944,6.16171873 L20.9996944,2.52695323 L17.9996944,2.52695323 L17.9996944,3.81992198 L13.3073114,0.158789175 C13.2142776,0.0866492831 13.0987743,0.0496466758 12.9811399,0.0542969754 Z M12.9996944,1.18808603 L22.4996944,8.60117223 L22.4996944,22.0269532 L16.4996944,22.0269532 L16.4996944,12.5269532 L9.49969445,12.5269532 L9.49969445,22.0269532 L3.49969445,22.0269532 L3.49969445,8.60117223 L12.9996944,1.18808603 Z M18.9996944,3.52695323 L19.9996944,3.52695323 L19.9996944,5.38144523 L18.9996944,4.60019523 L18.9996944,3.52695323 Z M10.4996944,13.5269532 L15.4996944,13.5269532 L15.4996944,22.0269532 L10.4996944,22.0269532 L10.4996944,13.5269532 Z"
                                id="Shape"></path>
                        </g>
                    </g>
                </g>
            </g>
        </g>
    </g>
</svg>