<?xml version="1.0" encoding="UTF-8"?>
<svg height="23px" version="1.1" viewBox="0 0 23 23" width="23px"
    xmlns="http://www.w3.org/2000/svg">
    <!-- Generator: Sketch 57.1 (83088) - https://sketch.com -->
    <title>icons8-email-open-50</title>
    <desc>Created with Sketch.</desc>
    <g fill="none" fill-rule="evenodd" id="Symbols" stroke="none" stroke-width="1">
        <g fill="#818799" fill-rule="nonzero" id="Bottom-nav-none"
            transform="translate(-169.000000, -14.000000)">
            <g id="Bottom-nav">
                <g id="Navbar">
                    <g id="Nav-icons-2" transform="translate(29.500000, 10.000000)">
                        <g id="Invites" transform="translate(135.250000, 0.155000)">
                            <g id="icons8-email-open-50" transform="translate(5.000000, 4.345000)">
                                <path
                                    d="M11,0.0336466184 C10.5327645,0.0336466184 9.671317,0.129770868 8.928711,0.764115368 C8.6993405,0.937807318 8.1869335,1.38936462 7.4433595,2.03364662 L3.99999999,2.03364662 C3.72386906,2.03367423 3.50002761,2.25751568 3.49999999,2.53364662 L3.49999999,5.51509212 C1.7356565,7.07568962 0.166992197,8.47309962 0.166992197,8.47309962 C0.0607307428,8.56798442 -6.21724894e-09,8.70368742 -6.21724894e-09,8.84614662 L-6.21724894e-09,21.5336466 C-6.21724894e-09,21.8097776 0.223869059,22.0336466 0.499999994,22.0336466 L21.5,22.0336466 C21.7761309,22.0336466 22,21.8097776 22,21.5336466 L22,8.84614662 C22,8.70368745 21.9392694,8.56798446 21.833008,8.47309962 C21.833008,8.47309962 20.2643975,7.07535012 18.5,5.51509212 L18.5,2.53364662 C18.4999724,2.25751568 18.2761309,2.03367423 18,2.03364662 L14.526367,2.03364662 C13.8108495,1.38987277 13.298724,0.936045168 13.0703125,0.763138818 C12.327965,0.129671018 11.4669965,0.0336466184 11,0.0336466184 Z M11,1.03364662 C11.319973,1.03364662 11.9432625,1.11308377 12.4248045,1.52583412 C12.4330428,1.53294452 12.4415109,1.53978409 12.4501955,1.54634192 C12.4795925,1.56836717 12.8488325,1.89751022 13.006836,2.03364662 L8.980469,2.03364662 C9.1396905,1.89792492 9.5205505,1.56826007 9.5498045,1.54634192 C9.55848906,1.53978409 9.56695724,1.53294452 9.5751955,1.52583412 C10.0567385,1.11308397 10.680027,1.03364662 11,1.03364662 Z M4.5,3.03364662 L7.4941405,3.03364662 C7.57209627,3.05268786 7.65348973,3.05268786 7.7314455,3.03364662 L14.256836,3.03364662 C14.3140163,3.04368034 14.3725072,3.04368034 14.4296875,3.03364662 L17.5,3.03364662 L17.5,5.74263112 L17.5,11.8051311 L14.680664,14.0238811 C14.1490715,13.6064701 13.1783885,12.8480016 13.0625,12.7553261 C12.2921825,12.1388371 11.468027,12.0336466 11,12.0336466 C10.495171,12.0336466 9.7120055,12.1863341 8.9541015,12.7426311 C8.8164565,12.8434801 7.8137275,13.6342391 7.316406,14.0219276 L4.5,11.8051311 L4.5,5.80708412 C4.50758145,5.7572406 4.50758145,5.70653714 4.5,5.65669362 L4.5,3.03364662 Z M6.5,5.53364662 C6.31968204,5.53109647 6.15195931,5.62583427 6.06105614,5.78158304 C5.97015296,5.93733182 5.97015296,6.12996142 6.06105614,6.28571019 C6.15195931,6.44145897 6.31968204,6.53619676 6.5,6.53364662 L15.5,6.53364662 C15.680318,6.53619676 15.8480407,6.44145897 15.9389439,6.28571019 C16.029847,6.12996142 16.029847,5.93733182 15.9389439,5.78158304 C15.8480407,5.62583427 15.680318,5.53109647 15.5,5.53364662 L6.5,5.53364662 Z M3.5,6.85200612 L3.5,11.0170451 L1.0126953,9.05903712 C1.1319536,8.95274612 2.3497764,7.87170162 3.5,6.85200612 Z M18.5,6.85200612 C19.650439,7.87181562 20.868459,8.95405762 20.9873045,9.06001362 L18.5,11.0180216 L18.5,6.85200612 Z M6.5,8.03364662 C6.31968204,8.03109647 6.15195931,8.12583427 6.06105614,8.28158304 C5.97015296,8.43733182 5.97015296,8.62996142 6.06105614,8.78571019 C6.15195931,8.94145897 6.31968204,9.03619676 6.5,9.03364662 L12,9.03364662 C12.180318,9.03619676 12.3480407,8.94145897 12.4389439,8.78571019 C12.529847,8.62996142 12.529847,8.43733182 12.4389439,8.28158304 C12.3480407,8.12583427 12.180318,8.03109647 12,8.03364662 L6.5,8.03364662 Z M0.999999997,10.3227091 L6.504883,14.6557171 C5.690331,15.2935891 5.324365,15.5739421 4.341797,16.3461466 C2.63739005,17.6856466 1.55585995,18.5380951 0.999999997,18.9760296 L0.999999997,10.3227091 Z M21,10.3227091 L21,18.9779826 C20.271528,18.4070706 17.754207,16.4344831 15.491211,14.6596231 L21,10.3227091 Z M11,13.0336466 C11.319973,13.0336466 11.8958175,13.1030651 12.4375,13.5365761 C13.1155195,14.0787856 20.7357925,20.0417461 21,20.2484906 L21,21.0336466 L0.999999997,21.0336466 L0.999999997,20.2475136 C1.13704615,20.1395811 2.94097035,18.7190121 4.959961,17.1322796 C7.0541855,15.4864201 9.2770775,13.7462296 9.5458985,13.5492716 C10.0999945,13.1425686 10.716829,13.0336466 11,13.0336466 Z"
                                    id="Shape"></path>
                            </g>
                        </g>
                    </g>
                </g>
            </g>
        </g>
    </g>
</svg>