<?xml version="1.0" encoding="UTF-8"?>
<svg height="26px" version="1.1" viewBox="0 0 22 26" width="22px"
    xmlns="http://www.w3.org/2000/svg">
    <!-- Generator: Sketch 57.1 (83088) - https://sketch.com -->
    <title>icons8-notification-50</title>
    <desc>Created with Sketch.</desc>
    <g fill="none" fill-rule="evenodd" id="Symbols" stroke="none" stroke-width="1">
        <g fill="#818799" fill-rule="nonzero" id="Bottom-nav-none"
            transform="translate(-304.000000, -13.000000)">
            <g id="Bottom-nav">
                <g id="Navbar">
                    <g id="Nav-icons-2" transform="translate(29.500000, 10.000000)">
                        <g id="icons8-notification-50" transform="translate(275.000000, 3.500000)">
                            <path
                                d="M10.5,0 C9.4003905,0 8.5,0.9003905 8.5,2 C8.5,2.2578125 8.5507815,2.5078125 8.640625,2.734375 C5.828125,3.464844 4,5.908203 4,9 C4,12.9160155 3.0390625,14.699219 2.125,15.703125 C1.667969,16.205078 1.216797,16.5097655 0.828125,16.796875 C0.6328125,16.939453 0.455078,17.0820315 0.296875,17.265625 C0.138672,17.449219 0,17.7109375 0,18 C0,18.6875 0.421875,19.2714845 1.015625,19.65625 C1.609375,20.0410155 2.388672,20.2890625 3.328125,20.484375 C4.546875,20.736328 6.0507815,20.8691405 7.703125,20.9375 C7.578125,21.2695315 7.5,21.626953 7.5,22 C7.5,23.6503905 8.8496095,25 10.5,25 C12.1503905,25 13.5,23.6503905 13.5,22 C13.5,21.625 13.423828,21.267578 13.296875,20.9375 C14.949219,20.8691405 16.453125,20.736328 17.671875,20.484375 C18.611328,20.2890625 19.390625,20.0410155 19.984375,19.65625 C20.578125,19.2714845 21,18.6875 21,18 C21,17.7109375 20.861328,17.449219 20.703125,17.265625 C20.544922,17.0820315 20.3671875,16.939453 20.171875,16.796875 C19.783203,16.5097655 19.3320315,16.205078 18.875,15.703125 C17.9609375,14.699219 17,12.9160155 17,9 C17,5.9101565 15.167969,3.46875 12.359375,2.734375 C12.449219,2.5078125 12.5,2.2578125 12.5,2 C12.5,0.9003905 11.5996095,0 10.5,0 Z M10.5,1 C11.058594,1 11.5,1.4414065 11.5,2 C11.5,2.558594 11.058594,3 10.5,3 C9.9414065,3 9.5,2.558594 9.5,2 C9.5,1.4414065 9.9414065,1 10.5,1 Z M11.671875,3.59375 C14.3378905,4.0683595 16,6.1289065 16,9 C16,13.0839845 17.0390625,15.1816405 18.125,16.375 C18.667969,16.970703 19.216797,17.34375 19.578125,17.609375 C19.7578125,17.7421875 19.892578,17.8535155 19.953125,17.921875 C20.013672,17.9902345 20,17.984375 20,18 C20,18.3125 19.855469,18.5410155 19.4375,18.8125 C19.0195315,19.0839845 18.339844,19.3359375 17.46875,19.515625 C15.7265625,19.876953 13.246094,20 10.5,20 C7.7539065,20 5.2734375,19.876953 3.53125,19.515625 C2.6601565,19.3359375 1.980469,19.0839845 1.5625,18.8125 C1.1445315,18.5410155 1,18.3125 1,18 C1,17.984375 0.986328,17.9902345 1.046875,17.921875 C1.107422,17.8535155 1.2421875,17.7421875 1.421875,17.609375 C1.783203,17.34375 2.3320315,16.970703 2.875,16.375 C3.9609375,15.1816405 5,13.0839845 5,9 C5,6.1308595 6.6640625,4.0859375 9.328125,3.609375 C9.6601565,3.8535155 10.060547,4 10.5,4 C10.9433595,4 11.339844,3.841797 11.671875,3.59375 Z M8.78125,20.96875 C9.341797,20.980469 9.9121095,21 10.5,21 C11.0878905,21 11.658203,20.980469 12.21875,20.96875 C12.3964845,21.2695315 12.5,21.625 12.5,22 C12.5,23.111328 11.611328,24 10.5,24 C9.388672,24 8.5,23.111328 8.5,22 C8.5,21.621094 8.5996095,21.2695315 8.78125,20.96875 Z"
                                id="Shape"></path>
                        </g>
                    </g>
                </g>
            </g>
        </g>
    </g>
</svg>