<?xml version="1.0" encoding="UTF-8"?>
<svg height="24px" version="1.1" viewBox="0 0 24 24" width="24px"
    xmlns="http://www.w3.org/2000/svg">
    <!-- Generator: Sketch 57.1 (83088) - https://sketch.com -->
    <title>icons8-male-user-50</title>
    <desc>Created with Sketch.</desc>
    <g fill="none" fill-rule="evenodd" id="Symbols" stroke="none" stroke-width="1">
        <g fill="#818799" fill-rule="nonzero" id="Bottom-nav-none"
            transform="translate(-98.000000, -13.000000)">
            <g id="Bottom-nav">
                <g id="Navbar">
                    <g id="Nav-icons-2" transform="translate(29.500000, 10.000000)">
                        <g id="icons8-male-user-50" transform="translate(69.375000, 3.500000)">
                            <path
                                d="M11.5,0.00390625 C5.154648,0.00390625 0,5.158554 0,11.5039062 C0,17.849259 5.1546475,23.0039062 11.5,23.0039062 C17.8453525,23.0039062 23,17.849259 23,11.5039062 C23,5.158554 17.845352,0.00390625 11.5,0.00390625 Z M11.5,1.00390625 C17.304912,1.00390625 22,5.698994 22,11.5039062 C22,14.3702545 20.8519995,16.962928 18.9941405,18.8564455 C18.079249,18.1847855 16.9640245,17.84779 16.019531,17.511719 C15.487596,17.3224445 15.0093255,17.134879 14.660156,16.925781 C14.325752,16.7255255 14.1400445,16.519733 14.041992,16.283203 C13.996067,15.7097725 14.005369,15.2481265 14.008789,14.703125 C14.069365,14.642797 14.1470775,14.6004115 14.2089845,14.527344 C14.3549785,14.355029 14.5036265,14.14564 14.645508,13.910156 C14.888802,13.5063555 15.0658365,13.0124565 15.165039,12.511719 C15.316525,12.4345 15.4783495,12.417789 15.6015625,12.260742 C15.829049,11.9707885 15.9826165,11.562741 16.050781,10.9941405 C16.111227,10.492116 15.9494785,10.14683 15.741211,9.881836 C15.9652645,9.1494255 16.24266,7.9846705 16.1484375,6.779297 C16.0966015,6.116144 15.9297335,5.4486335 15.5283205,4.8935545 C15.1450865,4.3636145 14.522893,3.9826821 13.7265625,3.84472655 C13.220784,3.27048875 12.417352,3 11.457031,3 L11.4521485,3 L11.448242,3 C9.2968705,3.0394965 7.908776,3.9299199 7.314453,5.288086 C6.7493075,6.5795745 6.8708015,8.187385 7.276367,9.861328 C7.058354,10.12634 6.887573,10.478215 6.949219,10.9941405 C7.017641,11.562549 7.17112,11.970765 7.3984375,12.260742 C7.521559,12.417802 7.683404,12.4344555 7.834961,12.511719 C7.934148,13.012067 8.1112185,13.505295 8.354492,13.9091795 C8.4963735,14.1447325 8.6448685,14.3539105 8.7910155,14.526367 C8.852938,14.599437 8.930564,14.642761 8.991211,14.703125 C8.994461,15.24784 9.003698,15.709307 8.958008,16.283203 C8.860147,16.5188615 8.674685,16.724763 8.3408205,16.925781 C7.9922045,17.135682 7.5145075,17.3242885 6.9833985,17.5146485 C6.0399025,17.8528155 4.925305,18.1922295 4.0078125,18.8583985 C2.1488149,16.9647115 1,14.3712485 1,11.5039062 C1,5.6989945 5.695088,1.00390625 11.5,1.00390625 Z M11.4609375,4.0009765 C12.3830005,4.0019265 12.96314,4.2749315 13.1220705,4.553711 L13.2441405,4.767578 L13.4873045,4.800781 C14.115394,4.888054 14.4663275,5.1317895 14.7177735,5.479492 C14.9692195,5.8271945 15.1087675,6.3124475 15.151367,6.857422 C15.236567,7.9473705 14.9245645,9.2344525 14.7265625,9.830078 L14.600586,10.208008 L14.941406,10.415039 C14.906736,10.393929 15.1016485,10.5093045 15.057617,10.875 C15.004282,11.3198995 14.890592,11.5465085 14.814453,11.6435545 C14.7383145,11.740601 14.705721,11.728205 14.713867,11.727539 L14.301758,11.761719 L14.2578125,12.1728515 C14.2200975,12.5260845 14.021425,13.0078965 13.7890625,13.3935545 C13.672881,13.5863835 13.5492715,13.7581585 13.4453125,13.8808595 C13.3413535,14.00356 13.230641,14.0795585 13.272461,14.057617 L13.004883,14.1972655 L13.004883,14.5 C13.004883,15.1621605 12.9779065,15.7036455 13.0478515,16.4746095 L13.053711,16.5410155 L13.0771485,16.6035155 C13.2739145,17.1330355 13.6846375,17.506629 14.1464845,17.783203 C14.608331,18.0597775 15.1381935,18.2596885 15.6845705,18.4541015 C16.585048,18.7745115 17.5237325,19.0898285 18.239258,19.555664 C16.416114,21.082725 14.067783,22.003906 11.5,22.003906 C8.933211,22.003906 6.5855415,21.083616 4.7626955,19.557617 C5.482284,19.0944545 6.4223675,18.778246 7.321289,18.4560545 C7.867305,18.260352 8.39578,18.0595915 8.8564455,17.7822265 C9.3171105,17.5048615 9.726364,17.131331 9.9228515,16.6035155 L9.946289,16.5410155 L9.9521485,16.4746095 C10.021521,15.704241 9.995117,15.1626545 9.995117,14.5 L9.995117,14.1972655 L9.727539,14.0566405 C9.769414,14.0785455 9.658681,14.002598 9.5546875,13.879883 C9.450694,13.757168 9.3271185,13.5864395 9.2109375,13.3935545 C8.9785755,13.0077855 8.7798875,12.52559 8.7421875,12.1728515 L8.698242,11.761719 L8.286133,11.727539 C8.293858,11.728189 8.261603,11.740579 8.185547,11.6435545 C8.1094895,11.546532 7.9959605,11.3200915 7.942383,10.875 C7.898678,10.50923 8.0957785,10.3924455 8.058594,10.415039 L8.3759765,10.222656 L8.283203,9.8623045 C7.852976,8.206451 7.7879165,6.6998105 8.230469,5.6884765 C8.6725835,4.678142 9.5582085,4.0371445 11.4609375,4.0009765 Z"
                                id="Shape"></path>
                        </g>
                    </g>
                </g>
            </g>
        </g>
    </g>
</svg>