<?xml version="1.0" encoding="UTF-8"?>
<svg height="24px" version="1.1" viewBox="0 0 24 24" width="24px"
    xmlns="http://www.w3.org/2000/svg">
    <!-- Generator: Sketch 57.1 (83088) - https://sketch.com -->
    <title>icons8-male-user-50-2</title>
    <desc>Created with Sketch.</desc>
    <g fill="none" fill-rule="evenodd" id="Symbols" stroke="none" stroke-width="1">
        <g fill="#6E19FF" fill-rule="nonzero" id="Bottom-nav-profile"
            transform="translate(-98.000000, -13.000000)">
            <g id="Bottom-nav">
                <g id="Navbar">
                    <g id="Nav-icons-2" transform="translate(29.500000, 10.000000)">
                        <g id="icons8-male-user-50-2" transform="translate(69.375000, 3.500000)">
                            <path
                                d="M11.5,0.00390625 C5.154648,0.00390625 0,5.158554 0,11.5039062 C0,17.556131 4.690655,22.5215975 10.629883,22.9677735 C10.6415925,22.968725 10.6533065,22.969788 10.665039,22.970703 C10.9412025,22.9906025 11.2188155,23.0039062 11.5,23.0039062 C11.7811845,23.0039062 12.0587975,22.9906025 12.334961,22.970703 C12.3466935,22.969788 12.3584075,22.968725 12.370117,22.9677735 C18.309345,22.5215975 23,17.556131 23,11.5039062 C23,5.158554 17.845352,0.00390625 11.5,0.00390625 Z M11.5,1.00390625 C17.304912,1.00390625 22,5.698994 22,11.5039062 C22,14.3697575 20.8524065,16.962036 18.995117,18.855469 C18.200537,18.27686 17.218597,17.9316935 16.338867,17.623047 C15.296867,17.258047 14.311086,16.912047 14.038086,16.310547 C13.995086,15.797047 13.9989295,15.396047 14.0029295,14.935547 L14.003906,14.7402345 C14.4479065,14.3177345 15.0062655,13.426039 15.1972655,12.602539 C15.5272655,12.426539 15.930758,12.0046405 16.051758,10.9941405 C16.112258,10.4926405 15.969531,10.10425 15.769531,9.84375 C16.039531,8.91625 16.576742,6.5682345 15.635742,5.0527345 C15.237742,4.4122345 14.2452469,3.70896149 13.9257832,3.55913688 C13.6063196,3.40931227 12.567242,3 11.448242,3 C9.747742,3.0315 8.501117,3.55235155 7.745117,4.5478515 C6.853617,5.7228515 6.685164,7.4981485 7.243164,9.8271485 C7.036664,10.0876485 6.887719,10.481664 6.949219,10.993164 C7.070719,12.003664 7.4727345,12.4255625 7.8027345,12.6015625 C7.9937345,13.4260625 8.551594,14.3177345 8.996094,14.7402345 L8.9970705,14.930664 C9.0010705,15.393164 9.004914,15.795047 8.961914,16.310547 C8.687914,16.913547 7.6973905,17.2633125 6.6503905,17.6328125 C5.775943,17.941595 4.7998155,18.287293 4.006836,18.8583985 C2.14810955,16.964752 1,14.3710115 1,11.5039062 C1,5.6989945 5.695088,1.00390625 11.5,1.00390625 Z"
                                id="Shape"></path>
                        </g>
                    </g>
                </g>
            </g>
        </g>
    </g>
</svg>