<?xml version="1.0" encoding="UTF-8"?>
<svg height="26px" version="1.1" viewBox="0 0 22 26" width="22px"
    xmlns="http://www.w3.org/2000/svg">
    <!-- Generator: Sketch 57.1 (83088) - https://sketch.com -->
    <title>icons8-notification-50-2</title>
    <desc>Created with Sketch.</desc>
    <g fill="none" fill-rule="evenodd" id="Symbols" stroke="none" stroke-width="1">
        <g fill="#6E19FF" fill-rule="nonzero" id="Bottom-nav-notifications"
            transform="translate(-304.000000, -13.000000)">
            <g id="Bottom-nav">
                <g id="Navbar">
                    <g id="Nav-icons-2" transform="translate(29.500000, 10.000000)">
                        <g id="icons8-notification-50-2"
                            transform="translate(275.000000, 3.500000)">
                            <path
                                d="M10.5,0 C9.3964845,0 8.5,0.8964845 8.5,2 C8.5,3.1035155 9.3964845,4 10.5,4 C11.6035155,4 12.5,3.1035155 12.5,2 C12.5,0.8964845 11.6035155,0 10.5,0 Z M7.6875,3.046875 C5.402344,4.0253905 4,6.2285155 4,9 C4,14.5 2.0996095,15.8808595 0.96875,16.703125 C0.466797,17.0664065 0,17.404297 0,18 C0,20.1035155 3.140625,21 10.5,21 C17.859375,21 21,20.1035155 21,18 C21,17.404297 20.533203,17.0664065 20.03125,16.703125 C18.9003905,15.8808595 17,14.5 17,9 C17,6.220703 15.5996095,4.0234375 13.3125,3.046875 C12.8847655,4.183594 11.783203,5 10.5,5 C9.216797,5 8.1152345,4.1816405 7.6875,3.046875 Z M7.5,21.9375 C7.5,21.9570315 7.5,21.980469 7.5,22 C7.5,23.654297 8.845703,25 10.5,25 C12.154297,25 13.5,23.654297 13.5,22 C13.5,21.980469 13.5,21.9570315 13.5,21.9375 C12.558594,21.9765625 11.558594,22 10.5,22 C9.4414065,22 8.4414065,21.9765625 7.5,21.9375 Z"
                                id="Shape"></path>
                        </g>
                    </g>
                </g>
            </g>
        </g>
    </g>
</svg>