<?xml version="1.0" encoding="UTF-8"?>
<svg height="23px" version="1.1" viewBox="0 0 23 23" width="23px"
    xmlns="http://www.w3.org/2000/svg">
    <!-- Generator: Sketch 57.1 (83088) - https://sketch.com -->
    <title>Shape</title>
    <desc>Created with Sketch.</desc>
    <g fill="none" fill-rule="evenodd" id="Symbols" stroke="none" stroke-width="1">
        <g fill="#6E19FF" fill-rule="nonzero" id="Bottom-nav-invites"
            transform="translate(-169.000000, -14.000000)">
            <g id="Bottom-nav">
                <g id="Navbar">
                    <g id="Nav-icons-2" transform="translate(29.500000, 10.000000)">
                        <g id="Invites" transform="translate(140.250000, 0.155000)">
                            <path
                                d="M11,4.345 C10.544,4.345 9.668719,4.43989065 8.949219,5.0578906 C8.9461695,5.06019145 8.9261055,5.07785945 8.9228515,5.08035155 C8.697963,5.25127715 8.2007935,5.6885239 7.493164,6.30203125 L7.4433595,6.345 L4,6.345 C3.7235,6.345 3.5,6.5685 3.5,6.845 L3.5,9.8264455 C1.7805,11.3464455 0.32066405,12.646758 0.18066405,12.771758 L4.5,16.136992 L4.5,7.345 L7.4941405,7.345 C7.57209627,7.36404124 7.65348973,7.36404124 7.7314455,7.345 L14.256836,7.345 C14.3140163,7.35503372 14.3725072,7.35503372 14.4296875,7.345 L17.5,7.345 L17.5,16.136992 L21.819336,12.771758 C21.678836,12.646758 20.2195,11.3464455 18.5,9.8264455 L18.5,6.845 C18.5,6.5685 18.2765,6.345 18,6.345 L14.5283205,6.345 C14.4446255,6.26986115 14.3677305,6.2037078 14.283203,6.1282031 C13.714973,5.61902545 13.2750115,5.2301222 13.0751955,5.07839845 C13.0735635,5.07699915 13.0719455,5.07588625 13.0703125,5.0744922 C13.053892,5.06048 13.037039,5.0498973 13.020508,5.03640625 C12.9436805,4.9737195 12.8658245,4.91360275 12.7871095,4.86160155 C12.692234,4.79876435 12.5965525,4.74341745 12.5009765,4.6946094 C12.5009765,4.6946094 12.5,4.6936328 12.5,4.6936328 C12.5,4.6936328 12.4990235,4.6936328 12.4990235,4.6936328 C12.30647,4.5958394 12.1149235,4.523487 11.9316405,4.4719531 C11.746721,4.41987555 11.5712595,4.3882481 11.4121095,4.36941405 C11.2542815,4.35053905 11.114,4.345 11,4.345 Z M6.5,9.845 C6.31968204,9.84244986 6.15195932,9.93718765 6.06105614,10.0929364 C5.97015296,10.2486852 5.97015296,10.4413148 6.06105614,10.5970636 C6.15195932,10.7528124 6.31968204,10.8475501 6.5,10.845 L15.5,10.845 C15.680318,10.8475501 15.8480407,10.7528124 15.9389439,10.5970636 C16.029847,10.4413148 16.029847,10.2486852 15.9389439,10.0929364 C15.8480407,9.93718765 15.680318,9.84244986 15.5,9.845 L6.5,9.845 Z M6.5,12.345 C6.31968204,12.3424499 6.15195932,12.4371876 6.06105614,12.5929364 C5.97015296,12.7486852 5.97015296,12.9413148 6.06105614,13.0970636 C6.15195932,13.2528124 6.31968204,13.3475501 6.5,13.345 L12,13.345 C12.180318,13.3475501 12.3480407,13.2528124 12.4389439,13.0970636 C12.529847,12.9413148 12.529847,12.7486852 12.4389439,12.5929364 C12.3480407,12.4371876 12.180318,12.3424499 12,12.345 L6.5,12.345 Z M0,13.912383 L0,23.4133595 C0.04,23.3828595 0.0766875,23.3530625 0.1171875,23.3215625 C1.8541875,21.9705625 4.238633,20.1161485 6.098633,18.6721485 L0,13.912383 Z M22,13.912383 L15.870117,18.6965625 C17.694117,20.1360625 20.075,22.0130935 22,23.528594 L22,13.912383 Z M11,16.756133 C10.8745,16.756133 10.2163985,16.781258 9.5458985,17.271758 C9.0863985,17.611258 3.6514455,21.8401015 0.7314453,24.1116015 C0.4554453,24.3261015 0.215,24.513961 0,24.679961 L0,25.845 C0,26.1215 0.2235,26.345 0.5,26.345 L21.5,26.345 C21.7765,26.345 22,26.1215 22,25.845 L22,24.8010545 C18.4855,22.0350545 12.8285,17.5730625 12.4375,17.2590625 C11.8905,16.8220625 11.302,16.756133 11,16.756133 Z"
                                id="Shape"></path>
                        </g>
                    </g>
                </g>
            </g>
        </g>
    </g>
</svg>