<?xml version="1.0" encoding="UTF-8"?>
<svg height="23px" version="1.1" viewBox="0 0 24 23" width="24px"
    xmlns="http://www.w3.org/2000/svg">
    <!-- Generator: Sketch 57.1 (83088) - https://sketch.com -->
    <title>icons8-chat-bubble-50-2</title>
    <desc>Created with Sketch.</desc>
    <g fill="none" fill-rule="evenodd" id="Symbols" stroke="none" stroke-width="1">
        <g fill="#6E19FF" fill-rule="nonzero" id="Bottom-nav-chat"
            transform="translate(-237.000000, -13.000000)">
            <g id="Bottom-nav">
                <g id="Navbar">
                    <g id="Nav-icons-2" transform="translate(29.500000, 10.000000)">
                        <g id="Messages" transform="translate(208.000000, 0.155000)">
                            <g id="icons8-chat-bubble-50-2"
                                transform="translate(0.054688, 3.345000)">
                                <path
                                    d="M11.5,0 C5.1503905,0 0,4.5 0,10 C0,13.0996095 1.6503905,16.0507815 4.5,17.9003905 C4.449219,18.449219 4.1503905,19.699219 3.0996095,21.199219 L2.5507815,22 L3.5507815,22 C6.25,22 8.0996095,20.3496095 8.699219,19.699219 C9.5996095,19.9003905 10.5507815,20 11.5,20 C17.8496095,20 23,15.5 23,10 C23,4.5 17.8496095,0 11.5,0 Z M6.5,11 C5.949219,11 5.5,10.5507815 5.5,10 C5.5,9.449219 5.949219,9 6.5,9 C7.0507815,9 7.5,9.449219 7.5,10 C7.5,10.5507815 7.0507815,11 6.5,11 Z M11.5,11 C10.949219,11 10.5,10.5507815 10.5,10 C10.5,9.449219 10.949219,9 11.5,9 C12.0507815,9 12.5,9.449219 12.5,10 C12.5,10.5507815 12.0507815,11 11.5,11 Z M16.5,11 C15.949219,11 15.5,10.5507815 15.5,10 C15.5,9.449219 15.949219,9 16.5,9 C17.0507815,9 17.5,9.449219 17.5,10 C17.5,10.5507815 17.0507815,11 16.5,11 Z"
                                    id="Shape"></path>
                            </g>
                        </g>
                    </g>
                </g>
            </g>
        </g>
    </g>
</svg>