<?xml version="1.0" encoding="UTF-8"?>
<svg height="24px" version="1.1" viewBox="0 0 24 24" width="24px"
    xmlns="http://www.w3.org/2000/svg">
    <!-- Generator: Sketch 57.1 (83088) - https://sketch.com -->
    <title>icons8-home-50-2</title>
    <desc>Created with Sketch.</desc>
    <g fill="none" fill-rule="evenodd" id="Symbols" stroke="none" stroke-width="1">
        <g fill="#6E19FF" fill-rule="nonzero" id="Bottom-nav"
            transform="translate(-31.000000, -13.000000)">
            <g id="Navbar">
                <g>
                    <g id="Nav-icons-2" transform="translate(29.500000, 10.000000)">
                        <g id="icons8-home-50-2" transform="translate(1.500000, 3.500000)">
                            <path
                                d="M12,0.0253906 C11.89125,0.0253906 11.7829295,0.0598828 11.6904295,0.1298828 L0.1904297,9.105469 C-0.02457031,9.275469 -0.06453125,9.5895705 0.10546875,9.8095705 C0.27546875,10.0245705 0.5895703,10.064531 0.8095703,9.894531 L1.5,9.355469 L1.5,22.5 C1.5,22.775 1.725,23 2,23 L9,23 L9,14 L15,14 L15,23 L22,23 C22.275,23 22.5,22.775 22.5,22.5 L22.5,9.355469 L23.1904295,9.894531 C23.2854295,9.9645315 23.39,10 23.5,10 C23.65,10 23.7945315,9.9345705 23.894531,9.8095705 C24.0645315,9.5895705 24.0245705,9.275469 23.8095705,9.105469 L12.3095705,0.1298828 C12.2170705,0.0598828 12.10875,0.0253906 12,0.0253906 Z M17,2 L17,2.5253906 L20,4.8652345 L20,2 L17,2 Z"
                                id="Shape"></path>
                        </g>
                    </g>
                </g>
            </g>
        </g>
    </g>
</svg>