<?xml version="1.0" encoding="UTF-8"?>
<svg height="270px" version="1.1" viewBox="0 0 282 270" width="282px"
    xmlns="http://www.w3.org/2000/svg">
    <!-- Generator: Sketch 57.1 (83088) - https://sketch.com -->
    <title>Create</title>
    <desc>Created with Sketch.</desc>
    <defs>
        <radialGradient cx="10.2323142%" cy="62.1463835%" fx="10.2323142%" fy="62.1463835%"
            gradientTransform="translate(0.102323,0.621464),scale(0.802697,1.000000),translate(-0.102323,-0.621464)"
            id="radialGradient-1" r="56.5717609%">
            <stop offset="8.86%" stop-color="#9ABDF9"></stop>
            <stop offset="77.56%" stop-color="#A5C4FA"></stop>
        </radialGradient>
    </defs>
    <g fill="none" fill-rule="evenodd" id="App" stroke="none" stroke-width="1">
        <g fill-rule="nonzero" id="Intro-Create-projects"
            transform="translate(-36.000000, -97.000000)">
            <g id="Create" transform="translate(36.400000, 97.000000)">
                <path
                    d="M210.406948,269.783966 L123.854654,268.950683 C99.9289125,268.720357 67.9960343,257.773186 42.5628255,234.823557 C-7.010256,190.090702 -14.2816534,96.8800884 27.5196409,44.14197 C30.2016824,40.7582282 54.6473073,10.7969189 95.2137468,2.7494449 C99.6605734,1.86735226 138.829535,-5.52483149 148.877594,11.0054271 C156.255757,23.1434417 143.64277,41.1226116 151.236414,46.9779372 C157.307371,51.6590638 166.247659,41.8376577 177.284876,45.7223892 C189.755859,50.1117841 196.588047,69.2039726 195.150682,84.3860878 C192.759697,109.640629 167.722512,121.582056 166.309439,122.228124 L167.594303,154.91766 C181.865185,193.206354 196.136066,231.495123 210.406948,269.783966 Z"
                    fill="#EEE6FF" id="Path"></path>
                <path
                    d="M15.4333597,159.798448 L151.095534,24.2697312 C150.866857,27.1697279 150.557056,29.4863364 150.334453,30.9778339 C149.377309,37.3889567 148.342715,39.8501189 149.469379,43.473484 C149.895768,44.844945 150.20107,46.0839234 151.236414,46.9780122 C152.44044,47.8824224 153.922249,48.3384859 155.426448,48.2675994 C156.948645,48.2907507 158.459892,48.0068357 159.8699,47.4328166 C162.972269,46.3010919 166.174666,45.4651405 169.434364,44.9361158 C169.434364,44.9361158 173.603704,44.3196632 179.362836,46.5492245 C187.120302,49.5523882 193.495212,59.6530049 194.700226,72.4384373 L108.050463,159.0882 L15.4333597,159.798448 Z"
                    fill="#E3D6FF" id="Path"></path>
                <rect fill="#7EEDAD" height="72.0464628" id="Rectangle" width="101.616547"
                    x="36.8160651" y="78.7244251"></rect>
                <path
                    d="M169.667689,165.749968 L4.29230102,165.757466 C3.98257517,164.500718 3.69249302,163.159322 3.43757462,161.738377 C3.20252486,160.427347 3.01943347,159.169924 2.87780381,157.974582 L169.667689,157.974582 L169.667689,165.749968 Z"
                    fill="#7384A6" id="Path"></path>
                <path
                    d="M169.696705,160.411152 L169.696705,165.680615 L4.32356602,165.688113 C10.3981215,192.559886 23.2860461,217.333756 42.5920662,234.754579 C68.0252749,257.704283 99.9581532,268.651229 123.883969,268.88178 L210.435889,269.714989 C196.856136,233.280301 183.276408,196.845689 169.696705,160.411152 Z"
                    fill="#919EB8" id="Path"></path>
                <path
                    d="M28.3795764,191.156866 L89.7318374,191.156866 C90.5701444,191.156866 91.2497266,191.836448 91.2497266,192.674755 L91.2497266,192.674755 C91.2497266,193.513062 90.5701444,194.192644 89.7318374,194.192644 L28.3795764,194.192644 L28.3795764,191.156866 Z"
                    fill="#4F638A" id="Path"
                    transform="translate(59.814651, 192.674755) rotate(135.000000) translate(-59.814651, -192.674755) "></path>
                <path
                    d="M34.976467,191.225067 L96.2179884,191.225067 L96.2179884,194.260845 L34.976467,194.260845 C34.13816,194.260845 33.4585779,193.581263 33.4585779,192.742956 L33.4585779,192.742956 C33.4585779,191.904649 34.13816,191.225067 34.976467,191.225067 Z"
                    fill="#4F638A" id="Path"
                    transform="translate(64.838283, 192.742956) rotate(-135.000000) translate(-64.838283, -192.742956) "></path>
                <polygon fill="#7EF4C3" id="Path"
                    points="36.816215 150.770738 109.134316 78.4526371 138.432687 78.4526371 66.1753171 150.710007"></polygon>
                <path
                    d="M50.8269086,190.954513 L111.755705,190.954513 C112.65012,190.954513 113.375187,191.67958 113.375187,192.573995 L113.375187,192.765034 C113.375187,193.659449 112.65012,194.384515 111.755705,194.384515 L50.8269086,194.384515 L50.8269086,190.954588 L50.8269086,190.954513 Z"
                    fill="#A2B6DE" id="Path"
                    transform="translate(82.101048, 192.669514) rotate(135.000000) translate(-82.101048, -192.669514) "></path>
                <path
                    d="M53.7069532,189.782827 L117.584481,189.782827 L117.584481,193.212754 L53.7069532,193.212754 C52.7908817,193.212754 52.0482591,192.470131 52.0482591,191.55406 L52.0482591,191.441596 C52.0482591,191.00167 52.2229852,190.579755 52.5340529,190.268674 C52.8451205,189.957592 53.2670272,189.782827 53.7069532,189.782827 Z"
                    fill="#A2B6DE" id="Path"
                    transform="translate(84.816370, 191.497790) rotate(-135.000000) translate(-84.816370, -191.497790) "></path>
                <polygon fill="#50EAAA" id="Path"
                    points="66.1753921 150.709857 138.432537 78.7248 138.432537 107.016094 94.6773685 150.771263"></polygon>
                <path
                    d="M57.7835743,191.26689 L118.422814,191.26689 L118.422814,194.302668 L57.7835743,194.302668 C56.9452673,194.302668 56.2656852,193.623086 56.2656852,192.784779 L56.2656852,192.784779 C56.2656852,191.946472 56.9452673,191.26689 57.7835743,191.26689 Z"
                    fill="#384661" id="Path"
                    transform="translate(87.344249, 192.784779) rotate(-135.000000) translate(-87.344249, -192.784779) "></path>
                <path
                    d="M51.7814509,191.37377 L112.571242,191.37377 C113.409549,191.37377 114.089131,192.053352 114.089131,192.891659 L114.089131,192.891659 C114.089131,193.729966 113.409549,194.409548 112.571242,194.409548 L51.7814509,194.409548 L51.7814509,191.37377 Z"
                    fill="#384661" id="Path"
                    transform="translate(82.935291, 192.891659) rotate(135.000000) translate(-82.935291, -192.891659) "></path>
                <path
                    d="M106.945766,168.344438 L75.3342353,168.344438 L75.3342353,171.380216 L106.945766,171.380216 C107.499433,171.39762 108.018655,171.112179 108.300635,170.63538 C108.582615,170.158582 108.582615,169.566071 108.300635,169.089273 C108.018655,168.612474 107.499433,168.327033 106.945766,168.344438 L106.945766,168.344438 Z"
                    fill="#FFFFFF" id="Path"></path>
                <rect fill="#FFFFFF" height="15.592009" id="Rectangle" width="3.13272221"
                    x="100.609395" y="152.752429"></rect>
                <path
                    d="M78.4669575,136.58168 C78.4427742,135.733998 77.7486233,135.059368 76.9005964,135.059368 C76.0525695,135.059368 75.3584187,135.733998 75.3342353,136.58168 L75.3342353,151.768968 L78.4669575,151.768968 L78.4669575,136.58168 Z"
                    fill="#FFFFFF" id="Path"></path>
                <rect fill="#FFFFFF" height="19.7036178" id="Rectangle" width="3.13272221"
                    x="75.3342353" y="152.752429"></rect>
                <path
                    d="M100.609395,153.759956 L100.609395,153.656639 L103.742117,153.656639 L103.742117,153.759956 L107.452829,153.759956 L107.452829,153.741962 C107.452829,152.109134 106.549518,150.785433 105.435225,150.785433 L78.4669575,150.785433 L78.4669575,153.759956 L100.609395,153.759956 Z"
                    fill="#FFFFFF" id="Path"></path>
                <rect fill="#FFFFFF" height="1" id="Rectangle" width="3.13272221" x="100.609395"
                    y="152.684125"></rect>
                <rect fill="#FFFFFF" height="1.96699536" id="Rectangle" width="3.13272221"
                    x="75.3342353" y="150.785433"></rect>
                <rect fill="#FFFFFF" height="14.1920571" id="Rectangle"
                    transform="translate(58.261788, 143.416417) rotate(-180.000000) translate(-58.261788, -143.416417) "
                    width="38.0662899" x="39.2286428" y="136.320389"></rect>
                <rect fill="#536991" height="14.1920571" id="Rectangle"
                    transform="translate(58.261788, 144.696932) rotate(-180.000000) translate(-58.261788, -144.696932) "
                    width="38.0662899" x="39.2286428" y="137.600904"></rect>
                <rect fill="#435575" height="14.1680648" id="Rectangle" width="10.7804242"
                    x="39.7516754" y="137.6129"></rect>
                <path
                    d="M77.2948577,169.283587 L107.928327,169.283587 L107.928327,172.319365 L77.2948577,172.319365 C76.4565507,172.319365 75.7769686,171.639783 75.7769686,170.801476 L75.7769686,170.801476 C75.7769686,169.963169 76.4565507,169.283587 77.2948577,169.283587 Z"
                    fill="#2F3B52" id="Path"
                    transform="translate(91.852648, 170.801476) rotate(180.000000) translate(-91.852648, -170.801476) "></path>
                <path
                    d="M68.2956384,168.344438 L36.6839574,168.344438 L36.6839574,171.380216 L68.2956384,171.380216 C68.8493048,171.39762 69.3685273,171.112179 69.650507,170.63538 C69.9324866,170.158582 69.9324866,169.566071 69.650507,169.089273 C69.3685273,168.612474 68.8493048,168.327033 68.2956384,168.344438 L68.2956384,168.344438 Z"
                    fill="#FFFFFF" id="Path"></path>
                <rect fill="#FFFFFF" height="15.592009" id="Rectangle" width="3.13272221"
                    x="61.9591167" y="152.752429"></rect>
                <path
                    d="M39.8166796,136.58168 C39.7924962,135.733998 39.0983454,135.059368 38.2503185,135.059368 C37.4022916,135.059368 36.7081407,135.733998 36.6839574,136.58168 L36.6839574,151.768968 L39.8166796,151.768968 L39.8166796,136.58168 Z"
                    fill="#FFFFFF" id="Path"></path>
                <rect fill="#FFFFFF" height="19.7036178" id="Rectangle" width="3.13272221"
                    x="36.6839574" y="152.752429"></rect>
                <path
                    d="M61.9591167,153.759956 L61.9591167,153.656639 L65.0918389,153.656639 L65.0918389,153.759956 L68.8024762,153.759956 L68.8024762,153.741962 C68.8024762,152.109134 67.8992403,150.785433 66.784947,150.785433 L39.8166796,150.785433 L39.8166796,153.759956 L61.9591167,153.759956 Z"
                    fill="#FFFFFF" id="Path"></path>
                <rect fill="#FFFFFF" height="1" id="Rectangle" width="3.13272221" x="61.9591167"
                    y="152.684125"></rect>
                <rect fill="#FFFFFF" height="1.96699536" id="Rectangle" width="3.13272221"
                    x="36.6839574" y="150.785433"></rect>
                <path
                    d="M39.2286428,169.420268 L69.862112,169.420268 L69.862112,172.456046 L39.2286428,172.456046 C38.3903358,172.456046 37.7107537,171.776464 37.7107537,170.938157 L37.7107537,170.938157 C37.7107537,170.09985 38.3903358,169.420268 39.2286428,169.420268 Z"
                    fill="#2F3B52" id="Path"
                    transform="translate(53.786433, 170.938157) rotate(180.000000) translate(-53.786433, -170.938157) "></path>
                <rect fill="#2F3B52" height="3.03577824" id="Rectangle"
                    transform="translate(63.721578, 161.590150) rotate(-90.000000) translate(-63.721578, -161.590150) "
                    width="15.6603871" x="55.891384" y="160.07226"></rect>
                <path
                    d="M22.0965518,150.770363 L54.8428447,150.770363 C55.6811517,150.770363 56.3607338,151.449945 56.3607338,152.288252 L56.3607338,152.288252 C56.3607338,152.690821 56.2008138,153.076902 55.9161544,153.361562 C55.6314949,153.646221 55.2454139,153.806141 54.8428447,153.806141 L22.0965518,153.806141 L22.0965518,150.770363 Z"
                    fill="#2F3B52" id="Path"
                    transform="translate(39.228643, 152.288252) rotate(-90.000000) translate(-39.228643, -152.288252) "></path>
                <path
                    d="M60.2308824,150.701947 L92.840494,150.701947 C93.678801,150.701947 94.3583832,151.38153 94.3583832,152.219837 L94.3583832,152.219837 C94.3583832,153.058144 93.678801,153.737726 92.840494,153.737726 L60.2308824,153.737726 L60.2308824,150.701947 Z"
                    fill="#2F3B52" id="Path"
                    transform="translate(77.294633, 152.219837) rotate(-90.000000) translate(-77.294633, -152.219837) "></path>
                <path
                    d="M75.7769686,151.792961 L107.281884,151.792961 L107.281884,153.759956 L77.743964,153.759956 C76.6576224,153.759956 75.7769686,152.879302 75.7769686,151.792961 L75.7769686,151.792961 L75.7769686,151.792961 Z"
                    fill="#2F3B52" id="Path"
                    transform="translate(91.529426, 152.776458) rotate(-180.000000) translate(-91.529426, -152.776458) "></path>
                <path
                    d="M37.7106037,151.861339 L68.8353156,151.861339 L68.8353156,153.828334 L39.6656779,153.828334 C38.5859203,153.828334 37.7106037,152.953018 37.7106037,151.87326 L37.7106037,151.861339 L37.7106037,151.861339 Z"
                    fill="#2F3B52" id="Path"
                    transform="translate(53.272960, 152.844836) rotate(-180.000000) translate(-53.272960, -152.844836) "></path>
                <path
                    d="M68.8354656,172.443975 C70.8631915,172.427855 72.8655756,172.389618 74.8273976,172.319365 L105.040176,172.319365 C97.6231648,175.129914 89.6884426,176.312431 81.7742239,175.786705 C77.375947,175.483063 73.031031,174.644806 68.8354656,173.290454 L68.8354656,172.443975 Z"
                    fill="#485A7D" id="Path"></path>
                <polygon fill="#2F3B52" id="Rectangle"
                    points="94.0260895 160.00392 109.549795 160.00392 109.549795 163.039698 94.0260895 163.039698"
                    transform="translate(101.787942, 161.521809) rotate(-90.000000) translate(-101.787942, -161.521809) "></polygon>
                <path
                    d="M206.466809,269.980179 C180.789404,270.076598 159.366361,269.860217 143.510662,269.611372 C120.924742,269.25741 116.655383,268.948809 110.656179,267.926511 C90.0355229,264.393844 70.5219837,256.103852 53.663997,243.714361 C42.9137459,235.714334 33.4433583,226.125125 25.5779874,215.275965 L186.855637,215.325974 L206.466809,269.980179 Z"
                    fill="#1A2438" id="Path" opacity="0.44"></path>
                <path
                    d="M129.22271,251.49747 C129.830016,249.880388 129.933183,249.043656 130.563131,247.13919 C131.273948,245.04074 132.154789,243.003783 133.196888,241.04859 C136.834049,233.743903 136.212198,228.966507 141.121852,217.869235 C141.605522,216.776159 142.019614,215.900215 142.271234,215.376058 L39.8970539,215.489646 C44.4900064,220.430535 49.4996409,224.966999 54.8705108,229.048831 C59.0768309,232.205724 63.4542982,235.127891 67.9829135,237.801979 C88.1135196,249.542546 124.444565,256.708452 126.199753,257.046894 C127.459641,255.346071 128.477026,253.478396 129.22271,251.49747 L129.22271,251.49747 Z"
                    fill="#1A2438" id="Path" opacity="0.44"></path>
                <path
                    d="M169.340794,160.156683 C169.878939,159.932088 170.389601,159.64662 170.862806,159.305856 C170.165929,157.398316 169.469128,155.490752 168.772401,153.583163 L166.278399,151.666476 L163.732589,151.666476 C163.270902,152.113213 163.033266,152.743057 163.084796,153.383427 C163.144711,153.867456 163.374228,154.314588 163.732589,154.645423 L164.663266,154.823716 L165.609013,159.535432 L164.186119,159.98019 L206.626358,269.980104 L207.815028,269.220147 L169.340794,160.156683 Z"
                    fill="#FAFAFA" id="Path"></path>
                <path
                    d="M160.828993,154.083852 L161.751198,153.867172 C162.505866,153.130792 162.553882,151.933152 161.860588,151.13872 L164.469753,151.13872 C165.674356,151.13872 166.65088,150.162196 166.65088,148.957593 C166.65088,147.75299 165.674356,146.776466 164.469753,146.776466 L163.860798,146.776466 L163.860798,144.337797 L167.131626,144.337797 L167.131626,142.762701 L166.496429,142.762701 C168.014893,140.593396 169.533332,138.42424 171.051746,136.255234 C171.074839,135.483781 171.097931,134.712428 171.121024,133.941175 L171.286496,133.941175 L171.286496,131.137073 L176.965853,131.137073 L177.447799,116.678026 L173.592008,116.19608 L170.700258,111.858269 L165.39863,111.858269 L161.29212,116.375498 L156.543065,116.221422 L156.545015,116.19608 L155.277245,114.750093 L149.975692,114.750093 C149.622024,114.716143 149.285211,114.908247 149.134387,115.22994 C148.97719,115.651773 149.173872,116.123252 149.584243,116.308319 C149.777083,116.438234 149.904401,116.645119 149.933481,116.875813 C149.954884,117.196428 149.781605,117.498522 149.494047,117.641918 C148.551272,118.043784 147.844554,118.855404 147.576161,119.844487 C147.311777,120.973952 147.676317,122.158257 148.53008,122.943545 C149.114893,123.358013 149.262071,123.723296 149.278641,123.99171 C149.315604,124.588519 148.719395,124.914365 148.798419,125.476235 C148.895715,125.845123 149.150022,126.152715 149.494047,126.317615 L155.277545,126.317615 L155.759491,125.835595 L160.280019,125.835595 L160.097302,131.137298 L154.723473,131.137298 L154.723473,133.9414 L155.907419,133.9414 C156.71591,136.881859 157.524426,139.822368 158.332967,142.762926 L158.038087,142.762926 L158.038087,144.338022 L159.811794,144.338022 L159.811794,146.776691 L158.74571,146.776691 C157.541107,146.776691 156.564583,147.753215 156.564583,148.957818 C156.564583,150.162421 157.541107,151.138945 158.74571,151.138945 L158.913806,151.138945 L156.672024,153.01492 C156.054871,154.94975 155.437794,156.884581 154.820791,158.819412 C155.252447,159.102395 155.711429,159.341317 156.190828,159.532583 L122.539125,268.950683 L123.746239,269.652384 L158.378478,167.69627 L152.683451,269.980104 L154.820866,269.980104 L160.097302,175.214114 L160.097302,196.409454 C160.097302,197.231239 160.763491,197.897428 161.585276,197.897428 C162.407061,197.897428 163.07325,197.231239 163.07325,196.409454 L163.07325,155.483354 L160.608264,155.483354 L160.828993,154.083852 Z M159.644372,163.968163 L160.096778,162.63614 L160.096778,163.968163 L159.644372,163.968163 Z M160.096778,158.858249 L160.075784,158.852626 L160.096778,158.719543 L160.096778,158.858249 Z"
                    fill="#FAFAFA" id="Shape"></path>
                <polygon fill="#2A223C" id="Path"
                    points="161.412831 131.136773 178.281682 131.136773 178.763777 116.677651 174.907762 116.196305 172.015937 111.858194 166.714384 111.858194 164.786751 114.267923 161.894927 117.159747"></polygon>
                <path
                    d="M150.809575,126.317316 L156.593224,126.317316 L157.07517,125.83537 L157.860993,116.196005 L156.593224,114.750093 L151.291596,114.750093 C150.937954,114.716176 150.60118,114.908275 150.450365,115.22994 C150.293129,115.651773 150.489822,116.12328 150.900221,116.308319 C151.093055,116.438241 151.220371,116.645123 151.24946,116.875813 C151.270836,117.196462 151.097492,117.498566 150.809875,117.641918 C149.867174,118.043824 149.160502,118.855395 148.892064,119.844413 C148.627717,120.973898 148.99225,122.158207 149.845984,122.943545 C150.430797,123.357938 150.577975,123.723296 150.594619,123.991635 C150.631582,124.588519 150.035298,124.914365 150.114398,125.47616 C150.211605,125.8449 150.465742,126.152401 150.809575,126.317316 Z"
                    fill="#473A66" id="Path"></path>
                <path
                    d="M157.07517,125.83537 L161.595773,125.83537 L162.677227,116.377672 L157.075245,116.196005 C156.819802,116.285977 154.35549,117.196035 153.701325,119.569925 C153.064329,121.882185 154.408798,124.626682 157.07517,125.83537 Z"
                    fill="#2A223C" id="Path"></path>
                <path
                    d="M166.309439,119.729174 L173.057279,119.729174 L173.057279,125.379591 L166.278699,125.374867 C166.288846,123.49287 166.299092,121.610972 166.309439,119.729174 Z"
                    fill="#A574FF" id="Path"></path>
                <rect fill="#42355E" height="1.58109389" id="Rectangle" width="4.15494499"
                    x="168.447829" y="128.205961"></rect>
                <rect fill="#473A66" height="13.1508654" id="Rectangle" width="3.31064026"
                    x="161.866361" y="117.986132"></rect>
                <polygon fill="#2A223C" id="Path"
                    points="170.088304 111.858194 165.177376 117.985982 161.866436 117.985982 161.894927 117.159747 166.714384 111.858194"></polygon>
                <rect fill="#473A66" height="2.80417738" id="Rectangle" width="16.563548"
                    x="156.039226" y="131.136998"></rect>
                <path
                    d="M172.437302,133.941175 L157.223247,133.941175 C158.031789,136.881634 158.840305,139.822118 159.648796,142.762626 L167.812708,142.762626 L172.36795,136.255159 C172.391042,135.483806 172.41416,134.712478 172.437302,133.941175 Z"
                    fill="#2A223C" id="Path"></path>
                <rect fill="#2A223C" height="2.93755968" id="Rectangle" width="4.04945376"
                    x="161.127548" y="143.838907"></rect>
                <rect fill="#473A66" height="1.57509581" id="Rectangle" width="9.09383904"
                    x="159.35399" y="142.762626"></rect>
                <rect fill="#473A66" height="4.36225363" id="Rectangle" rx="2.18112682"
                    width="10.0866712" x="157.880487" y="146.776466"></rect>
                <polygon fill="#2A223C" id="Path"
                    points="209.130557 269.220072 207.942187 269.980329 165.502022 159.98004 170.088304 158.546499"></polygon>
                <polygon fill="#2A223C" id="Path"
                    points="123.855104 268.950908 125.062217 269.652684 162.589205 159.172548 157.994676 157.945941"></polygon>
                <path
                    d="M162.30632,162.081317 L159.705703,161.681245 C157.803512,197.78089 155.901321,233.880509 153.99913,269.980104 L156.136545,269.980104 L162.30632,162.081317 Z"
                    fill="#2A223C" id="Path"></path>
                <path
                    d="M161.412906,153.867172 L164.388929,153.867172 L164.388929,196.409454 C164.388929,197.231239 163.72274,197.897428 162.900955,197.897428 L162.900955,197.897428 C162.07917,197.897428 161.412981,197.231239 161.412981,196.409454 L161.412981,153.867172 L161.412906,153.867172 Z"
                    fill="#382D4F" id="Path"></path>
                <polygon fill="#473A66" id="Path"
                    points="163.152275 136.157916 164.830237 139.807747 177.478689 148.957818 178.763777 147.524277 165.97737 138.351713 162.627443 133.099644 162.038881 133.940875"></polygon>
                <path
                    d="M164.722722,160.709856 C165.706017,160.786758 166.69529,160.713671 167.656608,160.493101 C168.746194,160.244147 169.781846,159.800412 170.713679,159.18327 C169.881645,157.112583 169.049687,155.041896 168.217803,152.971209 L165.240056,150.89055 L162.200454,150.89055 C161.661527,151.353982 161.374533,152.04569 161.427077,152.754528 C161.506564,153.291115 161.782101,153.779201 162.200454,154.124489 L163.311674,154.317927 L164.722722,160.709856 Z"
                    fill="#473A66" id="Path"></path>
                <path
                    d="M161.208222,160.016103 C159.428494,160.244387 157.626391,159.819064 156.136545,158.819112 L157.987703,153.014695 L160.400056,150.996191 L162.943691,150.89055 C163.423542,151.317793 163.68709,151.937305 163.662111,152.579309 C163.622397,153.065444 163.411627,153.521758 163.067252,153.867172 L162.145047,154.083852 L161.208222,160.016103 Z"
                    fill="#473A66" id="Path"></path>
                <circle cx="163.152275" cy="31.7889993" fill="#E3D6FF" id="Oval"
                    r="4.63689072"></circle>
                <circle cx="165.64875" cy="15.6600122" fill="#E3D6FF" id="Oval"
                    r="2.31848285"></circle>
                <path
                    d="M212.477785,263.038301 C209.270462,263.769392 208.087791,263.381466 207.454393,264.367625 C206.992616,265.086795 206.826769,266.530458 208.71459,269.783817 C209.738612,269.77222 210.763434,269.761699 211.789056,269.752252 C220.52371,269.672277 229.199133,269.672277 237.815325,269.752252 C237.92339,266.765458 238.031406,263.778664 238.139371,260.79187 L223.838224,258.13577 C222.283293,259.072591 220.673876,259.915844 219.018542,260.661037 C216.929486,261.68487 214.73671,262.481843 212.477785,263.038301 Z"
                    fill="#5C4B85" id="Path"></path>
                <path
                    d="M223.838374,258.13592 L238.449022,263.276724 C245.389025,252.905444 247.51362,244.188735 248.167186,238.133973 C248.915671,231.203191 248.079239,224.924551 249.613098,210.179846 C249.960162,206.843414 250.35851,203.866867 250.577065,202.468339 C251.666691,195.497071 255.356485,182.553064 270.337739,165.356794 L237.08161,185.599414 C237.214712,204.001372 234.78146,222.332023 229.852124,240.061981 C228.046027,246.53091 226.001581,252.559055 223.838374,258.13592 Z"
                    fill="#372D4F" id="Path"></path>
                <path
                    d="M235.17467,256.502643 C231.915163,259.996524 228.974155,261.097697 226.817095,261.424967 C223.930969,261.862977 221.249003,261.097247 218.752227,263.029454 C217.906033,263.635449 217.275054,264.495419 216.950928,265.484468 C216.614933,266.948759 216.922112,268.486839 217.794783,269.70974 C224.233272,269.858643 230.906811,269.872763 237.8154,269.752102 C243.637686,269.642137 249.291126,269.434703 254.775721,269.129801 C255.217844,267.877048 255.489321,266.57048 255.582837,265.245294 C255.750881,262.616979 255.237525,259.989794 254.092464,257.618061 L235.17467,256.502643 Z"
                    fill="#504173" id="Path"></path>
                <path
                    d="M216.488626,99.3270802 C226.891031,101.092455 237.58483,99.5999424 247.106351,95.053823 C254.001896,91.6850056 260.035138,86.7829804 264.744155,80.7230604 L270.337364,92.6592396 C266.514036,95.8222145 262.344735,98.5419362 257.909193,100.766394 C241.54673,108.959172 225.688032,108.243901 217.49188,107.213431 L216.488626,99.3270802 Z"
                    fill="#7325F8" id="Path"></path>
                <path
                    d="M275.157421,152.343734 L241.419646,157.163492 C240.215681,158.380127 238.308667,160.368191 236.118018,162.947065 C229.091942,171.218193 225.508239,178.565916 218.627617,192.923745 C217.340804,195.60916 215.895041,198.726137 216.066437,202.827025 C216.10325,203.708218 216.831192,206.19877 218.285126,211.143887 C220.061083,217.183654 220.854929,219.52343 222.255181,222.308339 C223.040329,223.869864 223.71039,224.989705 224.068775,225.602934 C227.017431,230.648819 231.265421,239.725488 237.08191,257.412852 C239.233335,258.467517 241.496949,259.275929 243.82975,259.82273 C247.780017,260.740432 251.86805,260.903945 255.878993,260.304676 C253.240625,241.094717 246.854211,222.590165 237.082509,205.842109 C247.730601,193.412438 256.101521,184.021994 263.108778,176.923866 C265.89856,174.098021 271.13121,168.942221 273.712184,160.536962 C274.526103,157.875007 275.011451,155.123511 275.157421,152.343734 L275.157421,152.343734 Z"
                    fill="#2A223C" id="Path"></path>
                <path
                    d="M267.83459,87.3175744 L270.337739,92.6588647 C260.496671,100.798313 248.496505,105.892817 235.805443,107.319072 L218.38402,104.8885 L219.095167,101.337712 C222.587657,102.209463 226.207169,102.45431 229.785245,102.060855 C233.53367,101.625994 234.286354,100.773217 237.810526,100.644633 C242.950131,100.457193 243.666677,102.18614 247.724003,102.060855 C252.932511,101.899957 256.809445,98.8943937 259.879937,96.5139806 C263.107713,93.9985604 265.810355,90.8740261 267.83459,87.3175744 Z"
                    fill="#6515ED" id="Path"></path>
                <path
                    d="M211.280119,92.0109971 C210.570396,87.9553203 210.18157,85.7340063 208.388369,83.8175448 C205.492727,80.8968591 201.149945,79.9527914 197.303093,81.4077412 C196.222614,81.8555193 195.24021,82.5104213 194.411268,83.3355241 C194.007996,82.9094857 193.513737,82.5799965 192.965356,82.3716326 C190.982166,81.6360431 188.424885,82.6740108 187.663728,84.2995655 C187.03498,85.6422357 188.185936,86.3365884 187.663728,87.6734855 C186.803454,89.8755306 183.148374,89.4729095 182.619943,91.1934588 C182.462943,91.7042702 182.557188,92.4998406 183.639617,93.7565133 C182.916561,94.0206353 182.266865,94.4532779 181.744373,95.0185843 C180.444206,96.4504168 180.104378,98.5115418 180.876076,100.284974 C180.738001,98.8129903 181.278045,97.3582836 182.343206,96.3329886 C182.747002,95.9598494 183.216253,95.6645122 183.727338,95.4618424 C182.786128,96.1400786 182.18521,97.1930743 182.080041,98.3484184 C181.960685,100.175067 183.067299,101.859331 184.791248,102.474873 C184.251451,101.864377 183.979285,101.062763 184.03579,100.24981 C184.149903,99.471409 184.669712,99.0154049 185.339622,98.2940608 C186.248456,97.3104329 187.066219,96.246415 187.782865,95.1150784 C188.064575,96.1689411 188.34621,97.2228537 188.62777,98.2768164 C189.515036,99.6701703 191.070038,100.172135 192.00169,99.7227285 C193.110135,99.1879997 193.720515,97.1204615 192.483561,95.384992 C192.959811,95.2797472 193.453297,95.2797472 193.929548,95.384992 C195.586892,95.7624962 196.866133,97.4826706 197.303468,99.7227285 C197.883005,100.157182 198.536047,100.483716 199.231326,100.686695 C200.334127,101.000131 201.502444,101.000131 202.605246,100.686695 C204.877018,102.729266 207.919469,103.025946 209.834731,101.650586 C210.890853,100.818742 211.582196,99.6088783 211.762664,98.2766664 C211.803624,96.1774536 211.642027,94.0791834 211.280119,92.0109971 Z"
                    fill="#FAFAFA" id="Path"></path>
                <path
                    d="M275.157421,152.343734 L239.113459,159.433015 C256.557225,159.621355 261.654169,162.57196 262.544959,165.634655 C264.122904,171.059993 253.808755,181.330581 243.266605,191.828045 C239.10956,195.96747 233.636387,200.995211 234.508208,206.337926 C234.573737,206.739347 234.637167,207.128323 234.733136,207.588525 C235.167033,209.711626 235.797033,211.789875 236.615034,213.796538 C236.615034,213.796538 236.669167,213.926547 236.734996,214.079873 C239.497111,220.546927 254.141649,245.840681 249.96826,249.462771 C248.866637,250.418865 246.828565,249.539847 246.517339,250.403945 C245.974588,251.910963 252.106575,254.778345 251.615332,256.129337 C251.279215,257.053492 248.178807,256.348192 242.909569,256.678387 C240.953968,256.800517 239.008007,257.045774 237.083259,257.412702 C239.234927,258.466791 241.498475,259.27518 243.831099,259.82258 C247.790563,260.743475 251.888314,260.908413 255.908983,260.308725 C253.270615,241.098765 246.884201,222.594214 237.1125,205.846158 C247.760591,193.416487 256.131512,184.026043 263.138769,176.927915 C265.927876,174.102819 271.181444,168.950469 273.742174,160.54101 C274.549275,157.877193 275.024615,155.123968 275.157421,152.343734 L275.157421,152.343734 Z"
                    fill="#201A2E" id="Path"></path>
                <path
                    d="M202.196177,113.740841 C196.777286,117.039785 194.928003,117.019017 194.245497,116.379996 C193.556617,115.735203 193.743757,114.16693 192.182457,112.137105 C191.974382,111.866614 191.751146,111.608132 191.513821,111.362902 C190.328553,111.744663 189.029335,111.419873 188.163144,110.525271 C188.814803,108.632164 189.060781,106.623111 188.885087,104.628708 C188.490737,103.143217 187.785682,101.758305 186.816467,100.565459 C186.813462,98.6892595 187.022217,96.8187128 187.4388,94.9893437 L190.330625,93.0614858 C191.584055,94.4138616 193.049092,95.5533773 194.668361,96.4354058 C196.23493,97.2617575 197.913256,97.8561029 199.650741,98.199816 C203.568487,98.9908675 207.599196,99.0462927 211.537211,98.3632637 L214.429036,102.218979 C210.624189,106.294981 207.463109,110.927328 205.054786,115.956307 L202.196177,113.740841 Z"
                    fill="#FFAC93" id="Path"></path>
                <path
                    d="M239.113459,159.433015 C240.795029,158.814586 242.537636,158.376861 244.311845,158.127233 C253.582028,156.829623 256.76236,161.761995 264.291375,160.303636 C267.318006,159.717399 269.830077,158.281984 274.854144,155.411227 C276.990445,154.190787 279.059848,152.856803 281.053459,151.415007 C278.917543,149.667541 275.396145,146.709288 271.254096,142.823432 C251.678462,124.457836 247.709158,113.017998 232.625486,105.599122 C227.764829,103.231366 222.565358,101.634319 217.213644,100.865288 L217.213644,100.865288 C216.071686,100.481939 214.833158,101.084292 214.429636,102.219279 L203.567937,115.361672 L214.429636,134.029197 C216.956177,137.902957 219.694475,141.870212 222.644531,145.930962 C227.164609,152.125629 231.694134,157.790441 236.118168,162.94729 L239.113459,159.433015 Z"
                    fill="url(#radialGradient-1)" id="Path"></path>
                <path
                    d="M219.205082,121.997798 C220.84021,124.111545 222.249684,126.390576 223.410486,128.797672 C226.73859,135.920926 227.958747,143.847811 226.92686,151.642184 L222.644606,145.930587 C221.497973,137.952991 220.351465,129.975395 219.205082,121.997798 Z"
                    fill="#96BAFA" id="Path"></path>
                <path
                    d="M175.905242,116.715589 C176.794458,117.940197 177.683673,119.165005 178.572888,120.390013 L178.653563,119.983643 L184.135583,127.961614 L208.490937,129.131765 C209.365307,131.545092 211.233484,137.592431 208.337686,140.776812 C208.20796,140.919423 208.070285,141.054595 207.925318,141.181682 L180.670417,133.941325 C179.449644,133.876032 178.285658,133.404843 177.363226,132.602554 C176.900254,132.186304 176.516152,131.689965 176.229364,131.137373 L178.281532,131.137373 C177.44213,128.457812 176.964358,125.678146 176.860886,122.872093 L175.203167,120.168609 C174.337569,118.796548 174.33412,117.451928 174.942176,116.948914 C175.21835,116.743919 175.565869,116.659725 175.905242,116.715589 L175.905242,116.715589 Z"
                    fill="#FFCABA" id="Path"></path>
                <path
                    d="M214.119835,121.206951 C211.412601,123.372408 210.225956,123.636998 209.705623,123.266917 C209.195036,122.903658 209.43346,122.005371 208.760025,121.511204 C208.375542,121.512693 207.997482,121.609913 207.659978,121.794088 C205.535608,122.986207 206.237458,127.535301 206.912617,136.70584 C207.132221,139.687636 207.269578,142.08012 207.344179,143.466426 C205.135236,144.306607 202.751974,145.120097 200.20024,145.868207 C196.357567,146.994577 192.448442,147.88041 188.495587,148.520558 L186.05032,147.607725 C185.460106,147.011363 184.792506,146.496932 184.065405,146.078215 C182.825002,145.952355 181.539764,145.791707 180.209689,145.596269 C179.216058,145.448517 178.252116,145.287843 177.317865,145.114249 C177.014472,145.341808 176.835919,145.698927 176.835919,146.078178 C176.835919,146.457428 177.014472,146.814547 177.317865,147.042106 L178.763777,147.524127 C178.004068,148.226284 177.354192,149.038623 176.835919,149.933931 C176.544119,150.361801 176.377213,150.862467 176.353899,151.379843 C176.362878,151.899774 176.531118,152.404441 176.835919,152.825755 L178.281832,152.825755 C178.305599,152.975707 178.832905,155.974747 181.533991,157.038432 C182.690195,157.493761 187.076516,156.037277 187.61027,155.239982 C194.18056,156.372546 200.814112,157.101181 207.473587,157.421784 C213.439502,157.706018 215.070305,157.224297 216.444241,156.501678 C224.579961,152.222423 223.308668,136.119603 223.067096,133.427739 L214.119835,121.206951 Z"
                    fill="#FFAC93" id="Path"></path>
                <path
                    d="M203.344134,101.736959 C202.241339,102.050442 201.073009,102.050442 199.970214,101.736959 C199.274928,101.534033 198.621882,101.207522 198.042356,100.773067 C197.605171,98.5329344 196.325931,96.812835 194.668436,96.4353308 C194.192215,96.3300488 193.698745,96.3300488 193.222524,96.4353308 C194.459628,98.1707253 193.849023,100.238263 192.740578,100.773067 C191.809076,101.222398 190.253999,100.720584 189.366658,99.3270802 C189.085048,98.2732175 188.803414,97.2193299 188.521754,96.1654172 C187.80511,97.2967353 186.987373,98.3607512 186.078586,99.3443996 C185.4086,100.065669 184.888792,100.521523 184.774678,101.300149 C184.71819,102.113099 184.990354,102.914707 185.530136,103.525211 C183.905065,102.980521 182.808282,101.460218 182.803924,99.7462972 C182.799593,98.0323766 183.888654,96.506532 185.510942,95.95361 C183.359656,94.0072331 183.158795,92.8958638 183.359131,92.2441724 C183.887562,90.523998 187.542792,90.9261693 188.402917,88.7241242 C188.925125,87.3873771 187.774168,86.6930244 188.402917,85.3502042 C189.164073,83.7246495 191.72143,82.6867568 193.704545,83.4223463 C194.252925,83.6307102 194.747185,83.9601994 195.150457,84.3862378 C195.979413,83.5611336 196.961812,82.9062094 198.042281,82.4583799 C201.889132,81.0034101 206.231925,81.9474802 209.127558,84.8681835 C210.920759,86.78472 211.309359,89.005959 212.019307,93.0617107 C212.381072,95.1298595 212.542493,97.228083 212.501328,99.3272301 C212.320871,100.659428 211.629557,101.869287 210.57347,102.70115 C208.658208,104.07591 205.616282,103.77953 203.344134,101.736959 Z"
                    fill="#2A223C" id="Path"></path>
                <rect fill="#4A3C6B" height="1.36043952" id="Rectangle" width="1.94877619"
                    x="171.462914" y="116.035332"></rect>
                <path
                    d="M202.196177,113.740841 C202.163037,111.883461 203.437029,111.087666 205.057786,107.88859 C206.281469,105.473463 205.772607,105.498205 206.873404,103.465006 C208.109609,101.181162 209.383826,98.7387435 211.76184,98.2766664 C213.754702,97.8896403 215.897516,99.0165296 216.488327,99.3271551 C217.465715,99.8433529 218.34734,100.523344 219.094867,101.337562 C212.484287,104.904536 207.096103,110.373034 203.627318,117.035662 C202.781253,116.137483 202.275113,114.972231 202.196177,113.740841 L202.196177,113.740841 Z"
                    fill="#7325F8" id="Path"></path>
                <path
                    d="M204.243171,140.203321 C206.044737,140.029756 207.855345,139.968257 209.664536,140.01918 C214.654482,140.169948 219.583804,141.156573 224.247368,142.937995 C224.191765,137.396184 223.504623,131.878773 222.199248,126.492609 C222.199248,126.492609 220.25812,118.692106 216.466733,115.2762 C216.255001,115.085461 216.036746,114.895922 216.036671,114.895922 C215.875023,114.755566 215.705952,114.611962 215.529458,114.465109 C213.355511,112.666209 210.958532,111.155339 208.397891,109.969923 C206.072564,111.735334 204.395329,114.219243 203.626719,117.035812 C203.26702,118.640544 203.251076,120.30324 203.579934,121.914575 C204.175243,125.339104 204.656814,130.862361 204.243171,140.203321 Z"
                    fill="#A5C4FA" id="Path"></path>
                <ellipse cx="187.451397" cy="105.693385" fill="#2A223C" id="Oval" rx="1"
                    ry="2.08253338"
                    transform="translate(187.451397, 105.693385) rotate(-39.324300) translate(-187.451397, -105.693385) "></ellipse>
                <polygon fill="#2A223C" id="Path"
                    points="186.8162 105.094609 192.199476 98.4727286 194.630198 98.1983165 194.434511 98.8003738 192.415407 98.9135875 186.974399 105.655429"></polygon>
                <path
                    d="M187.086113,96.2261478 L187.451396,94.6768437 C185.628825,94.1467839 183.664204,94.7203515 182.413113,96.1477617 C181.162021,97.5751718 180.850939,99.5980269 181.615339,101.335387 C181.446833,99.8688234 181.983888,98.4092545 183.062768,97.4016721 C184.141648,96.3940896 185.634473,95.9579222 187.086113,96.2261478 L187.086113,96.2261478 Z"
                    fill="#2A223C" id="Path"></path>
                <ellipse cx="192.320263" cy="27.1520336" fill="#E3D6FF" id="Oval" rx="13.242486"
                    ry="10.9328504"></ellipse>
                <path
                    d="M217.221217,117.985982 C221.205237,125.392428 222.905106,133.813189 222.106128,142.184936 L224.247593,142.937995 C224.754219,134.069755 222.280965,125.286756 217.221217,117.985982 L217.221217,117.985982 Z"
                    fill="#C8DAFA" id="Path"></path>
                <path
                    d="M212.507851,98.1986164 C215.024939,98.3610246 217.383268,99.4848512 219.094867,101.337562 L217.635384,102.169795 C216.616494,100.137109 214.730475,98.6763972 212.507551,98.1983165 L212.507851,98.1986164 Z"
                    fill="#8C49FE" id="Path"></path>
                <path
                    d="M203.567787,116.219248 C203.467602,114.93131 203.641992,113.636777 204.079424,112.421264 C204.880767,110.249359 206.036297,109.890074 207.925692,107.305126 C210.261645,104.1083 209.793495,102.879443 211.388909,101.927023 C212.44667,101.295575 214.285157,100.861014 217.636059,102.170095 C212.00505,105.804423 207.209994,110.593089 203.568162,116.219248 L203.567787,116.219248 Z"
                    fill="#6515ED" id="Path"></path>
                <rect fill="#7384A6" height="87.2894584" id="Rectangle" rx="1.2420899"
                    width="2.48417981" x="15.4333597" y="73.7511171"></rect>
                <rect fill="#7384A6" height="87.2894584" id="Rectangle" rx="1.2420899"
                    width="2.48417981" x="27.0741335" y="73.7511171"></rect>
                <path
                    d="M59.2832233,30.7584167 C59.9692106,30.7584167 60.5253132,31.3145192 60.5253132,32.0005066 L60.5253132,116.805785 C60.5253132,117.491772 59.9692106,118.047875 59.2832233,118.047875 C58.597236,118.047875 58.0411334,117.491772 58.0411334,116.805785 L58.0411334,32.0005066 C58.0411334,31.3145192 58.597236,30.7584167 59.2832233,30.7584167 Z"
                    fill="#7384A6" id="Rectangle"
                    transform="translate(59.283223, 74.403146) rotate(90.000000) translate(-59.283223, -74.403146) "></path>
                <path
                    d="M22.8075582,75.4155505 C23.0609758,75.4155505 23.2664113,75.620986 23.2664113,75.8744036 L23.2664113,90.1361134 C23.2664113,90.389531 23.0609758,90.5949665 22.8075582,90.5949665 C22.5541406,90.5949665 22.3487051,90.389531 22.3487051,90.1361134 L22.3487051,75.8744036 C22.3487051,75.620986 22.5541406,75.4155505 22.8075582,75.4155505 Z"
                    fill="#7384A6" id="Rectangle"
                    transform="translate(22.807558, 83.005258) rotate(-134.999900) translate(-22.807558, -83.005258) "></path>
                <path
                    d="M22.8075529,75.4156128 C23.0609705,75.4156128 23.266406,75.6210483 23.266406,75.8744659 L23.266406,90.1361757 C23.266406,90.3895933 23.0609705,90.5950288 22.8075529,90.5950288 C22.5541353,90.5950288 22.3486998,90.3895933 22.3486998,90.1361757 L22.3486998,75.8744659 C22.3486998,75.6210483 22.5541353,75.4156128 22.8075529,75.4156128 Z"
                    fill="#7384A6" id="Rectangle"
                    transform="translate(22.807553, 83.005321) rotate(135.000100) translate(-22.807553, -83.005321) "></path>
                <path
                    d="M22.4526737,109.80606 C22.7060913,109.80606 22.9115268,110.011496 22.9115268,110.264914 L22.9115268,124.526623 C22.9115268,124.780041 22.7060913,124.985477 22.4526737,124.985477 C22.1992561,124.985477 21.9938206,124.780041 21.9938206,124.526623 L21.9938206,110.264914 C21.9938206,110.011496 22.1992561,109.80606 22.4526737,109.80606 Z"
                    fill="#7384A6" id="Rectangle"
                    transform="translate(22.452674, 117.395768) rotate(-134.999900) translate(-22.452674, -117.395768) "></path>
                <path
                    d="M22.452685,109.806152 C22.7061026,109.806152 22.9115381,110.011588 22.9115381,110.265006 L22.9115381,124.526715 C22.9115381,124.780133 22.7061026,124.985568 22.452685,124.985568 C22.1992674,124.985568 21.9938319,124.780133 21.9938319,124.526715 L21.9938319,110.265006 C21.9938319,110.011588 22.1992674,109.806152 22.452685,109.806152 Z"
                    fill="#7384A6" id="Rectangle"
                    transform="translate(22.452685, 117.395860) rotate(135.000100) translate(-22.452685, -117.395860) "></path>
                <path
                    d="M36.8160651,33.3633453 L38.3905611,32.4222466 C54.8332113,40.6974525 72.6161844,45.9833423 90.9092997,48.0331495 C110.532445,50.2729125 130.400149,48.8864608 149.522013,43.9429088 L149.399727,44.6617037 C130.96632,49.1265546 111.920398,50.5056026 93.0360689,48.7427973 C73.5371794,46.9639157 54.50527,41.7575778 36.8160651,33.3633453 L36.8160651,33.3633453 Z"
                    fill="#53688F" id="Path"></path>
                <path
                    d="M22.4526159,141.406406 C22.7060335,141.406406 22.9114691,141.611841 22.9114691,141.865259 L22.9114691,156.126969 C22.9114691,156.380386 22.7060335,156.585822 22.4526159,156.585822 C22.1991984,156.585822 21.9937628,156.380386 21.9937628,156.126969 L21.9937628,141.865259 C21.9937628,141.611841 22.1991984,141.406406 22.4526159,141.406406 Z"
                    fill="#7384A6" id="Rectangle"
                    transform="translate(22.452616, 148.996114) rotate(-134.999900) translate(-22.452616, -148.996114) "></path>
                <path
                    d="M22.4526708,141.406495 C22.7060884,141.406495 22.9115239,141.61193 22.9115239,141.865348 L22.9115239,156.127058 C22.9115239,156.380475 22.7060884,156.585911 22.4526708,156.585911 C22.1992532,156.585911 21.9938177,156.380475 21.9938177,156.127058 L21.9938177,141.865348 C21.9938177,141.61193 22.1992532,141.406495 22.4526708,141.406495 Z"
                    fill="#7384A6" id="Rectangle"
                    transform="translate(22.452671, 148.996203) rotate(135.000100) translate(-22.452671, -148.996203) "></path>
                <path
                    d="M90.243781,41.137287 L126.837317,41.137287 C129.945223,41.137287 132.464679,43.6567425 132.464679,46.7646482 C132.464679,49.872554 129.945223,52.3920094 126.837317,52.3920094 L90.243781,52.3920094 C87.1358753,52.3920094 84.6164199,49.872554 84.6164199,46.7646482 C84.6164199,43.6567425 87.1358753,41.137287 90.243781,41.137287 Z"
                    fill="#FAFAFA" id="Rectangle"
                    transform="translate(108.540549, 46.764648) rotate(26.677200) translate(-108.540549, -46.764648) "></path>
                <path
                    d="M0.266464704,118.343543 L100.927293,43.7199301 L103.215036,45.3196181 L0.299904,128.205961 C0.288757568,124.918513 0.277611136,121.631041 0.266464704,118.343543 Z"
                    fill="#2A223C" id="Path"></path>
                <path
                    d="M88.0011728,40.407006 L126.387085,40.407006 C129.245507,40.407006 131.562716,42.7242149 131.562716,45.5826368 C131.562716,48.4410588 129.245507,50.7582676 126.387085,50.7582676 L88.0011728,50.7582676 C85.1427508,50.7582676 82.825542,48.4410588 82.825542,45.5826368 C82.825542,42.7242149 85.1427508,40.407006 88.0011728,40.407006 Z"
                    fill="#BED8F0" id="Rectangle"
                    transform="translate(107.194129, 45.582637) rotate(26.677200) translate(-107.194129, -45.582637) "></path>
                <path
                    d="M101.844849,43.7207549 C99.0411217,42.0999237 86.5112076,35.6592604 85.1755851,35.2898536 C84.2916096,37.7513564 85.3838307,40.4854325 87.7204955,41.6603394 L122.020216,58.8942478 C123.889018,59.8330413 126.139153,59.5549693 127.72319,58.1894734 C124.597966,56.5281552 107.336691,46.8955386 101.844849,43.7207549 Z"
                    fill="#A3CBF0" id="Path"></path>
                <path
                    d="M94.5701529,45.0320101 C93.8736406,43.2099719 93.9437224,41.1836774 94.7644542,39.4141147 C95.585186,37.6445521 97.086776,36.2821981 98.927608,35.6369925 L106.971333,39.6785738 C104.874264,39.9555728 103.053388,41.2599768 102.116434,43.1564321 C101.179479,45.0528873 101.249829,47.2916621 102.304002,49.1255498 L94.5701529,45.0320101 Z"
                    fill="#2A223C" id="Path"></path>
                <rect fill="#BFA0FE" height="7.75491763" id="Rectangle" rx="3.130083"
                    width="13.3872647" x="158.089295" y="75.2909742"></rect>
                <rect fill="#BFA0FE" height="7.75491763" id="Rectangle" rx="3.130083"
                    width="13.3872647" x="151.001589" y="66.5025124"></rect>
                <path
                    d="M0.30252816,121.834575 C65.3724991,71.967638 97.7644054,46.8481788 97.478247,46.4761979 C97.1972369,46.1051666 64.7933095,70.0610233 0.266464704,118.343768 C0.278460864,119.507295 0.290482016,120.670898 0.30252816,121.834575 Z"
                    fill="#473A66" id="Path"></path>
                <rect fill="#D1BBFF" height="7.24852973" id="Rectangle" rx="2.935647"
                    width="12.599192" x="151.789737" y="66.5025124"></rect>
                <rect fill="#D1BBFF" height="7.24852973" id="Rectangle" rx="2.935647"
                    width="12.599192" x="158.877443" y="75.2909742"></rect>
                <rect fill="#D1BBFF" height="7.24852973" id="Rectangle" rx="2.935647"
                    width="12.599192" x="167.112132" y="62.8782475"></rect>
                <polygon fill="#FAFAFA" id="Path"
                    points="0.2661648 131.856542 100.539067 48.1008528 99.8013034 47.8729258 0.299904 128.205961"></polygon>
                <circle cx="118.141183" cy="49.1607885" fill="#89BEF0" id="Oval" r="1"></circle>
                <circle cx="120.671248" cy="53.2943653" fill="#89BEF0" id="Oval" r="1"></circle>
                <circle cx="115.716534" cy="53.6469775" fill="#89BEF0" id="Oval" r="1"></circle>
                <circle cx="124.936183" cy="53.0208529" fill="#89BEF0" id="Oval" r="1"></circle>
                <circle cx="123.138033" cy="49.5128758" fill="#89BEF0" id="Oval" r="1"></circle>
                <circle cx="123.138033" cy="57.4455615" fill="#89BEF0" id="Oval" r="1"></circle>
                <rect fill="#2F3B52" height="22.0630376" id="Rectangle" width="34.7529505"
                    x="97.0307902" y="193.213077"></rect>
                <path
                    d="M99.8566991,186.930969 L131.513366,186.930969 L131.513366,190.537315 L96.7604153,190.537315 L96.7604153,190.027478 C96.7604153,188.317411 98.1466324,186.931093 99.8566991,186.930969 Z"
                    fill="#1C2330" id="Path"
                    transform="translate(114.136891, 188.734142) rotate(-8.764600) translate(-114.136891, -188.734142) "></path>
                <rect fill="#1C2330" height="3.60642058" id="Rectangle" width="34.7529505"
                    x="97.0307902" y="193.213077"></rect>
                <polygon fill="#FFFFFF" id="Path"
                    points="102.044585 188.781321 98.8581053 192.922245 103.022272 192.280451 106.222248 188.122282"></polygon>
                <polygon fill="#FFFFFF" id="Path"
                    points="113.726596 186.980397 110.540116 191.121322 114.704283 190.479527 117.904259 186.320608"></polygon>
                <polygon fill="#FFFFFF" id="Path"
                    points="126.856393 184.956045 123.669913 189.09697 127.83408 188.455175 131.034056 184.296256"></polygon>
                <polygon fill="#FFFFFF" id="Path"
                    points="102.345989 196.835992 98.5656989 193.228897 102.77935 193.228897 106.575385 196.850988"></polygon>
                <polygon fill="#FFFFFF" id="Path"
                    points="114.68254 196.744522 110.90225 193.137426 115.115901 193.137426 118.911936 196.759517"></polygon>
                <polygon fill="#FFFFFF" id="Path"
                    points="127.467447 196.827745 123.687157 193.22065 127.900809 193.22065 131.696844 196.84274"></polygon>
                <polygon fill="#4F638A" id="Rectangle"
                    points="94.869757 205.832962 113.294959 205.832962 113.294959 206.294215 94.869757 206.294215"
                    transform="translate(104.082358, 206.063589) rotate(-90.000000) translate(-104.082358, -206.063589) "></polygon>
                <rect fill="#4F638A" height="1" id="Rectangle"
                    transform="translate(114.348972, 202.813229) rotate(180.000000) translate(-114.348972, -202.813229) "
                    width="34.8693882" x="96.9142775" y="202.582603"></rect>
                <rect fill="#4F638A" height="1" id="Rectangle"
                    transform="translate(107.708347, 207.676097) rotate(180.000000) translate(-107.708347, -207.676097) "
                    width="21.4714769" x="96.9726088" y="207.445471"></rect>
                <polygon fill="#4F638A" id="Rectangle"
                    points="109.231485 205.832962 127.656687 205.832962 127.656687 206.294215 109.231485 206.294215"
                    transform="translate(118.444086, 206.063589) rotate(-90.000000) translate(-118.444086, -206.063589) "></polygon>
                <path
                    d="M131.783741,215.161551 L97.0307902,215.161551 C99.1334172,208.719089 102.330619,201.889225 106.931371,201.453164 C109.763215,201.18475 111.186034,203.522502 114.407228,204.129808 C118.144707,204.834582 123.673212,203.09094 131.783741,193.098214 L131.783741,215.161551 Z"
                    fill="#1A2438" id="Path" opacity="0.53"></path>
                <rect fill="#7687AB" height="3.71978429" id="Rectangle" rx="1.77648134"
                    width="3.55296269" x="97.8862664" y="191.121247"></rect>
            </g>
        </g>
    </g>
</svg>