<?xml version="1.0" encoding="UTF-8"?>
<svg width="188px" height="156px" viewBox="0 0 188 156" version="1.1" xmlns="http://www.w3.org/2000/svg" xmlns:xlink="http://www.w3.org/1999/xlink">
    <title>Icons V2</title>
    <g id="Experimentation" stroke="none" stroke-width="1" fill="none" fill-rule="evenodd">
        <g id="My-User-Profile-with-upgrade-panel-V5" transform="translate(-86.000000, -152.000000)" fill-rule="nonzero">
            <g id="Filmshape-pro-V3" transform="translate(-10.500000, 0.000000)">
                <g id="confetti-svgrepo-com" transform="translate(0.500000, 0.657317)">
                    <g id="Icons-V2" transform="translate(97.500000, 152.342683)">
                        <path d="M148.860416,76.1974079 L148.860416,72.8290079 L152.228816,72.8290079 L152.228816,76.1974079 L165.542016,76.1974079 L165.542016,72.8290079 L168.910416,72.8290079 L168.910416,76.1974079 L172.278816,76.1974079 L172.278816,46.1224079 L168.910416,46.1224079 L168.910416,49.4908079 L165.542016,49.4908079 L165.542016,46.1224079 L152.228816,46.1224079 L152.228816,49.4908079 L148.860416,49.4908079 L148.860416,46.1224079 L145.492016,46.1224079 L145.492016,76.1974079 L148.860416,76.1974079 Z M168.910416,56.1474079 L165.542016,56.1474079 L165.542016,52.7790079 L168.910416,52.7790079 L168.910416,56.1474079 Z M152.228816,56.1474079 L148.860416,56.1474079 L148.860416,52.7790079 L152.228816,52.7790079 L152.228816,56.1474079 Z M168.910416,62.8040079 L165.542016,62.8040079 L165.542016,59.5158079 L168.910416,59.5158079 L168.910416,62.8040079 Z M152.228816,62.8040079 L148.860416,62.8040079 L148.860416,59.5158079 L152.228816,59.5158079 L152.228816,62.8040079 Z M168.910416,69.5408079 L165.542016,69.5408079 L165.542016,66.1724079 L168.910416,66.1724079 L168.910416,69.5408079 Z M152.228816,69.5408079 L148.860416,69.5408079 L148.860416,66.1724079 L152.228816,66.1724079 L152.228816,69.5408079 Z" id="" fill="#9D87FB" transform="translate(158.885416, 61.159908) rotate(-345.000000) translate(-158.885416, -61.159908) "></path>
                        <path d="M25.1980089,57.1387307 C26.1220089,57.1387307 26.9900089,56.9007307 27.8020089,56.4247307 C28.6140089,55.9487307 29.2580089,55.3047307 29.7340089,54.4927307 C30.2100089,53.6807307 30.4480089,52.8127307 30.4480089,51.8887307 C30.4480089,50.9647307 30.2100089,50.0967307 29.7340089,49.2847307 C29.2580089,48.4727307 28.6140089,47.8287307 27.8020089,47.3527307 C26.9900089,46.8767307 26.1220089,46.6387307 25.1980089,46.6387307 C24.2740089,46.6387307 23.4060089,46.8767307 22.5940089,47.3527307 C21.7820089,47.8287307 21.1380089,48.4727307 20.6620089,49.2847307 C20.1860089,50.0967307 19.9480089,50.9647307 19.9480089,51.8887307 C19.9480089,52.8127307 20.1860089,53.6807307 20.6620089,54.4927307 C21.1380089,55.3047307 21.7820089,55.9487307 22.5940089,56.4247307 C23.4060089,56.9007307 24.2740089,57.1387307 25.1980089,57.1387307 Z M33.9760089,57.1387307 C34.9000089,57.1387307 35.7680089,56.9007307 36.5800089,56.4247307 C37.3920089,55.9487307 38.0360089,55.3047307 38.5120089,54.4927307 C38.9880089,53.6807307 39.2260089,52.8127307 39.2260089,51.8887307 C39.2260089,50.9647307 38.9880089,50.0967307 38.5120089,49.2847307 C38.0360089,48.4727307 37.3920089,47.8287307 36.5800089,47.3527307 C35.7680089,46.8767307 34.9000089,46.6387307 33.9760089,46.6387307 C33.4440089,46.6387307 32.9260089,46.7227307 32.4220089,46.8907307 C33.4580089,48.3747307 33.9760089,50.0407307 33.9760089,51.8887307 C33.9760089,53.7367307 33.4580089,55.4027307 32.4220089,56.8867307 C32.9260089,57.0547307 33.4440089,57.1387307 33.9760089,57.1387307 Z M11.2540089,64.1107307 L11.2540089,58.8607307 L16.5040089,58.8607307 L16.5040089,55.3327307 L11.2540089,55.3327307 L11.2540089,50.0827307 L7.72600893,50.0827307 L7.72600893,55.3327307 L2.47600893,55.3327307 L2.47600893,58.8607307 L7.72600893,58.8607307 L7.72600893,64.1107307 L11.2540089,64.1107307 Z M35.6980089,69.3607307 L35.6980089,65.8327307 C35.6980089,64.7407307 35.0540089,63.7607307 33.7660089,62.8927307 C32.6740089,62.1647307 31.2460089,61.5907307 29.4820089,61.1707307 C27.9420089,60.7787307 26.5140089,60.5827307 25.1980089,60.5827307 C23.8820089,60.5827307 22.4540089,60.7787307 20.9140089,61.1707307 C19.1500089,61.5907307 17.7220089,62.1647307 16.6300089,62.8927307 C15.3420089,63.7607307 14.6980089,64.7407307 14.6980089,65.8327307 L14.6980089,65.8327307 L14.6980089,69.3607307 L35.6980089,69.3607307 Z M44.4760089,69.3607307 L44.4760089,65.8327307 C44.4760089,64.6007307 43.6500089,63.5087307 41.9980089,62.5567307 C40.5700089,61.7727307 38.8480089,61.2267307 36.8320089,60.9187307 C38.4280089,62.2907307 39.2260089,63.9287307 39.2260089,65.8327307 L39.2260089,65.8327307 L39.2260089,69.3607307 L44.4760089,69.3607307 Z" id="" fill="#9D87FB" transform="translate(23.476009, 57.999731) rotate(-15.000000) translate(-23.476009, -57.999731) "></path>
                        <path d="M74.7845751,67.9302637 C76.2828418,67.9302637 77.5607751,67.3794304 78.6183751,66.2777637 C79.6759751,65.1760971 80.2047751,63.8761304 80.2047751,62.3778637 L80.2047751,62.3778637 L80.2047751,34.8802637 C80.2047751,33.3819971 79.6759751,32.0820304 78.6183751,30.9803637 C77.5607751,29.8786971 76.2828418,29.3278637 74.7845751,29.3278637 L74.7845751,29.3278637 L52.7071751,29.3278637 L47.1547751,23.7754637 L30.6297751,23.7754637 C29.1315084,23.7754637 27.8535751,24.3262971 26.7959751,25.4279637 C25.7383751,26.5296304 25.2095751,27.8295971 25.2095751,29.3278637 L25.2095751,29.3278637 L25.2095751,62.3778637 C25.2095751,63.8761304 25.7383751,65.1760971 26.7959751,66.2777637 C27.8535751,67.3794304 29.1315084,67.9302637 30.6297751,67.9302637 L30.6297751,67.9302637 L74.7845751,67.9302637 Z" id="" fill="#3D00A3" transform="translate(52.707175, 45.852864) rotate(-15.000000) translate(-52.707175, -45.852864) "></path>
                        <path d="M152.261301,73.4907255 C153.510234,73.4907255 154.593868,73.0499255 155.512201,72.1683255 C156.430534,71.2867255 156.889701,70.2214588 156.889701,68.9725255 L156.889701,68.9725255 L156.889701,41.4225255 L143.114701,27.6475255 L124.711301,27.6475255 C123.462368,27.6475255 122.397101,28.0883255 121.515501,28.9699255 C120.633901,29.8515255 120.193101,30.9167921 120.193101,32.1657255 L120.193101,32.1657255 L120.082901,68.9725255 C120.082901,70.2214588 120.542068,71.2867255 121.460401,72.1683255 C122.378734,73.0499255 123.462368,73.4907255 124.711301,73.4907255 L124.711301,73.4907255 L152.261301,73.4907255 Z M153.473501,43.6816255 L140.745401,43.6816255 L140.745401,31.0637255 L153.473501,43.6816255 Z M147.632901,55.1975255 L129.339701,55.1975255 L129.339701,50.5691255 L147.632901,50.5691255 L147.632901,55.1975255 Z M147.632901,64.3441255 L129.339701,64.3441255 L129.339701,59.7157255 L147.632901,59.7157255 L147.632901,64.3441255 Z" id="" fill="#3D00A3" transform="translate(138.486301, 50.569125) rotate(-345.000000) translate(-138.486301, -50.569125) "></path>
                        <g id="undraw_social_sharing_ibwq" transform="translate(55.018153, 0.000000)">
                            <path d="M67.2999881,153.648049 L6.99506478,153.648049 C5.63703751,153.652146 4.30599826,153.268868 3.1581396,152.543144 C1.28782922,151.378243 0.142460883,149.338395 0.12152646,147.135075 L0.12152646,6.51736998 C0.12152646,2.92368978 3.20502798,0 6.99506478,0 L21.1676236,0 L21.1676236,1.29347856 C21.1676236,4.05397278 23.5440097,6.29984322 26.4649928,6.29984322 L46.4445353,6.29984322 C47.5688633,6.30608083 48.6675292,5.96395106 49.5895336,5.32047582 C50.9156862,4.40491658 51.7174841,2.90479051 51.7419124,1.29347658 L51.7419124,0 L67.2999961,0 C71.0900329,0 74.1735344,2.92368978 74.1735344,6.517368 L74.1735344,147.135075 C74.1623248,149.070017 73.2717231,150.894841 71.7532576,152.094169 C70.4899235,153.105628 68.9183287,153.653988 67.2999881,153.648049 L67.2999881,153.648049 Z M6.99506478,0.396 C3.4233309,0.396 0.51752646,3.14208972 0.51752646,6.517368 L0.51752646,147.135075 C0.538695172,149.203155 1.61503581,151.117062 3.37122126,152.209405 C4.4554209,152.89453 5.71254105,153.256209 6.99506478,153.252054 L67.2999881,153.252054 C68.8276841,153.258115 70.3114013,152.740863 71.5041994,151.786335 C72.929464,150.661969 73.7659964,148.950411 73.7775265,147.135075 L73.7775265,6.51736998 C73.7775265,3.14208972 70.871722,0.396 67.2999881,0.396 L52.1379045,0.396 L52.1379045,1.29347856 C52.1134532,3.0346603 51.2479647,4.65637998 49.8150794,5.6459007 C48.8269525,6.3355611 47.6495182,6.7023368 46.4445353,6.69583926 L26.4650008,6.69583926 C23.3256177,6.69583926 20.7716315,4.27236876 20.7716315,1.2934746 L20.7716315,0.396 L6.99506478,0.396 Z" id="Shape" fill="#F1EEFF"></path>
                            <path d="M69.2796102,11.9533333 L69.2796102,140.296933 C69.2764375,143.480414 66.6953519,146.060732 63.51187,146.060732 L11.40817,146.060732 C9.87833631,146.063404 8.41033164,145.457138 7.32820281,144.375752 C6.24607399,143.294366 5.63879987,141.826778 5.64042669,140.296943 L5.64042669,11.9533333 C5.64042669,10.4235929 6.24792597,8.95646879 7.32961573,7.87477903 C8.41130549,6.79308927 9.87842963,6.18559299 11.40817,6.18559299 L19.20541,6.18559299 L19.20541,7.18549326 C19.2050818,9.80821959 21.3307237,11.9347479 23.95345,11.9355133 L50.45377,11.9355133 C51.467555,11.9376777 52.4549853,11.6127007 53.26933,11.0088733 C53.4339469,10.8891288 53.5900799,10.7581359 53.73661,10.6168333 C54.673999,9.72175555 55.2035574,8.48158712 55.20181,7.18549326 L55.20181,6.18559299 L63.51187,6.18559299 C65.0417133,6.18559299 66.5090329,6.79264494 67.5907956,7.87440763 C68.6725583,8.95617031 69.2796102,10.4234899 69.2796102,11.9533333 Z" id="Path" fill="#F1EEFF"></path>
                            <rect id="Rectangle" fill="#250063" x="24.7052579" y="30.042899" width="22.8624343" height="1"></rect>
                            <rect id="Rectangle" fill="#250063" x="24.7052579" y="36.1201744" width="22.8624343" height="1"></rect>
                            <rect id="Rectangle" fill="#250063" x="24.7052579" y="42.1974518" width="22.8624343" height="1"></rect>
                        </g>
                    </g>
                </g>
            </g>
        </g>
    </g>
</svg>