<?xml version="1.0" encoding="UTF-8"?>
<svg height="134px" version="1.1" viewBox="0 0 134 134" width="134px"
    xmlns="http://www.w3.org/2000/svg">
    <title>confetti-svgrepo-com</title>
    <g fill="none" fill-rule="evenodd" id="Experimentation" stroke="none" stroke-width="1">
        <g fill-rule="nonzero" id="My-User-Profile-with-upgrade-panel-V5"
            transform="translate(-284.000000, 66.000000)">
            <g id="Filmshape-pro-V3" transform="translate(-10.500000, 0.000000)">
                <g id="confetti-svgrepo-com" transform="translate(0.500000, 0.657317)">
                    <g transform="translate(361.000000, 0.500000) rotate(-315.000000) translate(-361.000000, -0.500000) translate(314.500000, -46.000000)">
                        <path
                            d="M48.8091973,0 L46.4994551,1.82766797 L48.8095605,0 C50.4052734,2.01675586 52.3909688,4.52630273 52.3909688,9.27329883 C52.3909688,14.0202949 50.4054551,16.5300234 48.8099238,18.5465977 C47.4688711,20.2414863 46.5,21.4659258 46.5,24.1641973 C46.5,26.8622871 47.4688711,28.0865449 48.8097422,29.7814336 C50.4052734,31.7978262 52.3909688,34.307373 52.3909688,39.0541875 C52.3909688,43.8013652 50.4054551,46.3105488 48.8099238,48.327123 C47.4688711,50.0220117 46.5,51.2464512 46.5,53.9447227 C46.5,56.6429941 47.4688711,57.867252 48.8099238,59.5621406 C50.4054551,61.5785332 52.3909688,64.0880801 52.3909688,68.8350762 C52.3909688,73.5824355 50.4054551,76.0921641 48.8099238,78.1085566 C47.4688711,79.8038086 46.5,81.0284297 46.5,83.7272461 C46.5,86.4262441 47.4686895,87.6506836 48.8093789,89.345209 L44.1895312,93 C42.5943633,90.9837891 40.6092129,88.4746055 40.6092129,83.7270645 C40.6092129,78.9797051 42.5947266,76.4699766 44.1902578,74.453584 C45.5311289,72.758332 46.5,71.5337109 46.5,68.8348945 C46.5,66.136623 45.5311289,64.9121836 44.1900762,63.2172949 C42.5945449,61.2009023 40.6090312,58.6913555 40.6090312,53.944541 C40.6090312,49.1973633 42.5945449,46.687998 44.1900762,44.6716055 C45.5311289,42.9767168 46.5,41.7522773 46.5,39.0540059 C46.5,36.3557344 45.5311289,35.1314766 44.1900762,33.4365879 C42.5945449,31.4201953 40.6090312,28.9108301 40.6090312,24.1640156 C40.6090312,19.4168379 42.5945449,16.9074727 44.1900762,14.8910801 C45.5311289,13.196373 46.5,11.9719336 46.5,9.27348047 C46.5,6.57520898 45.5309473,5.35076953 44.1898945,3.65588086 L48.8091973,0 Z"
                            fill="#A570FF" id="Path"></path>
                        <g id="Group" transform="translate(11.625000, 0.000000)">
                            <path
                                d="M8.22813867,0 L5.91839648,1.82766797 L8.22850195,0 C9.82421484,2.01675586 11.8097285,4.52630273 11.8097285,9.27329883 C11.8097285,14.0202949 9.8240332,16.5300234 8.22850195,18.5465977 C6.88763086,20.2414863 5.91875977,21.4659258 5.91875977,24.1641973 C5.91875977,26.8622871 6.88763086,28.0865449 8.22850195,29.7814336 C9.8240332,31.7978262 11.8097285,34.307373 11.8097285,39.0541875 C11.8097285,43.8013652 9.82421484,46.3105488 8.22868359,48.327123 C6.88763086,50.0220117 5.91875977,51.2464512 5.91875977,53.9447227 C5.91875977,56.6429941 6.88726758,57.8668887 8.22759375,59.5608691 L3.60756445,63.2162051 C2.01257812,61.2005391 0.0277910156,58.6917187 0.0277910156,53.9449043 C0.0277910156,49.1977266 2.01330469,46.688543 3.60883594,44.6719687 C4.94988867,42.9770801 5.91875977,41.7526406 5.91875977,39.0543691 C5.91875977,36.3560977 4.94970703,35.1318398 3.60883594,33.4369512 C2.01330469,31.4205586 0.0277910156,28.9111934 0.0277910156,24.1643789 C0.0277910156,19.4175645 2.01330469,16.9078359 3.60883594,14.8914434 C4.94988867,13.1965547 5.91875977,11.9721152 5.91875977,9.27366211 C5.91875977,6.57539062 4.94970703,5.35095117 3.6086543,3.6560625 L8.22813867,0 Z"
                                fill="#F63E31" id="Path"></path>
                            <path
                                d="M66.1402559,0 L63.8305137,1.82766797 L66.1406191,0 C67.736332,2.01675586 69.7218457,4.52630273 69.7218457,9.27329883 C69.7218457,14.0202949 67.7361504,16.5300234 66.1406191,18.5465977 C64.799748,20.2414863 63.830877,21.4659258 63.830877,24.1641973 C63.830877,26.8622871 64.799748,28.0865449 66.1406191,29.7814336 C67.7361504,31.7978262 69.7218457,34.307373 69.7218457,39.0541875 C69.7218457,43.8013652 67.736332,46.3105488 66.1408008,48.327123 C64.799748,50.0220117 63.830877,51.2464512 63.830877,53.9447227 C63.830877,56.6429941 64.7993848,57.8668887 66.1397109,59.5608691 L61.5196816,63.2162051 C59.9246953,61.2005391 57.9399082,58.6917187 57.9399082,53.9449043 C57.9399082,49.1977266 59.9254219,46.688543 61.5209531,44.6719687 C62.8620059,42.9770801 63.830877,41.7526406 63.830877,39.0543691 C63.830877,36.3560977 62.8618242,35.1318398 61.5209531,33.4369512 C59.9254219,31.4205586 57.9399082,28.9111934 57.9399082,24.1643789 C57.9399082,19.4175645 59.9254219,16.9078359 61.5209531,14.8914434 C62.8620059,13.1965547 63.830877,11.9721152 63.830877,9.27366211 C63.830877,6.57539062 62.8618242,5.35095117 61.5207715,3.6560625 L66.1402559,0 Z"
                                fill="#FFBB47" id="Path"></path>
                        </g>
                        <circle cx="6.01121484" cy="39.0538242" fill="#FFD102" id="Oval"
                            r="3.06591211"></circle>
                        <circle cx="3.06591211" cy="83.7265195" fill="#B386FF" id="Oval"
                            r="3.06591211"></circle>
                        <circle cx="32.0226973" cy="68.8363477" fill="#FFBB47" id="Oval"
                            r="3.06591211"></circle>
                        <circle cx="29.0773945" cy="24.1636523" fill="#57BAB7" id="Oval"
                            r="3.06591211"></circle>
                        <circle cx="34.968" cy="9.27348047" fill="#FFD102" id="Oval"
                            r="3.06591211"></circle>
                        <circle cx="58.032" cy="53.991041" fill="#B386FF" id="Oval"
                            r="3.06591211"></circle>
                        <g id="Group" transform="translate(54.855469, 35.964844)">
                            <circle cx="3.17653125" cy="47.7616758" fill="#24FFCF" id="Oval"
                                r="3.06591211"></circle>
                            <circle cx="9.06713672" cy="3.08898047" fill="#FFD102" id="Oval"
                                r="3.06591211"></circle>
                        </g>
                        <circle cx="84.0433008" cy="83.7265195" fill="#B386FF" id="Oval"
                            r="3.06591211"></circle>
                        <circle cx="89.9340879" cy="68.8363477" fill="#FFB700" id="Oval"
                            r="3.06591211"></circle>
                        <circle cx="86.9887852" cy="24.1636523" fill="#57BAB7" id="Oval"
                            r="3.06591211"></circle>
                    </g>
                </g>
            </g>
        </g>
    </g>
</svg>