<?xml version="1.0" encoding="UTF-8"?>
<svg height="30px" version="1.1" viewBox="0 0 30 30" width="30px"
    xmlns="http://www.w3.org/2000/svg">
    <!-- Generator: Sketch 51.3 (57544) - http://www.bohemiancoding.com/sketch -->
    <title>Editing</title>
    <desc>Created with Sketch.</desc>
    <defs></defs>
    <g fill="none" fill-rule="evenodd" id="Editing" stroke="none" stroke-width="1">
        <circle cx="15" cy="15" fill="#8542F8" id="Oval" r="15"></circle>
        <g id="Edit-Icon" transform="translate(7.000000, 6.922292)">
            <path
                d="M9.58008902,9.63668346 L9.58008902,10.0501851 L10.5851075,10.0501851 L10.5851075,9.04516655 L10.4297418,9.04516655 L11.6006588,8.2299898 L11.6006588,15.0752776 L0,15.0752776 L0,3.75767188 L6.03011103,3.75767188 L7.33322299,4.64727338 L2.92209173,4.64727338 L2.92209173,8.53421329 L5.77390607,8.53421329 L4.38997992,10.0839302 L2.92209173,10.0839302 L2.92209173,14.0217654 L8.51829166,14.0217654 L8.51829166,10.3758926 L9.58008902,9.63668346 Z M1.00501851,5.02509253 L1.00501851,6.03011103 L2.01003701,6.03011103 L2.01003701,5.02509253 L1.00501851,5.02509253 Z M1.00501851,7.03512954 L1.00501851,8.04014804 L2.01003701,8.04014804 L2.01003701,7.03512954 L1.00501851,7.03512954 Z M1.00501851,11.0552036 L1.00501851,12.0602221 L2.01003701,12.0602221 L2.01003701,11.0552036 L1.00501851,11.0552036 Z M1.00501851,9.04516655 L1.00501851,10.0501851 L2.01003701,10.0501851 L2.01003701,9.04516655 L1.00501851,9.04516655 Z M1.00501851,13.0652406 L1.00501851,14.0702591 L2.01003701,14.0702591 L2.01003701,13.0652406 L1.00501851,13.0652406 Z M9.58008902,13.0652406 L9.58008902,14.0702591 L10.5851075,14.0702591 L10.5851075,13.0652406 L9.58008902,13.0652406 Z M9.58008902,11.0552036 L9.58008902,12.0602221 L10.5851075,12.0602221 L10.5851075,11.0552036 L9.58008902,11.0552036 Z"
                fill="#FFFFFF" id="Film-Frame"></path>
            <g id="Scissors" transform="translate(5.306700, 0.000000)">
                <path
                    d="M8.72703473,5.57482086 C8.9980136,5.40623708 9.31789896,5.30886336 9.66052717,5.30886336 C10.6378619,5.30886336 11.4301483,6.10114972 11.4301483,7.07848448 C11.4301483,8.05581924 10.6378619,8.8481056 9.66052717,8.8481056 C8.68319241,8.8481056 7.89090605,8.05581924 7.89090605,7.07848448 C7.89090605,6.88772143 7.92109055,6.70400835 7.976944,6.53186079 L0.900463529,1.12928407 C2.08532567,1.25215138 2.9664452,1.47337807 3.5438221,1.79296416 C4.10362805,2.10282448 5.8313656,3.36344338 8.72703473,5.57482086 Z M9.66052717,8.34052998 C10.3575357,8.34052998 10.9225727,7.77549296 10.9225727,7.07848448 C10.9225727,6.381476 10.3575357,5.81643899 9.66052717,5.81643899 C8.96351869,5.81643899 8.39848168,6.381476 8.39848168,7.07848448 C8.39848168,7.77549296 8.96351869,8.34052998 9.66052717,8.34052998 Z"
                    fill="#FFFFFF" id="Combined-Shape"></path>
                <path
                    d="M8.72703473,5.57482086 C8.9980136,5.40623708 9.31789896,5.30886336 9.66052717,5.30886336 C10.6378619,5.30886336 11.4301483,6.10114972 11.4301483,7.07848448 C11.4301483,8.05581924 10.6378619,8.8481056 9.66052717,8.8481056 C8.68319241,8.8481056 7.89090605,8.05581924 7.89090605,7.07848448 C7.89090605,6.88772143 7.92109055,6.70400835 7.976944,6.53186079 L0.900463529,1.12928407 C2.08532567,1.25215138 2.9664452,1.47337807 3.5438221,1.79296416 C4.10362805,2.10282448 5.8313656,3.36344338 8.72703473,5.57482086 Z M9.66052717,8.34052998 C10.3575357,8.34052998 10.9225727,7.77549296 10.9225727,7.07848448 C10.9225727,6.381476 10.3575357,5.81643899 9.66052717,5.81643899 C8.96351869,5.81643899 8.39848168,6.381476 8.39848168,7.07848448 C8.39848168,7.77549296 8.96351869,8.34052998 9.66052717,8.34052998 Z"
                    fill="#FFFFFF" id="Combined-Shape"
                    transform="translate(6.165306, 4.988695) scale(1, -1) rotate(5.000000) translate(-6.165306, -4.988695) "></path>
                <circle cx="6.95922686" cy="4.98869484" fill="#8542F8" id="Oval-3" r="1"></circle>
            </g>
        </g>
    </g>
</svg>