<?xml version="1.0" encoding="UTF-8"?>
<svg height="30px" version="1.1" viewBox="0 0 30 30" width="30px"
    xmlns="http://www.w3.org/2000/svg">
    <!-- Generator: Sketch 51.3 (57544) - http://www.bohemiancoding.com/sketch -->
    <title>Acting</title>
    <desc>Created with Sketch.</desc>
    <defs></defs>
    <g fill="none" fill-rule="evenodd" id="Acting" stroke="none" stroke-width="1">
        <circle cx="15" cy="15" fill="#A16FF7" id="Oval" r="15"></circle>
        <g fill="#FFFFFF" id="Hat" transform="translate(5.500000, 9.000000)">
            <path
                d="M3.55524774,2.55449307 C4.45326283,1.47252828 6.28438253,0.213783575 9.66828081,0.213783575 C13.0521791,0.213783575 14.9249782,1.53996904 15.6660725,2.55449307 C16.1601354,3.23084243 16.4095495,5.11007404 16.4143148,8.19218791 C14.1298461,8.57450201 11.8467144,8.76565905 9.56491953,8.76565905 C7.28312469,8.76565905 5.00134177,8.57450201 2.71957077,8.19218791 C2.67801202,5.15503454 2.95657101,3.27580293 3.55524774,2.55449307 Z"
                id="Rectangle"></path>
            <path
                d="M1.05967117,8.80446663 C3.65020251,9.50147353 6.51973905,9.84997699 9.66828081,9.84997699 C12.8168226,9.84997699 15.6863591,9.50147353 18.2768905,8.80446663 L18.2768828,8.80443829 C18.5208323,8.73880137 18.7718017,8.88335228 18.8374386,9.12730176 C18.8478659,9.16605647 18.8531476,9.20601492 18.8531476,9.2461479 L18.853157,9.4728983 C18.853157,9.69747141 18.7034319,9.89449461 18.487063,9.95464108 C15.8418143,10.6899705 12.9022202,11.0576352 9.66828081,11.0576352 C6.43432825,11.0576352 3.49472342,10.6899675 0.849466316,9.9546321 L0.849475477,9.95459915 C0.633125822,9.89445771 0.483414041,9.69745186 0.483414041,9.4728986 L0.483414041,9.2461479 C0.483414041,8.99352258 0.688207331,8.78872929 0.940832656,8.78872929 C0.980965636,8.78872929 1.02092409,8.79401097 1.0596788,8.80443829 Z"
                id="Rectangle-2"></path>
        </g>
    </g>
</svg>