<?xml version="1.0" encoding="UTF-8"?>
<svg height="30px" version="1.1" viewBox="0 0 30 30" width="30px"
    xmlns="http://www.w3.org/2000/svg">
    <!-- Generator: Sketch 51.3 (57544) - http://www.bohemiancoding.com/sketch -->
    <title>Production Design</title>
    <desc>Created with Sketch.</desc>
    <defs></defs>
    <g fill="none" fill-rule="evenodd" id="Production-Design" stroke="none" stroke-width="1">
        <circle cx="15" cy="15" fill="#BD07A1" id="Oval" r="15"></circle>
        <g id="Group" transform="translate(4.000000, 4.000000)">
            <g id="Spanner"
                transform="translate(11.925698, 13.171977) rotate(40.000000) translate(-11.925698, -13.171977) translate(9.160882, 3.495121)">
                <path
                    d="M1.67186126,0.162452926 L1.67186126,2.58348059 L2.70152644,3.59158633 L3.73119163,2.58348059 L3.73119163,0.162452926 C4.9721217,1.33208527 5.53049339,2.26739526 5.40630669,2.96838291 C5.28211998,3.66937055 4.7237483,4.35531406 3.73119163,5.02621344 L3.73119163,17.8886443 C3.3879699,18.2929909 3.04474817,18.4951641 2.70152644,18.4951641 C2.3754658,18.4951641 2.04940516,18.3127028 1.72334453,17.94778 L1.7233269,17.9477958 C1.69018252,17.910701 1.67186126,17.8626985 1.67186126,17.8129534 L1.67186126,5.02621344 C0.607454643,4.07175259 0.0611678831,3.38580908 0.033000977,2.96838291 C-0.0420299706,1.85644391 0.504256789,0.921133913 1.67186126,0.162452926 Z"
                    fill="#FFFFFF" id="Rectangle-2"></path>
                <circle cx="2.72472911" cy="17.1069266" fill="#BD07A1" id="Oval-3" r="1"></circle>
            </g>
            <rect fill="#BD07A1" height="5.59986416" id="Rectangle-3"
                transform="translate(13.148978, 13.277979) rotate(-40.000000) translate(-13.148978, -13.277979) "
                width="1" x="12.5489779" y="10.4780471"></rect>
            <rect fill="#BD07A1" height="5.59986416" id="Rectangle-3"
                transform="translate(11.284457, 14.404362) rotate(-41.000000) translate(-11.284457, -14.404362) "
                width="1" x="10.6844572" y="11.6044297"></rect>
            <g id="Brush"
                transform="translate(11.000000, 11.382618) rotate(-40.000000) translate(-11.000000, -11.382618) translate(6.500000, 0.382618)">
                <path
                    d="M1.44240757,4.79745683 C2.3386868,4.31313342 2.95769694,3.5394682 3.29943801,2.47646118 C5.12516689,3.22547769 6.03803133,4.16467787 6.03803133,5.29406174 C6.03803133,6.37403505 5.77498366,7.2851143 5.24888831,8.0272995 L5.24892854,8.02732801 C5.20192455,8.09363854 5.13395587,8.14218449 5.05598376,8.16513687 C4.73792118,8.25876387 4.41880519,8.3101839 4.09863578,8.31939698 C3.55844086,8.33494144 3.55844086,8.33496836 3.01731011,8.31939698 C2.69790832,8.31020599 2.37746177,8.25916942 2.05597049,8.16628726 L2.05597105,8.16628533 C1.97573533,8.1431044 1.90599575,8.0928676 1.85859445,8.02410539 C0.702885305,6.34758795 0.564156344,5.27203842 1.44240757,4.79745683 Z"
                    fill="#FFFFFF" id="Rectangle-6"></path>
                <path
                    d="M4.46036246,2.80447788 C4.47553739,2.66724313 4.59908985,2.56829411 4.73632459,2.58346905 C4.87355933,2.59864399 4.97250835,2.72219644 4.95733342,2.85943118 L4.67096612,5.44919754 C4.65579118,5.58643228 4.53223873,5.6853813 4.39500399,5.67020637 C4.25776925,5.65503143 4.15882022,5.53147897 4.17399516,5.39424423 L4.46036246,2.80447788 Z"
                    fill="#BD07A1" fill-rule="nonzero" id="Line"></path>
                <path
                    d="M2.23453644,8.85344708 L3.10416767,8.91105721 L3.96929264,8.91105721 L4.82991136,8.85344708 L4.45152691,11.7821149 C4.42822953,11.9624348 4.27467764,12.0974241 4.09285887,12.0974241 L3.00066505,12.0974241 C2.82018706,12.0974241 2.6673347,11.9643648 2.64246569,11.7856084 L2.23453644,8.85344708 Z"
                    fill="#FFFFFF" id="Rectangle-7"></path>
                <path
                    d="M2.65013452,11.5522609 L3.26435151,11.6505685 L3.83933239,11.6505685 L4.41431328,11.5859799 L4.41431328,21.0105855 C4.41431328,21.2103188 4.25239741,21.3722347 4.05266406,21.3722347 L3.05101984,21.3722347 C2.85128649,21.3722347 2.68937062,21.2103188 2.68937062,21.0105855 L2.68937062,11.9753377 L2.65013452,11.5522609 Z"
                    fill="#FFFFFF" id="Rectangle-7"></path>
                <circle cx="4.92594623" cy="0.727313478" fill="#FFFFFF" id="Oval-2" r="1"></circle>
                <circle cx="7.80977937" cy="3.47019361" fill="#FFFFFF" id="Oval-2" r="1"></circle>
                <circle cx="1.45288968" cy="2.05615611" fill="#FFFFFF" id="Oval-2" r="1"></circle>
            </g>
        </g>
    </g>
</svg>