<?xml version="1.0" encoding="UTF-8"?>
<svg height="30px" version="1.1" viewBox="0 0 30 30" width="30px"
    xmlns="http://www.w3.org/2000/svg">
    <!-- Generator: Sketch 51.3 (57544) - http://www.bohemiancoding.com/sketch -->
    <title>Animation &amp; VFX</title>
    <desc>Created with Sketch.</desc>
    <defs></defs>
    <g fill="none" fill-rule="evenodd" id="Animation-&amp;-VFX" stroke="none" stroke-width="1">
        <circle cx="15" cy="15" fill="#470CAC" id="Oval" r="15"></circle>
        <g id="Animation-2" transform="translate(5.500000, 11.000000)">
            <path
                d="M5.13947915,8.64056353 C7.60785113,8.64056353 4.24560259,6.79841493 4.24560259,4.52600947 C4.24560259,2.25360401 7.60785113,0.411455406 5.13947915,0.411455406 C2.67110718,0.411455406 0.344669369,2.25360401 0.344669369,4.52600947 C0.344669369,6.79841493 2.67110718,8.64056353 5.13947915,8.64056353 Z"
                fill="#6924DF" id="Oval-2"></path>
            <path
                d="M7.56893847,8.64056353 C10.0373104,8.64056353 6.6750619,6.79841493 6.6750619,4.52600947 C6.6750619,2.25360401 10.0373104,0.411455406 7.56893847,0.411455406 C5.10056649,0.411455406 2.77412868,2.25360401 2.77412868,4.52600947 C2.77412868,6.79841493 5.10056649,8.64056353 7.56893847,8.64056353 Z"
                fill="#9566E6" id="Oval-2"></path>
            <path
                d="M10.0695126,8.64056353 C12.5378846,8.64056353 9.17563603,6.79841493 9.17563603,4.52600947 C9.17563603,2.25360401 12.5378846,0.411455406 10.0695126,0.411455406 C7.60114062,0.411455406 5.27470281,2.25360401 5.27470281,4.52600947 C5.27470281,6.79841493 7.60114062,8.64056353 10.0695126,8.64056353 Z"
                fill="#CDB0FF" id="Oval-2"></path>
            <path
                d="M12.4680573,8.64056353 C14.9364293,8.64056353 11.5741808,6.79841493 11.5741808,4.52600947 C11.5741808,2.25360401 14.9364293,0.411455406 12.4680573,0.411455406 C9.99968537,0.411455406 7.67324756,2.25360401 7.67324756,4.52600947 C7.67324756,6.79841493 9.99968537,8.64056353 12.4680573,8.64056353 Z"
                fill="#E9DCFF" id="Oval-2"></path>
            <circle cx="14.7223176" cy="4.52600947" fill="#FFFFFF" id="Oval-2"
                r="4.11455406"></circle>
        </g>
    </g>
</svg>