<?xml version="1.0" encoding="UTF-8"?>
<svg height="30px" version="1.1" viewBox="0 0 30 30" width="30px"
    xmlns="http://www.w3.org/2000/svg">
    <!-- Generator: Sketch 51.3 (57544) - http://www.bohemiancoding.com/sketch -->
    <title>Camera</title>
    <desc>Created with Sketch.</desc>
    <defs></defs>
    <g fill="none" fill-rule="evenodd" id="Camera" stroke="none" stroke-width="1">
        <circle cx="15" cy="15" fill="#C056F7" id="Oval" r="15"></circle>
        <g fill="#FFFFFF" transform="translate(6.500000, 10.813797)">
            <path
                d="M1.86974707,0.496219259 L12.0243922,0.496219259 C12.5766769,0.496219259 13.0243922,0.94393451 13.0243922,1.49621926 L13.0243922,7.91097358 C13.0243922,8.46325833 12.5766769,8.91097358 12.0243922,8.91097358 L1.86974707,8.91097358 C1.31746232,8.91097358 0.869747066,8.46325833 0.869747066,7.91097358 L0.869747066,1.49621926 C0.869747066,0.94393451 1.31746232,0.496219259 1.86974707,0.496219259 Z M2.47931659,3.01066825 C2.92269507,3.01066825 3.28212435,2.65123897 3.28212435,2.20786049 C3.28212435,1.764482 2.92269507,1.40505273 2.47931659,1.40505273 C2.0359381,1.40505273 1.67650882,1.764482 1.67650882,2.20786049 C1.67650882,2.65123897 2.0359381,3.01066825 2.47931659,3.01066825 Z M2.27220612,7.001315 C2.01402054,7.001315 1.80471977,7.21061577 1.80471977,7.46880135 C1.80471977,7.72698693 2.01402054,7.9362877 2.27220612,7.9362877 L11.6219331,7.9362877 C11.8801187,7.9362877 12.0894195,7.72698693 12.0894195,7.46880135 C12.0894195,7.21061577 11.8801187,7.001315 11.6219331,7.001315 L2.27220612,7.001315 Z"
                id="Combined-Shape"></path>
            <polygon id="Rectangle"
                points="11.9823918 2.81111698 16.9229336 0.669217905 16.9229336 9.03172363 11.9823918 7.11326821 11.9823918 4.96219259"></polygon>
        </g>
    </g>
</svg>