<?xml version="1.0" encoding="UTF-8"?>
<svg height="30px" version="1.1" viewBox="0 0 30 30" width="30px"
    xmlns="http://www.w3.org/2000/svg">
    <!-- Generator: Sketch 51.3 (57544) - http://www.bohemiancoding.com/sketch -->
    <title>Production &amp; Marketing</title>
    <desc>Created with Sketch.</desc>
    <defs></defs>
    <g fill="none" fill-rule="evenodd" id="Production-&amp;-Marketing" stroke="none"
        stroke-width="1">
        <circle cx="15" cy="15" fill="#8B0CAC" id="Oval" r="15"></circle>
        <g id="Clapper" transform="translate(5.604422, 5.043558)">
            <g id="Bottom" transform="translate(1.874357, 8.434605)">
                <path
                    d="M13.3284215,0.235567674 L14.9948534,0.235567674 L14.9948534,2.55221631 L0,2.55221631 L-1.15463195e-13,0.235567674 L4.39044774,0.235567674 L3.68692924,2.54221338 L5.05847088,2.55221631 L5.76921068,0.235567674 L8.17005316,0.235567674 L7.46653466,2.54221338 L8.8380763,2.55221631 L9.5488161,0.235567674 L11.9496586,0.235567674 L11.2461401,2.54221338 L12.6176817,2.55221631 L13.3284215,0.235567674 Z M14.9948534,3.18640195 L14.9948534,8.3717834 C14.9948534,8.92406815 14.5471382,9.3717834 13.9948534,9.3717834 L1,9.3717834 C0.44771525,9.3717834 -1.15395559e-13,8.92406815 -1.15463195e-13,8.3717834 L-1.15463195e-13,3.18640195 L14.9948534,3.18640195 Z M1.74469733,4.6858917 C1.55751156,4.6858917 1.40576751,4.83763575 1.40576751,5.02482152 C1.40576751,5.21200729 1.55751156,5.36375133 1.74469733,5.36375133 L13.2501561,5.36375133 C13.4373419,5.36375133 13.5890859,5.21200729 13.5890859,5.02482152 C13.5890859,4.83763575 13.4373419,4.6858917 13.2501561,4.6858917 L1.74469733,4.6858917 Z M1.74469733,6.56024838 C1.55751156,6.56024838 1.40576751,6.71199243 1.40576751,6.8991782 C1.40576751,7.08636397 1.55751156,7.23810801 1.74469733,7.23810801 L10.4386211,7.23810801 C10.6258069,7.23810801 10.7775509,7.08636397 10.7775509,6.8991782 C10.7775509,6.71199243 10.6258069,6.56024838 10.4386211,6.56024838 L1.74469733,6.56024838 Z"
                    fill="#FFFFFF" id="Combined-Shape"></path>
                <polygon id="Rectangle"
                    points="0 0.0100029331 1.27886546 0 2.06187661 2.55221631 0 2.54038445"
                    transform="translate(1.030938, 1.276108) scale(1, -1) translate(-1.030938, -1.276108) "></polygon>
            </g>
            <g id="Top"
                transform="translate(8.889453, 4.500145) rotate(-15.000000) translate(-8.889453, -4.500145) translate(0.889453, 2.500145)">
                <path
                    d="M11.5965267,0.849947312 L12.3682838,3.38032883 L9.96784413,3.38032883 L9.19153183,0.849947312 L11.5965267,0.849947312 Z M12.9711372,0.849947312 L14.3452401,0.849947312 C14.8975249,0.849947312 15.3452401,1.29766256 15.3452401,1.84994731 L15.3452401,3.38032883 L13.7474496,3.38032883 L12.9711372,0.849947312 Z M7.81692132,0.849947312 L8.58867843,3.38032883 L6.18823871,3.38032883 L5.41192641,0.849947312 L7.81692132,0.849947312 Z M4.03731591,0.849947312 L4.80907301,3.38032883 L0.350386665,3.38032883 L0.350386665,1.84994731 C0.350386665,1.29766256 0.798101915,0.849947312 1.35038666,0.849947312 L4.03731591,0.849947312 Z"
                    fill="#FFFFFF" id="Combined-Shape"></path>
                <polygon id="Rectangle"
                    points="0.330915638 0.922614172 1.6097811 0.912611239 2.39279224 3.46482755 0.330915638 3.45299569"></polygon>
            </g>
        </g>
    </g>
</svg>