<?xml version="1.0" encoding="UTF-8"?>
<svg height="30px" version="1.1" viewBox="0 0 30 30" width="30px"
    xmlns="http://www.w3.org/2000/svg">
    <!-- Generator: Sketch 51.3 (57544) - http://www.bohemiancoding.com/sketch -->
    <title>Directing</title>
    <desc>Created with Sketch.</desc>
    <defs></defs>
    <g fill="none" fill-rule="evenodd" id="Directing" stroke="none" stroke-width="1">
        <circle cx="15" cy="15" fill="#C76CF6" id="Oval" r="15"></circle>
        <g fill="#FFFFFF" id="Chair" transform="translate(6.674806, 6.174597)">
            <polygon fill-rule="nonzero" id="Line"
                points="3.04346996 0.424276693 4.04346996 0.424276693 4.04346996 9.60381202 3.04346996 9.60381202"></polygon>
            <polygon fill-rule="nonzero" id="Line"
                points="12.7483818 0.442926786 13.7483818 0.442926786 13.7483818 9.62246211 12.7483818 9.62246211"></polygon>
            <path
                d="M2.87647951,9.22308827 C4.83653521,9.49162978 6.6345166,9.62590054 8.27042366,9.62590054 C9.90633073,9.62590054 11.814889,9.49162978 13.9960984,9.22308827 L15.6549545,10.5771267 L15.6549545,11.5679153 C12.367841,12.1859067 9.90633073,12.4949024 8.27042366,12.4949024 C6.6345166,12.4949024 4.21994113,12.1859067 1.02669725,11.5679153 L1.02669725,10.5771267 L2.87647951,9.22308827 Z"
                id="Rectangle"></path>
            <g id="Arm-Left" transform="translate(0.652716, 4.907721)">
                <polygon fill-rule="nonzero" id="Line"
                    points="0.538292907 1.52371021 1.53829291 1.52371021 1.53829291 5.76085057 0.538292907 5.76085057"></polygon>
                <polygon id="Rectangle-2"
                    points="0.0983924325 1.2211879 2.41845968 0.482759124 2.41845968 1.3658813 0.0983924325 2.23332205"></polygon>
            </g>
            <g id="Arm-Right"
                transform="translate(14.545621, 7.907721) scale(-1, 1) translate(-14.545621, -7.907721) translate(12.545621, 4.907721)">
                <polygon fill-rule="nonzero" id="Line"
                    points="1.08240521 1.5350574 2.08240521 1.5350574 2.08240521 5.77219776 1.08240521 5.77219776"></polygon>
                <polygon id="Rectangle-2"
                    points="0.642504732 1.23253509 2.82016041 0.494106314 2.82016041 1.37722849 0.642504732 2.24466924"></polygon>
            </g>
            <g fill-rule="nonzero" id="Legs" transform="translate(3.362702, 10.858995)">
                <path
                    d="M0.991907047,1.37992677 C0.773166862,1.21138199 0.732475446,0.897425491 0.901020225,0.678685306 C1.069565,0.459945121 1.3835215,0.419253705 1.60226169,0.587798484 L9.61870971,6.76467204 C9.83744989,6.93321682 9.87814131,7.24717331 9.70959653,7.4659135 C9.54105175,7.68465368 9.22709525,7.7253451 9.00835507,7.55680032 L0.991907047,1.37992677 Z"
                    id="Line-2"></path>
                <path
                    d="M0.653665941,1.37032913 C0.440226383,1.19512021 0.409234329,0.880058367 0.584443251,0.666618809 C0.759652173,0.453179251 1.07471402,0.422187197 1.28815357,0.597396119 L8.81282267,6.77426967 C9.02626223,6.94947859 9.05725428,7.26454044 8.88204536,7.47797999 C8.70683644,7.69141955 8.3917746,7.72241161 8.17833504,7.54720268 L0.653665941,1.37032913 Z"
                    id="Line-2"
                    transform="translate(4.733244, 4.072299) scale(-1, 1) translate(-4.733244, -4.072299) "></path>
            </g>
            <g id="Chair-Back" transform="translate(3.362702, 1.635907)">
                <path
                    d="M0.0859626642,-4.26325641e-14 C1.62345491,0.268541511 3.21015456,0.402812267 4.84606163,0.402812267 C6.48196869,0.402812267 8.23345947,0.268541511 10.100534,-4.26325641e-14 L10.100534,4.31909171 C8.23345947,4.71151137 6.48196869,4.9077212 4.84606163,4.9077212 C3.21015456,4.9077212 1.62345491,4.71151137 0.0859626642,4.31909171 L0.0859626642,-4.26325641e-14 Z"
                    id="Combined-Shape"></path>
            </g>
        </g>
    </g>
</svg>