<?xml version="1.0" encoding="UTF-8"?>
<svg height="30px" version="1.1" viewBox="0 0 30 30" width="30px"
    xmlns="http://www.w3.org/2000/svg">
    <!-- Generator: Sketch 51.3 (57544) - http://www.bohemiancoding.com/sketch -->
    <title>Screenplay &amp; Script</title>
    <desc>Created with Sketch.</desc>
    <defs></defs>
    <g fill="none" fill-rule="evenodd" id="Screenplay-&amp;-Script" stroke="none" stroke-width="1">
        <circle cx="15" cy="15" fill="#D51E54" id="Oval" r="15"></circle>
        <g fill="#FFFFFF" id="Screenplay" transform="translate(7.500000, 6.500000)">
            <path
                d="M1.47172915,0.47172915 L13.6236036,0.47172915 C14.1758884,0.47172915 14.6236036,0.9194444 14.6236036,1.47172915 L14.6236036,15.5105202 C14.6236036,16.062805 14.1758884,16.5105202 13.6236036,16.5105202 L1.47172915,16.5105202 C0.9194444,16.5105202 0.47172915,16.062805 0.47172915,15.5105202 L0.47172915,1.47172915 C0.47172915,0.9194444 0.9194444,0.47172915 1.47172915,0.47172915 Z M2.2661439,3.09955307 C1.96072551,3.09955307 1.71313499,3.34714359 1.71313499,3.65256198 L1.71313499,3.84503877 C1.71313499,4.15045716 1.96072551,4.39804768 2.2661439,4.39804768 L12.8291889,4.39804768 C13.1346073,4.39804768 13.3821978,4.15045716 13.3821978,3.84503877 L13.3821978,3.65256198 C13.3821978,3.34714359 13.1346073,3.09955307 12.8291889,3.09955307 L2.2661439,3.09955307 Z M2.2661439,5.44760676 C1.96072551,5.44760676 1.71313499,5.69519728 1.71313499,6.00061567 L1.71313499,6.19309246 C1.71313499,6.49851085 1.96072551,6.74610137 2.2661439,6.74610137 L9.99881421,6.74610137 C10.3042326,6.74610137 10.5518231,6.49851085 10.5518231,6.19309246 L10.5518231,6.00061567 C10.5518231,5.69519728 10.3042326,5.44760676 9.99881421,5.44760676 L2.2661439,5.44760676 Z M2.2661439,9.18658893 C1.96072551,9.18658893 1.71313499,9.43417945 1.71313499,9.73959784 L1.71313499,9.93207463 C1.71313499,10.237493 1.96072551,10.4850835 2.2661439,10.4850835 L9.99881421,10.4850835 C10.3042326,10.4850835 10.5518231,10.237493 10.5518231,9.93207463 L10.5518231,9.73959784 C10.5518231,9.43417945 10.3042326,9.18658893 9.99881421,9.18658893 L2.2661439,9.18658893 Z M2.2661439,11.5346426 C1.96072551,11.5346426 1.71313499,11.7822331 1.71313499,12.0876515 L1.71313499,12.2801283 C1.71313499,12.5855467 1.96072551,12.8331372 2.2661439,12.8331372 L8.11189761,12.8331372 C8.417316,12.8331372 8.66490652,12.5855467 8.66490652,12.2801283 L8.66490652,12.0876515 C8.66490652,11.7822331 8.417316,11.5346426 8.11189761,11.5346426 L2.2661439,11.5346426 Z"
                id="Combined-Shape"></path>
        </g>
    </g>
</svg>