<?xml version="1.0" encoding="UTF-8"?>
<svg height="30px" version="1.1" viewBox="0 0 30 30" width="30px"
    xmlns="http://www.w3.org/2000/svg">
    <!-- Generator: Sketch 51.3 (57544) - http://www.bohemiancoding.com/sketch -->
    <title>Music &amp; Sound</title>
    <desc>Created with Sketch.</desc>
    <defs>
        <linearGradient id="linearGradient-1" x1="-6.49469784%" x2="32.097315%" y1="63.0561921%"
            y2="79.0719964%">
            <stop offset="0%" stop-color="#FFFFFF" stop-opacity="0"></stop>
            <stop offset="100%" stop-color="#FFFFFF"></stop>
        </linearGradient>
    </defs>
    <g fill="none" fill-rule="evenodd" id="Music-&amp;-Sound" stroke="none" stroke-width="1">
        <circle cx="15" cy="15" fill="#6F0CAC" id="Oval" r="15"></circle>
        <path
            d="M10.6344799,12.981281 C10.6388566,12.9768633 10.6418375,12.9726949 10.643992,12.9690625 C10.6427775,12.9711101 10.6415549,12.9731908 10.6403243,12.9753044 L10.6344799,12.981281 Z M9.79277779,15.5943801 L9.69486073,15.9674467 L6,15.9674467 C5.72385763,15.9674467 5.5,15.743589 5.5,15.4674467 C5.5,15.1913043 5.72385763,14.9674467 6,14.9674467 L8.9242108,14.9674467 C9.51606671,12.7493454 9.81424496,12.0304205 10.4037669,12.0304205 C10.5958022,12.0304205 10.7218437,12.1140395 10.8200739,12.2307389 C10.8608314,12.2791597 10.8929021,12.3308608 10.9233638,12.3905971 C10.9643285,12.4709299 11.0049324,12.5723638 11.0494405,12.7008965 C11.1237405,12.9154635 11.2118255,13.2149684 11.3198844,13.61483 C11.4088786,13.9441444 11.5077292,14.3270011 11.6444027,14.8680321 C11.6656038,14.9519583 11.925274,15.9846825 12.0040451,16.2948794 C12.0716852,16.561243 12.1327607,16.7992755 12.1910952,17.0234286 C12.4064706,17.8510179 12.5853236,18.4914478 12.7411815,18.979943 C12.7754517,18.8026959 12.8112312,18.6050413 12.848518,18.3872788 C13.0085596,17.4526044 13.1672745,16.3512917 13.444509,14.3118562 C13.4656004,14.156643 13.4656004,14.156643 13.4866913,14.0012825 C13.8193609,11.5504687 13.9432225,10.6725359 14.1031913,9.69953068 C14.4456045,7.61681271 14.5165691,7.33160436 15.1014916,7.33160436 C15.8040666,7.33160436 15.82595,7.43960588 16.6701545,12.6480954 C16.6935401,12.7924441 16.6935401,12.7924441 16.7169105,12.9368799 C17.0508224,15.0009013 17.1667073,15.6929899 17.3199273,16.4867372 C17.3677436,16.7344469 17.4125528,16.9521936 17.454402,17.1396604 C17.6117466,16.8192398 17.7959924,16.4039398 18.0222597,15.8664804 C18.0666592,15.761017 18.0925884,15.698959 18.1628295,15.5301349 C18.246007,15.3298743 18.5220664,14.6596688 18.5383392,14.6203049 C18.6818244,14.2732125 18.7848577,14.0283524 18.87727,13.8168098 C18.9909025,13.5566912 19.0825927,13.3610759 19.1596133,13.218047 C19.3588805,12.8480035 19.4391785,12.7419897 19.7636891,12.7419897 C20.091401,12.7419897 20.1842184,12.8671256 20.3514043,13.2056568 C20.4162566,13.3369748 20.4894223,13.5142799 20.5745443,13.7422585 C20.7091068,14.1026515 20.858092,14.5437549 21.0936642,15.2669157 C21.1103621,15.3181906 21.1103621,15.3181906 21.1270444,15.369468 C21.4579087,16.3866735 21.5166661,16.5661053 21.6183617,16.8559391 C21.8549435,16.4788674 22.1683584,15.9350728 22.556896,15.2269337 L22.6992698,14.9674467 L25.0175112,14.9674467 C25.2936535,14.9674467 25.5175112,15.1913043 25.5175112,15.4674467 C25.5175112,15.743589 25.2936535,15.9674467 25.0175112,15.9674467 L23.2909233,15.9674467 C22.2695124,17.8204348 21.9386967,18.3062629 21.4949735,18.3062629 C21.2385095,18.3062629 21.1336712,18.2023817 21.0197287,18.0214808 C20.9836747,17.9642396 20.9494186,17.896295 20.9122802,17.8122658 C20.8534502,17.6791573 20.7841018,17.4972514 20.7002187,17.2593779 C20.5770218,16.9100194 20.5369908,16.7883484 20.1760852,15.6787845 C20.1594618,15.627688 20.1594618,15.627688 20.1428409,15.5766498 C19.9669177,15.0365997 19.8403923,14.6574032 19.7335604,14.3559281 C19.6587488,14.530206 19.5729566,14.7351126 19.4624869,15.0023402 C19.4467141,15.0404947 19.1701918,15.711824 19.0863386,15.9137113 C19.0153249,16.0843928 18.9889777,16.1474513 18.9439143,16.2544917 C18.1157224,18.2217202 17.8665711,18.7018565 17.3109652,18.7018565 C16.7527271,18.7018565 16.6799717,18.4475613 16.3380532,16.6762719 C16.1820735,15.8682276 16.0656529,15.1729401 15.729745,13.0965809 C15.706391,12.9522463 15.706391,12.9522463 15.6830366,12.8080899 C15.4328135,11.2642886 15.2776113,10.3540634 15.1314798,9.61369481 C15.1178671,9.69343867 15.1040227,9.7761289 15.0899444,9.86175969 C14.9321489,10.8215465 14.8087522,11.6961836 14.4776042,14.1357875 C14.4565047,14.2912115 14.4565047,14.2912115 14.4353957,14.4465543 C13.5811971,20.7303421 13.5683339,20.8054657 12.8355173,20.8054657 C12.1905682,20.8054657 11.9772565,20.1722782 11.2233303,17.2752839 C11.164454,17.0490491 11.1029015,16.8091573 11.0348076,16.5410067 C10.9556888,16.2294407 10.6958015,15.1958531 10.67486,15.1129547 C10.539429,14.5768418 10.4417413,14.198489 10.3545139,13.8757126 C10.3439377,13.8365766 10.333574,13.7984904 10.32342,13.761448 C10.1710702,14.2166699 9.99379328,14.8285058 9.79277779,15.5943801 Z M15.4398238,8.19233712 C15.4439057,8.18415888 15.4476927,8.1757677 15.4513303,8.1672059 C15.4497294,8.17097391 15.448098,8.17493109 15.4464369,8.17907547 L15.4398238,8.19233712 Z M14.7802815,8.20406518 C14.7750561,8.19207159 14.7702507,8.18194827 14.7659269,8.17378502 C14.7674243,8.17661204 14.7689592,8.17943293 14.7705364,8.18224472 L14.7802815,8.20406518 Z M20.0889745,13.6071419 C20.0909155,13.6046467 20.0928476,13.6021268 20.0947743,13.5995832 C20.0940675,13.6005163 20.0932842,13.6015931 20.0924272,13.6028106 L20.0889745,13.6071419 Z M19.4753919,13.6916416 C19.4682314,13.6761724 19.46136,13.6617726 19.4547847,13.6484584 C19.4586108,13.656206 19.4621193,13.6633118 19.4654834,13.669829 L19.4753919,13.6916416 Z M13.1043079,19.9045714 C13.1071198,19.9087782 13.1093544,19.9118334 13.1109309,19.9136791 C13.1105238,19.9132025 13.1083162,19.9101666 13.1043079,19.9045714 Z"
            fill="url(#linearGradient-1)" fill-rule="nonzero" id="Line-4"></path>
    </g>
</svg>