<?xml version="1.0" encoding="UTF-8"?>
<svg height="30px" version="1.1" viewBox="0 0 30 30" width="30px"
    xmlns="http://www.w3.org/2000/svg">
    <!-- Generator: Sketch 51.3 (57544) - http://www.bohemiancoding.com/sketch -->
    <title>Make-up &amp; Costume</title>
    <desc>Created with Sketch.</desc>
    <defs></defs>
    <g fill="none" fill-rule="evenodd" id="Make-up-&amp;-Costume" stroke="none" stroke-width="1">
        <circle cx="15" cy="15" fill="#AA07BD" id="Oval" r="15"></circle>
        <g fill="#FFFFFF" id="Lipstick" transform="translate(12.000000, 7.000000)">
            <path
                d="M5.17978558,9.00221373 C4.43764712,9.0496513 3.69550867,9.07337008 2.95337021,9.07337008 C2.35858109,9.07337008 1.76379197,9.05813487 1.16900285,9.02766444 L1.16900285,5.78498914 L5.17978558,5.78498914 L5.17978558,9.00221373 Z M5.17978558,9.52962827 L5.17978558,9.53369126 L5.82083204,9.53369126 C6.02056539,9.53369126 6.18248126,9.69560713 6.18248126,9.89534048 L6.18248126,16.1722686 C6.18248126,16.3720019 6.02056539,16.5339178 5.82083204,16.5339178 L0.527956396,16.5339178 C0.328223046,16.5339178 0.166307174,16.3720019 0.166307174,16.1722686 L0.166307174,9.89534048 C0.166307174,9.69560713 0.328223046,9.53369126 0.527956396,9.53369126 L1.16900285,9.53369126 L1.16900285,9.52962827 L5.17978558,9.52962827 Z M1.52362553,5.23071486 L1.52362381,2.59123076 C1.52362381,2.55267335 1.52978975,2.51436402 1.54188809,2.47775386 C1.7307967,1.90610689 2.01411147,1.49582216 2.39183239,1.24689965 C2.61945254,1.0968953 3.01697639,1.10154307 3.52486476,0.889807166 C3.63766868,0.842779827 3.88270666,0.714657351 4.2599787,0.505439736 L4.26004274,0.505555212 C4.43465156,0.408725239 4.65469618,0.471777456 4.75152616,0.64638628 C4.78127635,0.700033363 4.79688609,0.76036848 4.79688609,0.821712456 L4.79688609,5.23071486 L1.52362553,5.23071486 Z M1.34743354,10.3388719 C1.34743354,10.2271139 1.25683577,10.1365161 1.14507775,10.1365161 L0.995515041,10.1365161 C0.883757026,10.1365161 0.793159255,10.2271139 0.793159255,10.3388719 L0.793159255,15.1602644 C0.793159255,15.2720224 0.883757026,15.3626202 0.995515041,15.3626202 L1.14507775,15.3626202 C1.25683577,15.3626202 1.34743354,15.2720224 1.34743354,15.1602644 L1.34743354,10.3388719 Z"
                id="Combined-Shape"></path>
        </g>
    </g>
</svg>