<svg id="Layer_1" data-name="Layer 1" xmlns="http://www.w3.org/2000/svg" xmlns:xlink="http://www.w3.org/1999/xlink" viewBox="0 0 353.09 339.1"><defs><radialGradient id="radial-gradient" cx="265.62" cy="174.87" r="44.25" gradientUnits="userSpaceOnUse"><stop offset="0.09" stop-color="#97baf6"/><stop offset="0.78" stop-color="#a2c1f7"/></radialGradient></defs><path d="M264.25,338.82l-108.84-1.05c-30.08-.29-70.24-14-102.22-42.91C-9.15,238.61-18.29,121.39,34.27,55.08c3.37-4.26,34.11-41.94,85.13-52C125,1.92,174.24-7.38,186.88,13.41c9.28,15.26-6.59,37.87,3,45.23,7.64,5.89,18.88-6.46,32.76-1.58,15.68,5.52,24.27,29.53,22.47,48.62-3,31.76-34.5,46.78-36.27,47.59l1.61,41.11Q237.34,266.59,264.25,338.82Z" fill="#ebe3ff"/><path d="M19.07,200.51,189.67,30.09c-.29,3.64-.68,6.56-1,8.43-1.2,8.06-2.51,11.16-1.09,15.72.54,1.72.92,3.28,2.22,4.4a8.11,8.11,0,0,0,5.27,1.62,14.11,14.11,0,0,0,5.59-1,67,67,0,0,1,12-3.14s5.24-.77,12.48,2C235,61.88,243,74.58,244.5,90.66l-109,109Z" fill="#e0d3ff"/><rect x="45.96" y="98.56" width="127.78" height="90.6" fill="#7eeaaa"/><path d="M213,208H5.06Q4.47,205.64,4,203c-.3-1.65-.53-3.23-.71-4.73H213Z" fill="#7381a3"/><path d="M213.06,201.28v6.63H5.1c7.64,33.79,23.85,64.94,48.12,86.85,32,28.86,72.14,42.62,102.23,42.91l108.84,1.05Q238.67,270,213.06,201.28Z" fill="#64738e"/><path d="M35.35,239.95H112.5a1.91,1.91,0,0,1,1.91,1.91v0a1.91,1.91,0,0,1-1.91,1.91H35.35a0,0,0,0,1,0,0v-3.82a0,0,0,0,1,0,0Z" transform="translate(298.85 359.92) rotate(135)" fill="#4f6387"/><path d="M43.65,240h77a0,0,0,0,1,0,0v3.82a0,0,0,0,1,0,0h-77a1.91,1.91,0,0,1-1.91-1.91v0A1.91,1.91,0,0,1,43.65,240Z" transform="translate(-32.46 470.43) rotate(-135)" fill="#4f6387"/><polygon points="45.96 189.16 136.9 98.22 173.74 98.22 82.88 189.08 45.96 189.16" fill="#7ef1c0"/><path d="M63.58,239.69h76.5a2.16,2.16,0,0,1,2.16,2.16v0a2.16,2.16,0,0,1-2.16,2.16H63.58a0,0,0,0,1,0,0v-4.31A0,0,0,0,1,63.58,239.69Z" transform="translate(346.68 340.09) rotate(135)" fill="#9fb3db"/><path d="M67.27,238.22h80.25a0,0,0,0,1,0,0v4.31a0,0,0,0,1,0,0H67.27a2.16,2.16,0,0,1-2.16-2.16v0A2.16,2.16,0,0,1,67.27,238.22Z" transform="translate(11.53 485.53) rotate(-135)" fill="#9fb3db"/><path d="M82.88,189.08q45.44-45.26,90.86-90.52v35.58l-55,55Z" fill="#50e7a7"/><path d="M72.33,240.08h76.25a0,0,0,0,1,0,0v3.82a0,0,0,0,1,0,0H72.33A1.91,1.91,0,0,1,70.42,242v0a1.91,1.91,0,0,1,1.91-1.91Z" transform="translate(15.81 490.54) rotate(-135)" fill="#384661"/><path d="M64.78,240.22h76.44a1.91,1.91,0,0,1,1.91,1.91v0a1.91,1.91,0,0,1-1.91,1.91H64.78a0,0,0,0,1,0,0v-3.82a0,0,0,0,1,0,0Z" transform="translate(348.67 339.83) rotate(135)" fill="#384661"/><path d="M134.15,211.26H94.4v3.82h39.75a1.91,1.91,0,1,0,0-3.82Z" fill="#fff"/><rect x="126.18" y="191.65" width="3.94" height="19.61" fill="#fff"/><path d="M98.34,171.32a2,2,0,0,0-3.94,0v19.1h3.94Z" fill="#fff"/><rect x="94.4" y="191.65" width="3.94" height="24.78" fill="#fff"/><path d="M126.18,192.92v-.13h3.94v.13h4.67v0c0-2.06-1.14-3.72-2.54-3.72H98.34v3.74Z" fill="#fff"/><rect x="126.18" y="191.57" width="3.94" height="0.09" fill="#fff"/><rect x="94.4" y="189.18" width="3.94" height="2.47" fill="#fff"/><rect x="48.99" y="170.99" width="47.87" height="17.85" transform="translate(145.86 359.83) rotate(-180)" fill="#fff"/><rect x="48.99" y="172.6" width="47.87" height="17.85" transform="translate(145.86 363.05) rotate(-180)" fill="#53698e"/><rect x="49.65" y="172.61" width="13.56" height="17.82" fill="#435575"/><path d="M96.86,212.44h38.52a0,0,0,0,1,0,0v3.82a0,0,0,0,1,0,0H96.86A1.91,1.91,0,0,1,95,214.35v0A1.91,1.91,0,0,1,96.86,212.44Z" transform="translate(230.34 428.7) rotate(180)" fill="#2f3b52"/><path d="M85.55,211.26H45.79v3.82H85.55a1.91,1.91,0,1,0,0-3.82Z" fill="#fff"/><rect x="77.58" y="191.65" width="3.94" height="19.61" fill="#fff"/><path d="M49.73,171.32a2,2,0,0,0-3.94,0v19.1h3.94Z" fill="#fff"/><rect x="45.79" y="191.65" width="3.94" height="24.78" fill="#fff"/><path d="M77.58,192.92v-.13h3.94v.13h4.66v0c0-2.06-1.13-3.72-2.53-3.72H49.73v3.74Z" fill="#fff"/><rect x="77.58" y="191.57" width="3.94" height="0.09" fill="#fff"/><rect x="45.79" y="189.18" width="3.94" height="2.47" fill="#fff"/><path d="M49,212.61H87.52a0,0,0,0,1,0,0v3.82a0,0,0,0,1,0,0H49a1.91,1.91,0,0,1-1.91-1.91v0A1.91,1.91,0,0,1,49,212.61Z" transform="translate(134.6 429.04) rotate(180)" fill="#2f3b52"/><rect x="69.95" y="200.86" width="19.69" height="3.82" transform="translate(-122.97 282.56) rotate(-90)" fill="#2f3b52"/><path d="M27.45,189.16H68.63a1.91,1.91,0,0,1,1.91,1.91v0A1.91,1.91,0,0,1,68.63,193H27.45a0,0,0,0,1,0,0v-3.82A0,0,0,0,1,27.45,189.16Z" transform="translate(-142.07 240.06) rotate(-90)" fill="#2f3b52"/><path d="M75.41,189.07h41a1.91,1.91,0,0,1,1.91,1.91v0a1.91,1.91,0,0,1-1.91,1.91h-41a0,0,0,0,1,0,0v-3.82A0,0,0,0,1,75.41,189.07Z" transform="translate(-94.12 287.85) rotate(-90)" fill="#2f3b52"/><path d="M95,190.45h39.62a0,0,0,0,1,0,0v2.47a0,0,0,0,1,0,0H97.43A2.47,2.47,0,0,1,95,190.45v0A0,0,0,0,1,95,190.45Z" transform="translate(229.53 383.37) rotate(-180)" fill="#2f3b52"/><path d="M47.09,190.53H86.22a0,0,0,0,1,0,0V193a0,0,0,0,1,0,0H49.56a2.47,2.47,0,0,1-2.47-2.47v0A0,0,0,0,1,47.09,190.53Z" transform="translate(133.31 383.54) rotate(-180)" fill="#2f3b52"/><path d="M86.22,216.41c2.55,0,5.07-.06,7.54-.15h38a69.74,69.74,0,0,1-29.25,4.36,68.52,68.52,0,0,1-16.28-3.14Z" fill="#485a7d"/><rect x="117.9" y="200.77" width="19.52" height="3.82" transform="translate(-75.02 330.34) rotate(-90)" fill="#2f3b52"/><path d="M259.3,339.07c-32.29.12-59.23-.16-79.17-.47-28.4-.44-33.77-.83-41.32-2.12A169.38,169.38,0,0,1,67.15,306a165.88,165.88,0,0,1-35.32-35.76l202.8.06Q247,304.71,259.3,339.07Z" fill="#1a2438" opacity="0.44"/><path d="M162.16,315.82c.77-2,.89-3.08,1.69-5.48a51.06,51.06,0,0,1,3.31-7.66c4.57-9.18,3.79-15.19,10-29.14.6-1.38,1.12-2.48,1.44-3.14l-128.73.14a147.2,147.2,0,0,0,18.82,17,179.07,179.07,0,0,0,16.49,11c25.32,14.77,71,23.78,73.21,24.2A28.57,28.57,0,0,0,162.16,315.82Z" fill="#1a2438" opacity="0.44"/><path d="M212.61,201a9.32,9.32,0,0,0,1.91-1.07c-.87-2.4-1.75-4.79-2.63-7.19l-3.13-2.41h-3.2a2.7,2.7,0,0,0-.82,2.16,2.58,2.58,0,0,0,.82,1.58l1.17.23,1.19,5.92-1.79.56L259.5,339.07l1.49-1Z" fill="#f7f7f7"/><path d="M201.91,193.33l1.16-.28a2.51,2.51,0,0,0,.13-3.43h3.28a2.74,2.74,0,1,0,0-5.48h-.76v-3.07h4.11v-2H209l5.73-8.18.09-2.91h.21v-3.53h7.14l.6-18.18-4.84-.61-3.64-5.45h-6.67l-5.16,5.68-6-.19v0c-.53-.6-1.06-1.21-1.6-1.81h-6.66a1,1,0,0,0-1.06.6,1.07,1.07,0,0,0,.57,1.35,1,1,0,0,1,.43.72,1,1,0,0,1-.55,1,4.21,4.21,0,0,0-2.41,2.77,4,4,0,0,0,1.2,3.9c.74.52.92,1,.94,1.32.05.75-.7,1.16-.6,1.86a1.63,1.63,0,0,0,.87,1.06h7.27l.61-.61h5.69l-.23,6.67h-6.76V168h1.49q1.51,5.55,3.05,11.09h-.37v2h2.23v3.07h-1.34a2.74,2.74,0,1,0,0,5.48h.21L196.68,192c-.78,2.44-1.55,4.87-2.33,7.3a9.82,9.82,0,0,0,1.72.9L153.76,337.77l1.51.88,43.55-128.21-7.16,128.63h2.69L201,219.9v26.65a1.87,1.87,0,1,0,3.74,0V195.09h-3.1Zm-1.49,12.43.57-1.68v1.68Zm.57-6.43h0l0-.16Z" fill="#f7f7f7"/><polygon points="202.64 164.47 223.85 164.47 224.46 146.29 219.61 145.68 215.97 140.23 209.31 140.23 206.88 143.26 203.25 146.9 202.64 164.47" fill="#2a223c"/><path d="M189.31,158.41h7.27l.61-.61,1-12.12-1.59-1.81h-6.67a1,1,0,0,0-1,.6,1.06,1.06,0,0,0,.56,1.35,1,1,0,0,1,.44.72,1,1,0,0,1-.55,1,4.21,4.21,0,0,0-2.41,2.77,4.06,4.06,0,0,0,1.19,3.9c.74.52.93,1,.95,1.32,0,.75-.71,1.16-.61,1.86A1.62,1.62,0,0,0,189.31,158.41Z" fill="#473a66"/><path d="M197.19,157.8h5.68l1.36-11.89-7-.23c-.33.12-3.42,1.26-4.25,4.25S193.83,156.28,197.19,157.8Z" fill="#2a223c"/><path d="M208.8,150.13h8.48v7.1h-8.52Q208.78,153.68,208.8,150.13Z" fill="#a274ff"/><rect x="211.49" y="160.79" width="5.22" height="1.99" fill="#42355e"/><rect x="203.21" y="147.93" width="4.16" height="16.54" fill="#473a66"/><polygon points="213.55 140.23 207.37 147.93 203.21 147.93 203.25 146.9 209.31 140.23 213.55 140.23" fill="#2a223c"/><rect x="195.88" y="164.47" width="20.83" height="3.53" fill="#473a66"/><path d="M216.5,168H197.37q1.53,5.55,3,11.09h10.27l5.73-8.18C216.45,169.94,216.47,169,216.5,168Z" fill="#2a223c"/><rect x="202.28" y="180.44" width="5.09" height="3.69" fill="#2a223c"/><rect x="200.05" y="179.09" width="11.44" height="1.98" fill="#473a66"/><rect x="198.2" y="184.14" width="12.68" height="5.49" rx="2.74" fill="#473a66"/><polygon points="262.64 338.11 261.15 339.07 207.78 200.74 213.55 198.94 262.64 338.11" fill="#2a223c"/><polygon points="155.41 337.77 156.93 338.65 204.12 199.73 198.34 198.18 155.41 337.77" fill="#2a223c"/><path d="M203.76,203.38l-3.27-.5-7.17,136.19H196Q199.88,271.22,203.76,203.38Z" fill="#2a223c"/><path d="M202.64,193.05h3.74a0,0,0,0,1,0,0v53.5a1.87,1.87,0,0,1-1.87,1.87h0a1.87,1.87,0,0,1-1.87-1.87v-53.5A0,0,0,0,1,202.64,193.05Z" fill="#382d4f"/><polygon points="204.83 170.78 206.94 175.38 222.84 186.88 224.46 185.08 208.38 173.54 204.17 166.94 203.43 168 204.83 170.78" fill="#473a66"/><path d="M206.8,201.66a12.42,12.42,0,0,0,3.69-.27,11.64,11.64,0,0,0,3.85-1.65c-1.05-2.6-2.1-5.21-3.14-7.81l-3.75-2.62h-3.82a2.82,2.82,0,0,0-1,2.35,2.78,2.78,0,0,0,1,1.72l1.4.24Z" fill="#473a66"/><path d="M202.38,200.79a9.36,9.36,0,0,1-3.09-.13,9.17,9.17,0,0,1-3.28-1.38c.77-2.43,1.55-4.86,2.32-7.3l3-2.54,3.2-.13a2.77,2.77,0,0,1,.9,2.13,2.51,2.51,0,0,1-.75,1.61l-1.16.28Z" fill="#473a66"/><circle cx="204.83" cy="39.54" r="5.83" fill="#e0d3ff"/><circle cx="207.97" cy="19.26" r="2.92" fill="#e0d3ff"/><path d="M266.85,330.34c-4,.92-5.52.43-6.31,1.67-.58.9-.79,2.72,1.58,6.81l3.87,0q16.47-.15,32.73,0c.13-3.76.27-7.51.4-11.27l-18-3.34a58.83,58.83,0,0,1-6.06,3.18A41.35,41.35,0,0,1,266.85,330.34Z" fill="#5c4b82"/><path d="M281.14,324.17l18.37,6.47c8.73-13.05,11.4-24,12.22-31.62.94-8.72-.11-16.61,1.82-35.15.44-4.2.94-7.94,1.21-9.7,1.37-8.77,6-25,24.85-46.67L297.79,233a248.79,248.79,0,0,1-9.09,68.48C286.43,309.58,283.86,317.16,281.14,324.17Z" fill="#372d4f"/><path d="M295.4,322.12c-4.1,4.39-7.8,5.78-10.51,6.19-3.63.55-7-.41-10.15,2a6.15,6.15,0,0,0-2.26,3.08,6.63,6.63,0,0,0,1.06,5.32q12.15.27,25.18,0,11-.21,21.32-.78a18.92,18.92,0,0,0,1-4.89,19.19,19.19,0,0,0-1.88-9.59Z" fill="#504173"/><path d="M271.9,124.47a64.39,64.39,0,0,0,38.5-5.37,63.27,63.27,0,0,0,22.18-18l7,15A83.07,83.07,0,0,1,324,126.28c-20.57,10.3-40.51,9.4-50.82,8.11Z" fill="#5a51c8"/><path d="M345.67,191.14l-42.42,6.06c-1.52,1.53-3.91,4-6.67,7.27-8.83,10.4-13.34,19.64-22,37.7-1.62,3.37-3.44,7.29-3.22,12.45,0,1.11,1,4.24,2.79,10.46,2.23,7.59,3.23,10.54,5,14,1,2,1.83,3.37,2.28,4.14,3.71,6.35,9.05,17.76,16.36,40a40.14,40.14,0,0,0,23.64,3.64,185.81,185.81,0,0,0-23.64-68.49c13.39-15.63,23.92-27.44,32.73-36.36,3.51-3.56,10.09-10,13.34-20.61A43,43,0,0,0,345.67,191.14Z" fill="#2a223c"/><path d="M336.46,109.37l3.15,6.72a82.59,82.59,0,0,1-43.42,18.43l-21.91-3.06.9-4.46a38.28,38.28,0,0,0,13.44.91c4.71-.55,5.66-1.62,10.09-1.78,6.46-.24,7.36,1.94,12.47,1.78,6.55-.2,11.42-4,15.28-7A39.33,39.33,0,0,0,336.46,109.37Z" fill="#4d43c8"/><path d="M265.35,115.27c-.89-5.1-1.38-7.89-3.64-10.3a13.1,13.1,0,0,0-13.94-3,11.27,11.27,0,0,0-3.63,2.42,4.9,4.9,0,0,0-1.82-1.21c-2.5-.93-5.71.38-6.67,2.42-.79,1.69.66,2.57,0,4.25-1.08,2.77-5.68,2.26-6.34,4.42-.2.65-.08,1.65,1.28,3.23a6.1,6.1,0,0,0-2.38,1.58,6.22,6.22,0,0,0-1.1,6.63,6.11,6.11,0,0,1,1.85-5,5.56,5.56,0,0,1,1.74-1.1,5,5,0,0,0-2.07,3.63,5.14,5.14,0,0,0,3.41,5.19,3.81,3.81,0,0,1-.95-2.8c.14-1,.8-1.55,1.64-2.46a28,28,0,0,0,3.07-4c.35,1.33.71,2.65,1.06,4,1.12,1.75,3.07,2.38,4.25,1.82,1.39-.67,2.16-3.27.6-5.46a4.22,4.22,0,0,1,1.82,0c2.08.48,3.69,2.64,4.24,5.46a7.6,7.6,0,0,0,6.67,1.21c2.86,2.57,6.68,2.94,9.09,1.21a6.47,6.47,0,0,0,2.42-4.24A41.3,41.3,0,0,0,265.35,115.27Z" fill="#f7f7f7"/><path d="M345.67,191.14l-45.32,8.91c21.93.24,28.34,3.95,29.46,7.8,2,6.82-11,19.74-24.24,32.94-5.23,5.21-12.11,11.53-11,18.25.08.5.16,1,.28,1.57a44.42,44.42,0,0,0,2.37,7.81s.06.16.15.35c3.47,8.13,21.88,39.94,16.64,44.5-1.39,1.2-3.95.09-4.34,1.18-.69,1.89,7,5.5,6.41,7.2-.43,1.16-4.32.27-10.95.69a60.26,60.26,0,0,0-7.33.92,40,40,0,0,0,8.49,3,40.56,40.56,0,0,0,15.19.61A187.06,187.06,0,0,0,310,283.27a185,185,0,0,0-12.12-24.85c13.39-15.63,23.92-27.44,32.73-36.37,3.5-3.55,10.11-10,13.33-20.6A42.32,42.32,0,0,0,345.67,191.14Z" fill="#201a2e"/><path d="M253.93,142.6c-6.82,4.14-9.14,4.12-10,3.31s-.63-2.78-2.6-5.33a9.53,9.53,0,0,0-.84-1,4.21,4.21,0,0,1-2.26.07,4.05,4.05,0,0,1-1.95-1.13,17.38,17.38,0,0,0,.75-3,17.85,17.85,0,0,0,.16-4.4,13.83,13.83,0,0,0-1.14-2.9,14.09,14.09,0,0,0-1.46-2.21,29.38,29.38,0,0,1,.17-3.38,31.45,31.45,0,0,1,.61-3.63l3.63-2.43a21.43,21.43,0,0,0,5.46,4.24,23,23,0,0,0,6.26,2.22,40.61,40.61,0,0,0,15,.21l3.64,4.85a68.95,68.95,0,0,0-11.79,17.27Z" fill="#ffa990"/><path d="M300.35,200.05a32,32,0,0,1,6.53-1.64c11.66-1.63,15.66,4.57,25.13,2.74,3.8-.74,7-2.54,13.28-6.15a89,89,0,0,0,7.8-5c-2.69-2.2-7.12-5.92-12.33-10.8-24.61-23.1-29.6-37.48-48.57-46.81a65.54,65.54,0,0,0-19.38-6h0a2.78,2.78,0,0,0-3.5,1.71l-13.66,16.52,13.66,23.48q4.77,7.3,10.33,15c5.68,7.79,11.38,14.92,16.94,21.4Z" fill="url(#radial-gradient)"/><path d="M275.31,153a48,48,0,0,1,5.29,8.55A51.8,51.8,0,0,1,285,190.26l-5.38-7.19Q277.48,168,275.31,153Z" fill="#93b7f7"/><path d="M220.86,146.34l3.36,4.62.1-.51q3.45,5,6.89,10L261.84,162c1.1,3,3.45,10.64-.19,14.64a6.26,6.26,0,0,1-.52.51L226.86,168a6.85,6.85,0,0,1-4.16-1.69,6.44,6.44,0,0,1-1.43-1.84h2.58a39.87,39.87,0,0,1-1.78-10.39l-2.09-3.4c-1.09-1.73-1.09-3.42-.33-4.05A1.6,1.6,0,0,1,220.86,146.34Z" fill="#ffc7b7"/><path d="M268.92,152c-3.41,2.73-4.9,3.06-5.55,2.59s-.34-1.58-1.19-2.2a2.89,2.89,0,0,0-1.38.35c-2.68,1.5-1.79,7.22-.94,18.75.27,3.75.44,6.76.54,8.51-2.78,1.05-5.78,2.08-9,3a123.15,123.15,0,0,1-14.72,3.33l-3.08-1.15a11.92,11.92,0,0,0-2.49-1.92c-1.56-.16-3.18-.36-4.85-.61-1.25-.18-2.46-.39-3.64-.6a1.56,1.56,0,0,0-.61,1.21,1.58,1.58,0,0,0,.61,1.21l1.82.61a13.34,13.34,0,0,0-2.43,3,3.52,3.52,0,0,0-.6,1.82,3.21,3.21,0,0,0,.6,1.81h1.82c0,.19.7,4,4.09,5.3,1.46.57,7-1.26,7.64-2.26a204.5,204.5,0,0,0,25,2.74c7.5.36,9.55-.24,11.28-1.15,10.23-5.38,8.63-25.63,8.33-29Z" fill="#ffa990"/><path d="M255.37,127.5a7.72,7.72,0,0,1-4.24,0,7.58,7.58,0,0,1-2.43-1.21c-.55-2.82-2.16-5-4.24-5.46a4.39,4.39,0,0,0-1.82,0c1.56,2.19.79,4.79-.6,5.46-1.18.56-3.13-.07-4.25-1.82-.35-1.32-.71-2.65-1.06-4a28,28,0,0,1-3.07,4c-.84.91-1.5,1.48-1.64,2.46a3.81,3.81,0,0,0,.95,2.8,5,5,0,0,1,0-9.52c-2.7-2.45-2.95-3.85-2.7-4.67.66-2.16,5.26-1.65,6.34-4.42.66-1.68-.79-2.56,0-4.25,1-2,4.17-3.34,6.67-2.42a5,5,0,0,1,1.82,1.21,11.27,11.27,0,0,1,3.63-2.42,13.1,13.1,0,0,1,13.94,3c2.26,2.41,2.75,5.2,3.64,10.3a41.3,41.3,0,0,1,.6,7.88,6.47,6.47,0,0,1-2.42,4.24C262.05,130.44,258.23,130.07,255.37,127.5Z" fill="#2a223c"/><rect x="215.28" y="145.48" width="2.45" height="1.71" fill="#4a3c6b"/><path d="M253.93,142.6c-.05-2.34,1.56-3.34,3.59-7.36,1.54-3,.9-3,2.29-5.57,1.55-2.87,3.15-5.94,6.14-6.52,2.51-.49,5.2.93,5.95,1.32a12.3,12.3,0,0,1,3.28,2.53,47.16,47.16,0,0,0-19.46,19.74A6.7,6.7,0,0,1,253.93,142.6Z" fill="#443ac8"/><path d="M256.5,175.87a55.09,55.09,0,0,1,6.82-.23,56.08,56.08,0,0,1,18.33,3.67,91.15,91.15,0,0,0-2.57-20.68s-2.44-9.81-7.21-14.1l-.54-.48c-.2-.18-.42-.36-.64-.54a41.16,41.16,0,0,0-9-5.66,16.7,16.7,0,0,0-6,8.89,14.59,14.59,0,0,0-.05,6.13C256.41,157.18,257,164.13,256.5,175.87Z" fill="#a2c1f7"/><ellipse cx="235.38" cy="132.48" rx="1.04" ry="2.62" transform="translate(-30.65 179.16) rotate(-39.32)" fill="#2a223c"/><polygon points="234.59 131.72 241.35 123.4 244.41 123.05 244.16 123.81 241.63 123.95 234.78 132.43 234.59 131.72" fill="#2a223c"/><path d="M234.92,120.57l.46-1.95A6.15,6.15,0,0,0,228,127a5.87,5.87,0,0,1,6.88-6.43Z" fill="#2a223c"/><ellipse cx="241.51" cy="33.71" rx="16.65" ry="13.75" fill="#e0d3ff"/><path d="M272.82,147.93a54.08,54.08,0,0,1,5.7,16.8,53.51,53.51,0,0,1,.44,13.63l2.69.95a50,50,0,0,0-8.83-31.38Z" fill="#c5d7f7"/><path d="M266.89,123.05a12.38,12.38,0,0,1,4.62,1.23,12.22,12.22,0,0,1,3.67,2.72l-1.84,1.05a9.46,9.46,0,0,0-6.45-5Z" fill="#7d76e8"/><path d="M255.65,145.71a11.47,11.47,0,0,1,.64-4.77c1-2.73,2.46-3.19,4.84-6.44,2.94-4,2.35-5.56,4.35-6.76,1.33-.79,3.65-1.34,7.86.31a59.24,59.24,0,0,0-17.69,17.66Z" fill="#3d34b2"/><rect x="19.07" y="92.31" width="3.12" height="109.77" rx="1.56" fill="#7381a3"/><rect x="33.71" y="92.31" width="3.12" height="109.77" rx="1.56" fill="#7381a3"/><rect x="72.65" y="38.25" width="3.12" height="109.77" rx="1.56" transform="translate(167.34 18.92) rotate(90)" fill="#7381a3"/><rect x="27.77" y="94.4" width="1.15" height="19.09" rx="0.58" transform="translate(-25.11 197.49) rotate(-135)" fill="#7381a3"/><rect x="27.77" y="94.4" width="1.15" height="19.09" rx="0.58" transform="translate(121.89 157.4) rotate(135)" fill="#7381a3"/><rect x="27.32" y="137.65" width="1.15" height="19.09" rx="0.58" transform="translate(-56.45 271) rotate(-135)" fill="#7381a3"/><rect x="27.32" y="137.65" width="1.15" height="19.09" rx="0.58" transform="translate(151.71 231.55) rotate(135)" fill="#7381a3"/><path d="M46,41.52l2-1.18A195.45,195.45,0,0,0,114,60a203,203,0,0,0,73.71-5.14l-.16.9a215.75,215.75,0,0,1-70.87,5.13A209.14,209.14,0,0,1,46,41.52Z" fill="#53688c"/><rect x="27.32" y="177.39" width="1.15" height="19.09" rx="0.58" transform="translate(-84.55 338.84) rotate(-135)" fill="#7381a3"/><rect x="27.32" y="177.39" width="1.15" height="19.09" rx="0.58" transform="translate(179.81 299.38) rotate(135)" fill="#7381a3"/><rect x="106.07" y="51.3" width="60.17" height="14.15" rx="7.08" transform="translate(40.7 -54.91) rotate(26.68)" fill="#f7f7f7"/><path d="M0,148.38,126.58,54.55l2.88,2L0,160.79Q0,154.58,0,148.38Z" fill="#2a223c"/><rect x="103.82" y="50.38" width="61.29" height="13.02" rx="6.51" transform="translate(39.85 -54.31) rotate(26.68)" fill="#bbd5ed"/><path d="M127.73,54.55c-3.52-2-19.28-10.14-21-10.61a6.52,6.52,0,0,0,3.2,8L153.1,73.63a6.52,6.52,0,0,0,7.18-.89C156.35,70.65,134.64,58.54,127.73,54.55Z" fill="#a0c8ed"/><path d="M118.59,56.2a9.07,9.07,0,0,1,5.48-11.82l10.11,5.08a8,8,0,0,0-5.87,11.88Z" fill="#2a223c"/><rect x="198.46" y="94.25" width="16.83" height="9.75" rx="3.16" fill="#be9bff"/><rect x="189.55" y="83.19" width="16.83" height="9.75" rx="3.16" fill="#be9bff"/><path d="M.05,152.77Q122.78,58.72,122.24,58T0,148.38C0,149.85,0,151.31.05,152.77Z" fill="#473a66"/><path d="M125.84,1.91c-1.28,18.86-7,27.66-13.6,31.59-10.47,6.22-20.92-1.11-29,6-8.94,7.83-1.4,21.56-8.42,30.71-5.29,6.91-18.69,11-52.26,2.2l.43-.75c33.05,8.56,46.3,4.49,51.57-2.37,7-9.17-.51-22.91,8.42-30.71,8-7,18.56.31,29-6,9.16-5.49,12.39-18,13.24-30.58Z" fill="#53688c"/><rect x="190.54" y="83.19" width="15.84" height="9.11" rx="2.97" fill="#ceb8ff"/><rect x="199.45" y="94.25" width="15.84" height="9.11" rx="2.97" fill="#ceb8ff"/><rect x="209.81" y="78.64" width="15.84" height="9.11" rx="2.97" fill="#ceb8ff"/><polygon points="0 165.38 126.09 60.05 125.16 59.77 0.04 160.79 0 165.38" fill="#f7f7f7"/><circle cx="148.23" cy="61.39" r="0.79" fill="#86bbed"/><circle cx="151.41" cy="66.59" r="0.79" fill="#86bbed"/><circle cx="145.18" cy="67.03" r="0.79" fill="#86bbed"/><circle cx="156.77" cy="66.24" r="0.79" fill="#86bbed"/><circle cx="154.51" cy="61.83" r="0.79" fill="#86bbed"/><circle cx="154.51" cy="71.81" r="0.79" fill="#86bbed"/><rect x="121.68" y="242.53" width="43.7" height="27.74" fill="#2f3b52"/><path d="M125.47,234.63H165a0,0,0,0,1,0,0v4.54a0,0,0,0,1,0,0h-43.7a0,0,0,0,1,0,0v-.41A4.13,4.13,0,0,1,125.47,234.63Z" transform="translate(-34.43 24.58) rotate(-8.76)" fill="#1c2330"/><rect x="121.68" y="242.53" width="43.7" height="4.54" fill="#1c2330"/><polygon points="127.98 236.96 123.98 242.17 129.22 241.36 133.24 236.13 127.98 236.96" fill="#fff"/><polygon points="142.68 234.69 138.67 239.9 143.91 239.09 147.93 233.87 142.68 234.69" fill="#fff"/><polygon points="159.19 232.15 155.18 237.36 160.42 236.55 164.44 231.32 159.19 232.15" fill="#fff"/><polygon points="128.36 247.09 123.61 242.55 128.91 242.55 133.68 247.11 128.36 247.09" fill="#fff"/><polygon points="143.88 246.97 139.12 242.44 144.42 242.44 149.2 246.99 143.88 246.97" fill="#fff"/><polygon points="159.95 247.08 155.2 242.54 160.5 242.54 165.27 247.1 159.95 247.08" fill="#fff"/><rect x="118.96" y="258.4" width="23.17" height="0.58" transform="translate(-128.14 389.24) rotate(-90)" fill="#4f6387"/><rect x="121.53" y="254.31" width="43.85" height="0.58" transform="translate(286.92 509.21) rotate(180)" fill="#4f6387"/><rect x="121.61" y="260.43" width="27" height="0.58" transform="translate(270.21 521.44) rotate(180)" fill="#4f6387"/><rect x="137.02" y="258.4" width="23.17" height="0.58" transform="translate(-110.08 407.3) rotate(-90)" fill="#4f6387"/><path d="M165.38,270.13h-43.7c2.64-8.1,6.66-16.69,12.45-17.24,3.56-.33,5.35,2.61,9.4,3.37,4.7.89,11.65-1.31,21.85-13.87Z" fill="#1a2438" opacity="0.53"/><rect x="122.76" y="239.9" width="4.47" height="4.68" rx="2.23" fill="#7684a8"/></svg>