<svg id="Layer_1" data-name="Layer 1" xmlns="http://www.w3.org/2000/svg" xmlns:xlink="http://www.w3.org/1999/xlink" viewBox="0 0 343.83 359.18"><defs><linearGradient id="linear-gradient" x1="128.52" y1="93.23" x2="127.69" y2="147.62" gradientUnits="userSpaceOnUse"><stop offset="0.48" stop-color="#a56e51" stop-opacity="0"/><stop offset="1" stop-color="#704935"/></linearGradient><radialGradient id="radial-gradient" cx="332.15" cy="-670.86" r="55.36" gradientTransform="translate(-127.29 777.32) rotate(-7.21)" gradientUnits="userSpaceOnUse"><stop offset="0" stop-color="#fff" stop-opacity="0.5"/><stop offset="0.77" stop-color="#fff" stop-opacity="0"/><stop offset="0.81" stop-color="#fff" stop-opacity="0.01"/><stop offset="0.85" stop-color="#fff" stop-opacity="0.06"/><stop offset="0.89" stop-color="#fff" stop-opacity="0.13"/><stop offset="0.93" stop-color="#fff" stop-opacity="0.23"/><stop offset="0.97" stop-color="#fff" stop-opacity="0.36"/><stop offset="1" stop-color="#fff" stop-opacity="0.5"/></radialGradient><linearGradient id="linear-gradient-2" x1="87.87" y1="197.55" x2="156.6" y2="197.55" gradientUnits="userSpaceOnUse"><stop offset="0.48" stop-color="#a56e51" stop-opacity="0"/><stop offset="1" stop-color="#a56e51"/></linearGradient><radialGradient id="radial-gradient-2" cx="209.05" cy="2961.96" r="46.82" gradientTransform="translate(1294.13 -2529.4) rotate(25.96)" gradientUnits="userSpaceOnUse"><stop offset="0" stop-color="#6bb7ff"/><stop offset="0.14" stop-color="#6db8ff" stop-opacity="0.99"/><stop offset="0.27" stop-color="#73bbff" stop-opacity="0.94"/><stop offset="0.39" stop-color="#7ec0ff" stop-opacity="0.87"/><stop offset="0.51" stop-color="#8dc8ff" stop-opacity="0.77"/><stop offset="0.63" stop-color="#a0d1ff" stop-opacity="0.64"/><stop offset="0.74" stop-color="#b8dcff" stop-opacity="0.48"/><stop offset="0.86" stop-color="#d4eaff" stop-opacity="0.29"/><stop offset="0.96" stop-color="#f4faff" stop-opacity="0.08"/><stop offset="1" stop-color="#fff" stop-opacity="0"/></radialGradient><radialGradient id="radial-gradient-3" cx="204.05" cy="216.06" r="152.34" gradientUnits="userSpaceOnUse"><stop offset="0.37" stop-color="#7dedff" stop-opacity="0.3"/><stop offset="1" stop-color="#99e7ff" stop-opacity="0"/></radialGradient><radialGradient id="radial-gradient-4" cx="264.12" cy="140.99" r="88.83" gradientUnits="userSpaceOnUse"><stop offset="0.24" stop-color="#fff" stop-opacity="0.4"/><stop offset="0.91" stop-color="#a4e9ff" stop-opacity="0.04"/><stop offset="1" stop-color="#99e7ff" stop-opacity="0"/></radialGradient></defs><path d="M329.37,150c-1.94.47-23.76,5.57-32.54.16-1.18-.72-2.33-1.58-2.33-1.58a46.21,46.21,0,0,1-9.76-11.5c-3.57-6.41-26.85-34.38-39.37-29.17-4.73,2-6.33,8-6.53,8.86-2.15,8.64,5.91,13.1,4.83,20.23-1.73,11.43-24.78,20.19-29.69,15.07-4-4.19,6.92-14.77,1.87-23.91-3.79-6.87-14.4-8.94-21.68-8.18-.34,0-.85.09-1.48.19A26,26,0,0,0,180,126c-6.83,6.18-2.45,25,4.48,38.2,6.29,12,11.11,12.43,14.22,22.69,3.19,10.52,1.07,19.76-.06,24.65-4.67,20.34-21.36,41.86-39.12,48.69C116.57,276.74,38.9,218.39,24.15,147.72c-8-38.43,4.57-71.46,8.36-80.47,7.09-16.87,17.92-44.52,46.9-58.9.66-.33,1.7-.85,3.06-1.47,22.64-10.37,46.17-6.65,55-4C175.8,14.53,168.37,78.4,202.2,87c19.74,5,26.38-15.64,59.73-12.5,6.43.6,29.64,3.13,47.81,21.74a71.27,71.27,0,0,1,15.36,24l10.27,20a8,8,0,0,0-5.78,4.33A7.54,7.54,0,0,0,329.37,150Z" fill="#99e7ff"/><path d="M157.1,68.32a231.7,231.7,0,0,1-51.65-6A232.53,232.53,0,0,1,45.27,38.9c-1.82,2.89-3.45,5.78-4.93,8.62a194.51,194.51,0,0,0,66.93,21.22A192.21,192.21,0,0,0,157.1,68.32Z" fill="#99e7ff"/><path d="M157.1,68.32a231.7,231.7,0,0,1-51.65-6A232.53,232.53,0,0,1,45.27,38.9c-1.82,2.89-3.45,5.78-4.93,8.62a194.51,194.51,0,0,0,66.93,21.22A192.21,192.21,0,0,0,157.1,68.32Z" fill="#fff" opacity="0.61"/><path d="M139.14,93.25a192.21,192.21,0,0,0,49.83.42,193.84,193.84,0,0,0,64.11-19.75c-26.66.48-33.77,17.42-51.84,12.8a26.47,26.47,0,0,1-3.68-1.23c-2.23.6-4.48,1.17-6.77,1.71A231.12,231.12,0,0,1,139.14,93.25Z" fill="#99e7ff"/><path d="M139.14,93.25a192.21,192.21,0,0,0,49.83.42,193.84,193.84,0,0,0,64.11-19.75c-26.66.48-33.77,17.42-51.84,12.8a26.47,26.47,0,0,1-3.68-1.23c-2.23.6-4.48,1.17-6.77,1.71A231.12,231.12,0,0,1,139.14,93.25Z" fill="#fff" opacity="0.61"/><path d="M297.16,306.5h.21a0,0,0,0,1,0,0v51.43a0,0,0,0,1,0,0h-2.89a0,0,0,0,1,0,0V309.17A2.68,2.68,0,0,1,297.16,306.5Z" transform="matrix(-0.78, -0.63, 0.63, -0.78, 317.54, 776.59)" fill="#637ca8"/><path d="M313.37,308.77h.18a0,0,0,0,1,0,0v43a0,0,0,0,1,0,0H311a0,0,0,0,1,0,0V311.14a2.38,2.38,0,0,1,2.38-2.38Z" transform="translate(624.56 660.55) rotate(180)" fill="#637ca8"/><rect x="308.44" y="170.12" width="5.12" height="142.23" transform="translate(621.99 482.48) rotate(-180)" fill="#53688c"/><rect x="311" y="170.12" width="2.56" height="142.23" transform="translate(624.55 482.48) rotate(-180)" fill="#637ca8"/><rect x="272.86" y="113.74" width="71.16" height="40.42" rx="18.76" transform="translate(569.51 345.88) rotate(-164.41)" fill="#6f88bc"/><path d="M336.9,153.1a20.18,20.18,0,0,1-18.29,4.25l-29.74-7.76A20.18,20.18,0,0,1,275,137Z" fill="#637ca8"/><line x1="317.77" y1="157.38" x2="288.16" y2="149.12" fill="#637ca8"/><rect x="317.2" y="151.37" width="5.12" height="17.51" transform="translate(639.53 320.24) rotate(-180)" fill="#53688c"/><rect x="295.75" y="168.87" width="29.14" height="2.41" transform="translate(620.63 340.16) rotate(-180)" fill="#53688c"/><rect x="319.77" y="151.37" width="5.12" height="19.91" transform="translate(644.65 322.65) rotate(-180)" fill="#637ca8"/><path d="M343.23,136.11l-66.24-18a20.21,20.21,0,0,1,21.76-7.81l29.66,8A20.21,20.21,0,0,1,343.23,136.11Z" fill="#b4cbf4"/><rect x="295.75" y="151.37" width="5.12" height="17.51" transform="translate(596.62 320.24) rotate(-180)" fill="#53688c"/><rect x="298.31" y="151.37" width="5.12" height="17.51" transform="translate(601.74 320.24) rotate(-180)" fill="#637ca8"/><circle cx="291.57" cy="129.25" r="17.37" fill="#53688c"/><circle cx="291.47" cy="129.22" r="14.48" fill="#dbe4f4"/><path d="M291.28,114.74a14.45,14.45,0,0,1,2.39.22,14.49,14.49,0,0,0,0,28.52,14.46,14.46,0,1,1-2.39-28.74Z" fill="#99b8f4"/><path d="M298.33,113.24q-2.35-6.09-4.7-12.17l-24.3,5.41,8.05,12.74a17.38,17.38,0,0,1,20.95-6Z" fill="#6f88bc"/><path d="M275.24,122.45l-12.17,4.7q2.71,12.15,5.42,24.3l12.74-8a17.4,17.4,0,0,1-6-21Z" fill="#6f88bc"/><path d="M284.55,145.21l4.71,12.17,24.3-5.41-8.06-12.74a17.37,17.37,0,0,1-20.95,6Z" fill="#8ca1c6"/><path d="M327.78,304.23H328a0,0,0,0,1,0,0V356a0,0,0,0,1,0,0H325.1a0,0,0,0,1,0,0V306.91A2.68,2.68,0,0,1,327.78,304.23Z" transform="translate(783.93 410.23) rotate(144.62)" fill="#637ca8"/><path d="M323.16,305.61h.21a2.68,2.68,0,0,1,2.68,2.68V357.4a0,0,0,0,1,0,0h-2.89a0,0,0,0,1,0,0V305.61A0,0,0,0,1,323.16,305.61Z" transform="translate(781.2 413.85) rotate(144.62)" fill="#53688c"/><path d="M292.37,304.79h.21a2.68,2.68,0,0,1,2.68,2.68v48.75a0,0,0,0,1,0,0h-2.89a0,0,0,0,1,0,0V304.79A0,0,0,0,1,292.37,304.79Z" transform="translate(314.85 772.22) rotate(-141.09)" fill="#53688c"/><path d="M308.44,308.77h.18a2.38,2.38,0,0,1,2.38,2.38v40.64a0,0,0,0,1,0,0h-2.56a0,0,0,0,1,0,0v-43A0,0,0,0,1,308.44,308.77Z" transform="translate(619.43 660.55) rotate(-180)" fill="#53688c"/><path d="M341.64,145.52c2.49,11.39,3.52,26.06-4.15,38-10.74,16.78-29.95,14.89-33.59,28C299.83,226.21,322.42,233.81,323,255c.71,24.53-29,38.51-23.23,50.88,4.82,10.28,27.46,5.17,33.49,18.29,2.45,5.32,1.08,11.28-.6,15.67" fill="none" stroke="#595959" stroke-miterlimit="10" stroke-width="0.72"/><path d="M104,95c17.75,2.13,29.11,11.29,29.06,19.63,0,1.52-.42,5.22-5.16,9.69l-13.71,10.24-3.91-13.91,7.47-4.26-12,1.84Z" fill="#4e77a3"/><path d="M67.28,206c-5.59-4-10.38-7.18-13.89-9.39-8-5-12.08-7.6-17.06-9-7.45-2.17-9.16-.29-15.16-1.75C9,182.84-1.92,170.72.29,165.41c2.5-6,22.26-4.33,35.16-.66a73.55,73.55,0,0,1,24.89,12.67l22.31,20.27Z" fill="#304965"/><path d="M41.59,148.46l-1.41,4.71a16.48,16.48,0,0,0,8.91-2.5c6.45-4.09,7.28-11.35,7.38-12.37Z" fill="#365170"/><path d="M70.89,102.92c.07-2.11.57-8,4.92-11.53,6.15-5.06,18-4,27,4.69,4.4,7.93,8.8,16.65,13,26.17,2.47,5.63,4.66,11.1,6.63,16.39a40.36,40.36,0,0,1-17.65,14.71,41.74,41.74,0,0,1-26.28,2Z" fill="#eaeff7"/><path d="M76.33,90.75c.19-1,1.11-5.83,1.3-6.84l.28-1.46L86.4,85l7.3-5a26.63,26.63,0,0,1,2.55,12.85c0,.53-.09,1.05-.15,1.56A37.72,37.72,0,0,1,89,95.5c-3.17.2-5.13.32-7.4-.58A12.06,12.06,0,0,1,76.33,90.75Z" fill="#ffbfad"/><path d="M84.81,135.23c-.24-.47,6.12-5.78,14.82-6.66,6.53-.66,12.19,1.39,12.13,2s-7.24-.88-17,1.38C88.4,133.4,85,135.57,84.81,135.23Z" fill="#d1e0f7"/><path d="M89.45,122.81c-.35-.61,4.3-5.25,10.65-8.1,2.52-1.13,3.5-1.45,4.07-2.66,1.51-3.26-2.33-9.65-7.26-10.89-3.08-.78-4.16,1.07-8.35.63-4-.41-8.61-2.67-8.49-4.48.2-3.13,14.68-7,18.92-2.24,2.12,2.37.48,5.56,3.63,9,1.67,1.82,3,1.19,5.56,3.41,3.77,3.31,9.35,9.22,8.22,10.62-.76.94-3.37-1.51-8.4-1.26-2,.1-2.9.53-8.57,2.65C90,123,89.54,123,89.45,122.81Z" fill="#d1e0f7"/><path d="M80.29,169.63c1.39-7.83,5.6-9.89,6.35-18.81.78-9.19-3.85-12.38-6.29-24A62.65,62.65,0,0,1,80,103.44c-1.07,2-2,2.61-2.7,2.61-3.14,0-3.35-11.58-8.67-12.53-.83-.15-3.76-.49-7.62,2.79-1.13,8.25-2.39,14.31-3,16.61-.93,3.61-2.05,6.57-2.05,6.57h0c-.38,1-.82,2.14-1.33,3.32-1.83,4.19-3.37,6.1-6.23,14.17-2.12,6-3.18,9.9-6.85,11.47-2,.85-3.61.52-6.85.25,0,0-8.44-2-15.78.13C7.86,152,2.31,161.52.89,164.16c22.29-3.62,34.56,1.13,41.7,6.34,6.51,4.76,8,9.4,15.84,15.64,10.89,8.7,23.07,11.78,31.75,13C80.12,185.88,79.12,176.19,80.29,169.63Z" fill="#3b5a7d"/><path d="M65.67,115.1c2,1.06,2.3,4.91,1.81,7.48-1.17,6.09-7,7-7.38,12.27-.24,3.59,2.33,5.46,1.08,7.13s-4.84,1.67-7.15.25c-4.43-2.72-4.58-11.38-1.74-17.37C55.31,118.48,62.55,113.45,65.67,115.1Z" fill="#31557d"/><path d="M80.45,86.15a2.68,2.68,0,0,1,.4,0l0-.23c-.16-1.62-.2-3.28-.35-4.92-.21-.2-.4-.38-.57-.56-2.62-2.8-3.2-6-4-5.88-.34.06-.68.77-.72,3.41a5.72,5.72,0,0,1-1.26,1.87c-1.55,1.49-3.21,1.17-4.72,1.89-2.52,1.21-4.24,5.12-3.32,7.56,1.52,4,10.47,4.87,12.75,1.5.34-.51.94-1.72.34-4.07A4.55,4.55,0,0,1,80.45,86.15Z" fill="#ff6a3d"/><path d="M56.61,136.67l-2.67-10a12.51,12.51,0,0,0,11.4-5.31,20.6,20.6,0,0,0,2.47-11.75A21.15,21.15,0,0,0,61,96.31a41.51,41.51,0,0,0-14.32,7.27c-2.56,2-14.69,11.64-13.44,23.43.46,4.34,2.6,7.71,6.13,13.29a62,62,0,0,0,7.78,9.88A11.83,11.83,0,0,0,54,146.7C57.85,142.59,56.74,137.23,56.61,136.67Z" fill="#466a91"/><path d="M94.62,83.71a25.22,25.22,0,0,1,8,.07,4.24,4.24,0,0,0,2.35.55c2.73-.22,3.58-3.44,5-3.65,2.3-.35,7.14,7.58,11,24.82,1,4.42,7.34,33.09,12,37.88,4.27,4.37,6.2,3.29,11,7.93,9.08,8.82,11.34,20.89,11.84,29.64l-4.87,2.48c-.54-8.08-2.68-19.46-11-28.56-7.06-7.71-10.57-5.05-17.52-12.68-7.27-8-9-24.07-18.35-36.7a46.24,46.24,0,0,0-9.07-9.19Z" fill="#466a91"/><path d="M153.8,182.12l-2.89,1.48c-.54-8.08-2.69-19.46-11-28.56-7.06-7.71-10.57-5-17.52-12.68-7.27-8-9-24.07-18.35-36.7A46.24,46.24,0,0,0,95,96.47l-.15-5.67C105,99,110.46,107.12,113.52,113c4.55,8.74,3.88,12.54,9.3,20.31,6.26,8.95,11.49,10.1,17.75,16.65C146,155.67,152.07,165.27,153.8,182.12Z" fill="#3b5a7d"/><path d="M71.52,71.17c-1.94-4.38.73-12,6.15-14.88,4.2-2.22,9.07-.53,10.7,0a14.27,14.27,0,0,1,5.22,3c1.08,1,1.74,1.44,2.08,2.37.69,1.87-.66,2.8-.38,5,.25,1.87,1.34,1.83,2.78,4.65,1.24,2.45.55,2.73,1.79,5.69,1.43,3.44,2.75,4,2.64,5.78-.13,2.14-2.13,3.61-3,4.26A13.94,13.94,0,0,1,84,87.13a14.15,14.15,0,0,1-5.29-6.94c.07.18.37,1,0,1.48-.51.66-2,.43-2.7-.22-.94-.8-.72-2.15-.84-3.5C74.86,74.6,72.58,73.58,71.52,71.17Z" fill="#ffbeaa"/><path d="M77.63,83.91c1.37,0,3-1,3.13-2.24.24-1.76-2.71-2.77-2.41-4.29s3.16-1.1,3.8-2.86c.54-1.49-1.23-2.52-1.43-5.94a7.19,7.19,0,0,1,.14-2.36,7.54,7.54,0,0,1,6.3-5.33c3.1-.16,4.11,3.15,8.45,3.22.66,0,2.65,0,3.25-1.09a2,2,0,0,0,0-1.6c-.63-1.61-3-2.09-4.25-2.37-7.53-1.62-8.57-2.58-9.73-2.61a5.65,5.65,0,0,0-.76.1c-2,.43-14.67,11.28-11.27,21.71C73,78.65,74.73,83.82,77.63,83.91Z" fill="#ff6a3d"/><path d="M45.22,85.68c17.16,3.87,24.29,1,27.5-2.74s2.15-9.14,7.85-16.5a20.25,20.25,0,0,1,6.59-5.55c2-1,4-2,6.43-1.59A8.52,8.52,0,0,1,98.86,63c5.46-4.28,6.38-6.33,5.93-7.38-1-2.33-8.42,1-14.86-3-4.32-2.7-3.43-5.71-7.2-8.74-8-6.46-24.23-2.49-25.26,2.39-.76,3.56,7,5.44,7.71,12.58.58,5.56-3.51,10.31-4.26,11.18-5.56,6.46-13.15,5.7-15.27,11.66A8.93,8.93,0,0,0,45.22,85.68Z" fill="#304965"/><path d="M85.12,50.48a13.53,13.53,0,0,0-5.87-3.57c-2.4-.65-6.44-.88-8.69.89C63.94,53,75.81,73.35,69.19,78.52c-2.85,2.22-6.94-.06-11.66,3.7a14,14,0,0,0-3.86,5c12.12,1.4,16.64-1.17,18.51-3.83,2.29-3.25,4.58-12.28,7.85-16.5a20.45,20.45,0,0,1,6.6-5.55c2-1,4-2,6.43-1.6a8.53,8.53,0,0,1,5.26,3.73l.68-.54A32.94,32.94,0,0,0,102.15,60a26.51,26.51,0,0,0,2.63-3.23,8.15,8.15,0,0,1-4.34.66c-1.37-.2-1.67-.66-2.81-.94-3.23-.81-4.66,1.87-7,1.3S88.85,54.11,85.12,50.48Z" fill="#273b52"/><path d="M103.68,59.07c-.4-.73-1.33-.77-2.07-.8s-1.57,0-2.35,0a22.52,22.52,0,0,1-4.71-.24,12.77,12.77,0,0,1-4.45-1.63,9.82,9.82,0,0,1-3.34-3.38,20.36,20.36,0,0,0-2.65-3.81,16.82,16.82,0,0,0-3.65-2.77,21.69,21.69,0,0,0-4.24-1.8,25,25,0,0,0-4.51-.88,18.19,18.19,0,0,0-4.55.12,5.62,5.62,0,0,0-3.67,1.8,2.05,2.05,0,0,0-.16,1.73,10,10,0,0,0,.91,2c.76,1.33,1.64,2.66,2.38,4.09a15.94,15.94,0,0,1,2,9.53,19.71,19.71,0,0,1-1.14,4.78,20.69,20.69,0,0,1-1,2.26c-.19.37-.39.73-.61,1.08l-.34.54-.18.26-.09.13a1.58,1.58,0,0,1-.2.24l.09-.09a18.48,18.48,0,0,1-4.32,3.91,48.88,48.88,0,0,1-4.95,2.65c-2.17,1.1-3.16,1.83-3.87,2.92a7.1,7.1,0,0,0-.81,5.1l-2.73-.43A8.93,8.93,0,0,1,50,80.3a12,12,0,0,1,4.87-3.57,47.08,47.08,0,0,0,4.82-2.41A16.45,16.45,0,0,0,63.57,71l.08-.08c-.09.09,0,0,0,0l.08-.1.15-.22.31-.46c.2-.3.39-.62.57-1a20.58,20.58,0,0,0,1-2,18.5,18.5,0,0,0,1.15-4.32,14.33,14.33,0,0,0-1.59-8.62c-.67-1.38-1.49-2.69-2.25-4.11a10.7,10.7,0,0,1-1-2.31A3.38,3.38,0,0,1,62.43,45l.46-.56a4.17,4.17,0,0,1,.53-.41,5.19,5.19,0,0,1,1.15-.63A10.45,10.45,0,0,1,67,42.79a19.52,19.52,0,0,1,4.83,0,25.56,25.56,0,0,1,4.68,1,22.53,22.53,0,0,1,4.35,2,17.14,17.14,0,0,1,3.74,3,21.07,21.07,0,0,1,2.61,4,10.52,10.52,0,0,0,7.41,5,21.94,21.94,0,0,0,4.66.36c.78,0,1.57,0,2.35,0S103.3,58.32,103.68,59.07Z" fill="#6596d1"/><path d="M129.85,168.07C113.08,168,99.13,153,98.92,135.35c-.21-16.89,12.35-29.8,27.84-29.44,15.34.37,28.84,13.65,30.27,30.25C158.53,153.49,146.44,168.13,129.85,168.07Zm-2.94-59.15c-13.92-.31-25.15,11.33-24.9,26.47.25,15.76,12.72,29.11,27.66,29.18s25.66-12.95,24.38-28.45C152.82,121.21,140.71,109.24,126.91,108.92Z" fill="#ad6741"/><path d="M130.14,173.9h0a1.56,1.56,0,0,1-1.45-1.55l-3.36-70.09a1.16,1.16,0,0,1,1.19-1.25h0a1.39,1.39,0,0,1,1.32,1.32l3.6,70A1.38,1.38,0,0,1,130.14,173.9Z" fill="#ad6741"/><path d="M161.93,136.23h0a1.19,1.19,0,0,1-1.16,1.37l-65.6-.89a1.41,1.41,0,0,1-1.35-1.44h0a1.34,1.34,0,0,1,1.33-1.39l65.36.94A1.53,1.53,0,0,1,161.93,136.23Z" fill="#ad6741"/><path d="M150.15,111.37h0a1.36,1.36,0,0,1,.15,1.86l-43.87,49a1.3,1.3,0,0,1-2,0h0a1.6,1.6,0,0,1,0-2.13l43.94-48.75A1.22,1.22,0,0,1,150.15,111.37Z" fill="#ad6741"/><path d="M103.52,110.35h0a1.26,1.26,0,0,1,1.82,0l48.75,50a1.62,1.62,0,0,1,.17,2.1h0a1.25,1.25,0,0,1-1.9,0l-48.81-50.25A1.34,1.34,0,0,1,103.52,110.35Z" fill="#ad6741"/><path d="M134.78,135.85c.22,3.87-2.54,7-6.18,7a7.33,7.33,0,0,1-6.91-7.15,6.28,6.28,0,0,1,6.21-6.83A7.33,7.33,0,0,1,134.78,135.85Z" fill="#e18254"/><path d="M131.74,135.8a3.35,3.35,0,0,1-3.31,3.7,3.9,3.9,0,0,1-3.68-3.79,3.36,3.36,0,0,1,3.31-3.67A3.91,3.91,0,0,1,131.74,135.8Z" fill="#ad6741"/><path d="M97.19,135.29c0,1.55-1.69,2.79-3.83,2.76s-3.86-1.32-3.86-2.87,1.72-2.77,3.84-2.74S97.18,133.75,97.19,135.29Z" fill="#ad6741"/><path d="M166,135.75c.15,1.52-1.38,2.73-3.42,2.7s-3.8-1.28-3.94-2.8,1.41-2.71,3.43-2.68S165.88,134.24,166,135.75Z" fill="#ad6741"/><path d="M126.74,104.37c-1.38,0-2.57-1.72-2.66-3.75S125,97,126.38,97s2.55,1.69,2.66,3.71S128.12,104.4,126.74,104.37Z" fill="#ad6741"/><path d="M105.17,112.05c-1,1-3,.59-4.44-.93s-1.86-3.55-.88-4.54,3-.58,4.42.93S106.15,111,105.17,112.05Z" fill="#ad6741"/><path d="M157.91,166.23c-.94,1.15-3,.72-4.67-1s-2.18-4-1.24-5.11,3-.71,4.64,1S158.84,165.08,157.91,166.23Z" fill="#ad6741"/><path d="M107,158.93c1.09,1.16.76,3.47-.75,5.16s-3.63,2.11-4.72.93-.73-3.5.78-5.18S105.89,157.77,107,158.93Z" fill="#ad6741"/><path d="M153.28,107.43c1,1,.86,3-.41,4.43s-3.18,1.76-4.23.73-.85-3,.44-4.44S152.23,106.42,153.28,107.43Z" fill="#ad6741"/><path d="M130.39,178.92c-1.51,0-2.83-2-2.95-4.46s1-4.4,2.51-4.4,2.81,2,2.94,4.41S131.9,178.92,130.39,178.92Z" fill="#ad6741"/><path d="M162.21,133a3.3,3.3,0,0,0-3.3,1.83l-1.92,0a34.15,34.15,0,0,0-8.92-18.93l2.34-2.61,0-.05a3.74,3.74,0,0,0,2.53-1.32c1.28-1.42,1.46-3.4.41-4.42s-2.92-.7-4.2.71a3.81,3.81,0,0,0-1,3.51l-2,2.27a30,30,0,0,0-18-7.95L128,104a3.86,3.86,0,0,0,1.11-3.17c-.1-2-1.29-3.67-2.66-3.71s-2.39,1.56-2.3,3.58a4.57,4.57,0,0,0,1.33,3.15l.1,2.15a26.25,26.25,0,0,0-17.5,7.2l-2.32-2.38a4.52,4.52,0,0,0-1.41-3.23c-1.47-1.5-3.45-1.92-4.42-.93s-.6,3,.87,4.54a4.31,4.31,0,0,0,3.17,1.46l2.33,2.39A29.87,29.87,0,0,0,99,134l-2.27,0a4.34,4.34,0,0,0-3.33-1.45c-2.12,0-3.84,1.19-3.84,2.73s1.74,2.84,3.87,2.87a4.2,4.2,0,0,0,3.28-1.31l2.33,0a34.19,34.19,0,0,0,8.14,20.35l-1.11,1.23a4,4,0,0,0-3.72,1.49c-1.52,1.68-1.87,4-.79,5.18s3.21.76,4.73-.93A5.23,5.23,0,0,0,107.7,161l1.5-1.69a30,30,0,0,0,19.39,8.79l.13,2.66a5.07,5.07,0,0,0-1.17,3.78c.12,2.45,1.44,4.45,3,4.45s2.63-2,2.5-4.45a5.64,5.64,0,0,0-1.54-3.78l-.13-2.65a26.19,26.19,0,0,0,18.24-8.55l2.09,2.15a5.63,5.63,0,0,0,1.69,3.63c1.63,1.69,3.73,2.12,4.66,1s.37-3.44-1.26-5.11a4.55,4.55,0,0,0-3.36-1.57l-2.09-2.14a30.58,30.58,0,0,0,5.93-19.86l2.78,0a4.75,4.75,0,0,0,2.71.86c2,0,3.57-1.18,3.42-2.69S164.23,133,162.21,133Zm-8.2,1.76-19.34-.28a7.77,7.77,0,0,0-1.08-2.44l12.58-14A30.65,30.65,0,0,1,154,134.76Zm-9.77-18.68-12.6,14a6.73,6.73,0,0,0-2.32-1l-1-20A26.8,26.8,0,0,1,144.24,116.08ZM125.75,109l1,20a6,6,0,0,0-2.22,1l-14.21-14.56A23.49,23.49,0,0,1,125.75,109Zm-17.26,8.27,14.23,14.65a6.92,6.92,0,0,0-.85,2.41L102.13,134A26.76,26.76,0,0,1,108.49,117.23Zm-6.32,19.61,19.82.27a7.67,7.67,0,0,0,1.06,2.47L109.4,154.73A30.7,30.7,0,0,1,102.17,136.84Zm9.21,20L125,141.62a6.89,6.89,0,0,0,2.36,1.06l1,21.88A26.83,26.83,0,0,1,111.38,156.85Zm19.77,7.72L130,142.71a5.8,5.8,0,0,0,2.25-1l14.95,15.38A23.43,23.43,0,0,1,131.15,164.57ZM148.94,155,134,139.72a6.82,6.82,0,0,0,.81-2.44l19.41.26A27.36,27.36,0,0,1,148.94,155Z" fill="url(#linear-gradient)"/><path d="M39.65,48.09a53.91,53.91,0,0,1,5.74-10.15,54.5,54.5,0,0,1,7.9-8.79c14.65-7.06,22.61-7.35,26.46-3.94,6.25,5.51-1.36,18,5.37,25.27,8.44,9.16,29.48-.64,32.49,5.36,1,1.89.35,5.81-9.18,15.07l-5.65,1.43c7.27-7.37,7.82-10.81,7-12.6C107,54,88.37,62.63,79.71,54c-7.44-7.41-.65-20.61-6.11-24.44C70.23,27.21,62,28.76,39.65,48.09Z" fill="url(#radial-gradient)"/><path d="M156.6,142.38a156.12,156.12,0,0,0-49-1c-37.69,5.26-64.1,23.22-76.78,33.26a202.37,202.37,0,0,0,63,80.42A108,108,0,0,0,118.37,237c19.49-19.18,26.58-41.08,31.07-55.54A166.69,166.69,0,0,0,156.6,142.38Z" fill="#e18254"/><path d="M37.84,188l-.59-.9a177.57,177.57,0,0,1,116.19-28.09l-.11,1.07A176.54,176.54,0,0,0,37.84,188Z" fill="#d37d4f"/><path d="M78.11,182.27A177.67,177.67,0,0,0,42.5,197.84c.16.32.33.64.5,1a176,176,0,0,1,106.57-22.48l.11-1.07A178.24,178.24,0,0,0,78.11,182.27Z" fill="#d37d4f"/><path d="M72.73,198.51c-5.58,1.73-10.05,3.45-12.49,4.42-4.2,1.66-8,3.34-11.21,4.9a5.47,5.47,0,0,1,.46.71,2.33,2.33,0,0,1,.19.39,166.53,166.53,0,0,1,23.37-9.39,173.5,173.5,0,0,1,23.69-5.61,178.64,178.64,0,0,1,47.44-1.37l.12-1.07A178,178,0,0,0,72.73,198.51Z" fill="#d37d4f"/><path d="M64.76,213c-3,.92-5.85,1.93-5.85,1.93-1.54.54-2.83,1-3.8,1.38a5.36,5.36,0,0,0,.45.63l.23.27c2.3-.86,5.47-2,9.29-3.18a199.58,199.58,0,0,1,23.19-5.53,178.59,178.59,0,0,1,47.94-1.45l.11-1.07A178,178,0,0,0,64.76,213Z" fill="#d37d4f"/><path d="M142.26,140.47A151.38,151.38,0,0,1,140,159.4,153.77,153.77,0,0,1,132.89,185a179.56,179.56,0,0,1-13.56,27.78c-8.41,14.17-19.24,26.38-31.46,37.23q3,2.47,5.85,4.63a107.43,107.43,0,0,0,24.65-18.11c19.47-19.16,26.56-41,31.07-55.54a167.31,167.31,0,0,0,7.16-38.59l-4.81-.7Q146.95,141,142.26,140.47Z" fill="url(#linear-gradient-2)"/><path d="M166.15,149.68c-4.82,21.7-15.12,52.85-38.76,82.83a197.24,197.24,0,0,1-20.84,22.55,129.48,129.48,0,0,0,23.86-16.38c23.46-20.34,34.15-44.58,39-58.79a11,11,0,0,0,5.84-5.49,10.84,10.84,0,0,0,.7-6.87,27.5,27.5,0,0,0-9.81-17.85Z" fill="#e1ae93"/><path d="M175.26,174.4a35.51,35.51,0,0,0-9.86-20.7l.75-4A27.5,27.5,0,0,1,176,167.53C175.73,169.82,175.49,172.11,175.26,174.4Z" fill="#e1a98d"/><path d="M152.6,141.71v-6.37l9.53-1.25a152.81,152.81,0,0,1-13.09,61A154.11,154.11,0,0,1,97.87,257.5l-4.15-2.44a160.93,160.93,0,0,0,47.83-58.27,159.64,159.64,0,0,0,15-54.41Z" fill="#8c5e45"/><path d="M168.16,137.1l-6-3a152.9,152.9,0,0,1-13.83,62.62A153.8,153.8,0,0,1,97.87,257.5a3.21,3.21,0,0,0,2,1.31,3.29,3.29,0,0,0,2.64-.73,166.93,166.93,0,0,0,45.79-53.2A166.74,166.74,0,0,0,168.16,137.1Z" fill="#c68161"/><path d="M156.6,146.91a170.51,170.51,0,0,0-49.3.25,173.63,173.63,0,0,0-75,30.86c-.5-1.12-1-2.25-1.51-3.38,13.38-10.5,41.5-29.4,81.22-33.81a155.07,155.07,0,0,1,44.61,1.55Z" fill="#ad6741"/><path d="M155.89,222.5a13.34,13.34,0,0,0,5.25,9.27,12.67,12.67,0,0,0,11.65,1.5c6.5-2.5,9.28-10.56,8.07-16.92-1-5.16-5-11.16-10.43-11.8C162.61,203.64,155,214,155.89,222.5Z" fill="#0c5fa3"/><path d="M35,183.72c36.84-5.27,50.46.93,55.3,8.87C99.13,207.09,84,233.9,91,239c5.09,3.75,14.61-1.43,15.66-2,14.27-7.76,9.42-23.14,23.24-37.31,9.23-9.47,24-15.53,37.54-12.61,2.5.53,15.84,3.41,19.91,14.25,3.77,10.06-1.71,23.64-14.54,31.92,4.72-4.31,6.43-10.62,4.4-15.66-2.81-7-11.75-8.85-17.5-7.3-9.35,2.53-12.68,14.72-12.77,22-.22,16.45,15.79,26.28,16.94,27-10.71,4.89-28.23,10.69-48.7,7.58C77.89,261.19,46.44,228.36,35,183.72Z" fill="#0d69b5"/><path d="M152.47,262.94c-12.08-7.2-19.23-20.12-18.35-33.41.1-1.56,1.5-18.31,16.1-27a33.77,33.77,0,0,1,20.59-4.38c1.33.26,9.22,1.93,12.88,9a15.88,15.88,0,0,1,1.76,7.29c.05,11-11.51,18.15-12.66,18.85,4.56-4.65,6.37-10.85,4.4-15.66-3-7.43-13.83-9-20.31-6.16-9.44,4.16-10.57,18.09-9.16,26.07,2.42,13.72,14.19,20.65,16.14,21.76Z" fill="#0f79d1"/><path d="M148.69,238c-1.58-8.61-.17-23,9.24-26.82,6.14-2.5,16.33-.75,19.3,6.55,2,4.9.26,11.17-4.4,15.66a15.61,15.61,0,0,0,3.76-1.82,16.92,16.92,0,0,0,6.34-8.17,8.18,8.18,0,0,0,.67-5.36c-.54-2.13-1.77-2.38-4-6-1.71-2.8-1.52-3.57-2.65-4.17-1.92-1-3.39.69-6.38.77-4.51.13-4.88-3.63-9.57-4.07-5.45-.51-10.25,4.11-10.85,4.68a12.3,12.3,0,0,0-2.08,2.39,61.22,61.22,0,0,1-3.47,6.55,28.73,28.73,0,0,0-4.79,12.55c-.41,3.94,1.79,3.61,2.87,10.57.63,4.13.14,5.22,1.31,7.51,1.44,2.83,3.82,4.34,6.17,5.84,2.85,1.82,5.21,2.47,9.29,5.61l.49.38,3.94-1.26C161.59,257.92,151.08,251,148.69,238Z" fill="url(#radial-gradient-2)"/><path d="M58.9,144.58c.17.54,1.65,5.38-1.42,9.32a9,9,0,0,1-5.56,3.43c-3.46.57-7.6-.93-8-2.84C43.63,152.77,46.24,149.85,58.9,144.58Z" fill="#ffbeaa"/><path d="M158.41,241.37c-.37-1.18,1-3.07,2.67-3a2.69,2.69,0,0,1,2.55,2.9c-.32,1.27-2.33,1.75-3.69,1.33C159.69,242.5,158.66,242.19,158.41,241.37Z" fill="#0d69b5"/><path d="M141.22,260.61a1.25,1.25,0,0,1-1.26-1.32,1.22,1.22,0,0,1,1.4-1c.56.2.7,1.12.46,1.71C141.78,260.07,141.6,260.53,141.22,260.61Z" fill="#0d69b5"/><path d="M267.39,83.2c-12.34,3.23-24.17,8.11-36.65,10.9-12.22,2.74-25,3.63-37.2.31a137.54,137.54,0,0,1-32.17-13.84A181.78,181.78,0,0,1,132.32,59.9c-8-7-14.82-15.07-22.38-22.46C102.87,30.52,95.18,24,86.18,19.71a49.74,49.74,0,0,0-6-2.37c-12.49,13.77-18.94,30-23.7,41.27-15.22,36.21-10.17,68.46-8.37,80.47a165.7,165.7,0,0,0,6.63,27.31c5.2,16.4,15.08,46.34,41.82,71.21,6.33,5.89,12.69,11.83,23.06,16.6,5.85,2.69,21,9.42,39.82,6.06,19.54-3.49,31.78-16,36.53-21,20-21.08,11.63-36.39,32.92-56.21,5.56-5.17,20.7-17.71,20.7-17.71-2.65,10.8,8.72-22.57,4.86-33-3.62-9.75-9.44-12-8.13-16.81,1.87-6.87,16.17-10.5,27.59-9,15.78,2,28.71,15.77,34.79,22,7.66,7.8,7.24,10.42,12.09,13.08a30,30,0,0,0,10.06,3.32q-.61-8.18-1.15-16.35C328.86,114.72,276.94,80.69,267.39,83.2Z" fill="url(#radial-gradient-3)"/><path d="M35,183.72c8.73-1.17,22.43-1.42,35.23,5.95,3.86,2.22,12.3,7.09,12,12.92-.37,6.43-11.28,6.65-13.65,14.89-2.76,9.56,5.6,24.33,16.18,25.34a15.28,15.28,0,0,0,9.4-2.56,7.46,7.46,0,0,1-4.36-2.48c-3.7-4.7,2.31-12.52,3.74-23.65a40.25,40.25,0,0,0-3.21-21.54c-.59-1.28-4.3-9.06-11.07-13.71C68.07,171.22,50.34,173.2,35,183.72Z" fill="#0f79d1"/><path d="M109.84,175.41c2.63,1.77,5.18,5.81,3.6,8.53-1.21,2.08-4.63,3-6.54,1.87-1.69-1-1-2.91-2.72-5.1-2.67-3.38-7.33-2.58-7.39-3.62C96.71,175.72,104.62,171.9,109.84,175.41Z" fill="#0f79d1"/><path d="M102.15,80.14c-.72-3-1.08-4.52-2.14-5.16-2.07-1.26-5.14.38-6.28,1-4.15,2.22-4,5.18-6.72,5.72-3.16.62-4.89-2.91-7.33-1.92-1.92.77-3.06,3.85-2.3,6.13.45,1.34,1.29,1.33,3.55,3.39,2.5,2.26,2.37,3.57,5.92,6,1.72,1.16,3,2,4.8,2,3.57-.09,6-3.86,8.59-4.61a6.82,6.82,0,0,0,2.62-1.34l.31-.29a7.4,7.4,0,0,0,1.88-5.17A8,8,0,0,0,102.15,80.14Z" fill="#ff6a3d"/><path d="M96.1,94.38a12.13,12.13,0,0,1-1.3.57l-.59.21A11.36,11.36,0,0,1,89,95.5c-2.89-.69-4.49-3.47-6.09-6.26-2-3.47-1.6-4.76-3.53-7.08a13.26,13.26,0,0,0-4.58-3.5A5,5,0,0,1,74.08,81a4.73,4.73,0,0,1-.72.89c-.63.63-1.53,1.59-2.76,3.09a44.22,44.22,0,0,1,4.9,2.78c.66.44,1.28.87,1.87,1.31,0,0,0,.15.09.31a13.64,13.64,0,0,0,6.18,7.7,14.39,14.39,0,0,0,8.09,1.45c2.72-.1,4.71-.78,8.63-2.28a7.51,7.51,0,0,0,2.93-1.62c1.51-1.5,1.71-3.62,1.88-5.18a14,14,0,0,0-.14-4,4.6,4.6,0,0,1-1.52,3,3.83,3.83,0,0,1-1.07.65,9.43,9.43,0,0,1-1.45-.45,9.67,9.67,0,0,1-2.86-1.79l-.43.61a8,8,0,0,0,1.33,2,7.84,7.84,0,0,0,2.32,1.71,5.77,5.77,0,0,0-3.27,1.5A8.58,8.58,0,0,1,96.1,94.38Z" fill="#f25a2c"/><path d="M98.14,79.69a24.75,24.75,0,0,0,7-.86c3-.84,3.61-1.66,3.87-2.18a4,4,0,0,0-.28-3.58,3,3,0,0,0-1.61-1.52c-1.25-.38-2.9.49-3.92,2.22.24,1.1.47,2.2.71,3.3l-5.87,1.59" fill="#ffae00"/><path d="M98.14,79.69a5,5,0,0,0-1,.54c-.81.59-1,1.13-1.19,1.06s-.09-1.3.71-2a2.43,2.43,0,0,1,1.39-.6c.47-.07.83.19.85.42S98.65,79.68,98.14,79.69Z" fill="#ffae00"/><rect x="103.16" y="75.33" width="6.57" height="1.05" rx="0.34" transform="translate(-15.39 28.51) rotate(-14.24)" fill="#f7d893"/><path d="M61,96.31c2.51-1.13,9.61,7.5,11.52,9.24,2.25,2,4.8,5.73,5.68,13A87.56,87.56,0,0,1,80,103.44c1.88-9,4.27-13.34,2-15.76-1.34-1.45-4.69-1.33-11.35-1-3.72.17-6.77.52-8.82.79-.07,1.33-.17,2.72-.31,4.14C61.44,93.22,61.25,94.8,61,96.31Z" fill="#3b5a7d"/><path d="M61.9,87.44a78.68,78.68,0,0,1-.62,8.31c-.05.37-.09.73-.15,1.08a32.2,32.2,0,0,1,6,3.54,33,33,0,0,1,5.44,5.18A33.74,33.74,0,0,1,79.3,119.7c0-2.66,0-5.42.17-8.28.08-1.56.17-3.08.29-4.57a31,31,0,0,0-7.28-6.42c-3-1.88-4.58-2.15-6.47-4C64.35,94.91,62.55,92.25,61.9,87.44Z" fill="#31557d"/><rect x="102.92" y="73.45" width="6.57" height="1.05" rx="0.34" transform="translate(-14.93 28.39) rotate(-14.24)" fill="#f7d893"/><rect x="102.45" y="71.61" width="6.57" height="1.05" rx="0.34" transform="translate(-14.49 28.22) rotate(-14.24)" fill="#f7d893"/><path d="M40.1,150a24.09,24.09,0,0,0,10.77-6.16,23.15,23.15,0,0,0,5.52-8.72L61.18,142a12.3,12.3,0,0,1-3.61,8.26,12.47,12.47,0,0,1-8.18,3.58A12.67,12.67,0,0,1,40.1,150Z" fill="#304965"/><path d="M171.34,351.72H297l9.63-199.85a8.58,8.58,0,0,1-4.67-4.69,8.76,8.76,0,0,1,2.51-9.37c-.58.39-5.37,3.44-10.65,1.5-5.85-2.15-9-9.23-7.24-13.07,2.42-5.35,13.81-3.31,14.6-6.79.36-1.61-1.55-4.28-10.64-9-1.29-2.29-12.8-22.14-34-24.06C240.87,85,228.47,94.19,226.09,96c-10.69,7.94-10.19,14.74-18.25,18.89-6.47,3.34-17.33,4.39-36.5-6.11Z" fill="url(#radial-gradient-4)"/><path d="M186.7,344.2c2.13-2.47,5.57-1.31,10.18-3a19.08,19.08,0,0,0,8.51-6.61,14.84,14.84,0,0,0,15.78.35,1.68,1.68,0,0,1,.27.09c1.44.61,1.67,3.4,1.82,5.42.26,3.52.47,6.63.64,9.59-6.1,0-36,1.56-38.29,1.34C185.19,349.14,185,346.15,186.7,344.2Z" fill="#c7cdd3"/><path d="M224.06,352.27q-9.42.25-19.33.23-10.18,0-19.84-.36l.32-4.49A167.19,167.19,0,0,0,204,349a164.1,164.1,0,0,0,19.92-1Z" fill="#88aed3"/><path d="M205,334.57a16.31,16.31,0,0,0,16.45.45,78.92,78.92,0,0,0-1.13-27s-4-52.75,3.09-81.56l-24-12.73c-9.3,6.72-3.1,66-.43,87A342.69,342.69,0,0,0,205,334.57Z" fill="#322947"/><path d="M260.51,127.36a6.1,6.1,0,0,0-3.47,1.69,24.26,24.26,0,0,1,0-6.7,37.36,37.36,0,0,0,.6-3.73l9.68-4.5a7.72,7.72,0,0,0-.85-5.17c-1.36-2.27-3.71-3-5.63-3.51a14.21,14.21,0,0,0-6-.4c-2.15-3.42-6.06-4.72-9.06-3.4s-3.8,4.53-3.92,5a5.26,5.26,0,0,0-3.58-1.59c-2.92,0-5.31,3.18-5.64,6.06a7.58,7.58,0,0,0,5.19,7.72,26.66,26.66,0,0,0-1.85,5.56c-1.17,6.62-2.2,12.46,1.16,15.25,4.25,3.53,12.56-.25,13.11-.53a17.92,17.92,0,0,0,2.12-1.32,15.89,15.89,0,0,0,3.19-3.16l.31-.41a8.36,8.36,0,0,0,4.55-1.69c1.77-1.41,3.15-3.91,2.38-4.83C262.34,127.15,261.27,127.27,260.51,127.36Zm-21.67-10.59c-.24.45-.47.88-.67,1.3A5.38,5.38,0,0,1,238.84,116.77Z" fill="#f7f7f7"/><path d="M255.94,136.31c.65-.2,8.26-2.64,9.63-9a9.67,9.67,0,0,0,0-3.87c-.89-1.28-1.69-1.69-2.37-1.7C260,121.71,257.34,130.66,255.94,136.31Z" fill="#423633"/><path d="M233,347.36l4.42,3.09a9.45,9.45,0,0,0,2.32,1.58,6.13,6.13,0,0,0,3.77,0c6.27-1.79,18.19.22,19-3,.19-.73-.35-1.48-1.45-3-1.66-2.25-3.24-2.71-6.18-5.17a33,33,0,0,1-2.78-2.61l-.9-.86-.9-.86a3.48,3.48,0,0,0-1-2.12,3.85,3.85,0,0,0-3.53-.71L233.87,335a10.9,10.9,0,0,1,.07,2.4,10.7,10.7,0,0,1-.61,2.79C232.91,341.48,232.57,343.59,233,347.36Z" fill="#c7cdd3"/><path d="M216.27,142.45a69,69,0,0,1-17.66-3.55,108.41,108.41,0,0,1-13.49-11.54,109.08,109.08,0,0,1-11-13l-.17.07c.44-1.54.89-3.08,1.33-4.61l3.06-4.24a.89.89,0,0,0-.19-.4,1.09,1.09,0,0,0-1-.27,5.85,5.85,0,0,0-1.3.68,6.33,6.33,0,0,0-2.14,2.64c-.11-1.8-.22-3.6-.32-5.4l1.15-5.26-1-5.55s-.3-.43-.66-.43a1.11,1.11,0,0,0-.86,1.22l.33,4.41-1.12,4.51.33-5.35-1.14-6.45a1.13,1.13,0,0,0-1.06-.2,1.17,1.17,0,0,0-.7,1.21l.75,4.86a17.34,17.34,0,0,0-.32,2.14,17.9,17.9,0,0,0,.05,3.56l-.69-5.41-1.22-4.66a1.43,1.43,0,0,0-.74.36,2.05,2.05,0,0,0-.52,1.77l.63,3.29a18,18,0,0,0,.6,5.23c-.13.15-.26.3-.38.46L163,96.23a1,1,0,0,0-.88,0,1.1,1.1,0,0,0-.38,1.35l3.7,6.76a24.18,24.18,0,0,0,.16,5.91A23.92,23.92,0,0,0,167.7,117h0a160.4,160.4,0,0,0,9.15,17.2,159,159,0,0,0,15.24,20.86,37,37,0,0,0,28,3.42l17.85-18A70,70,0,0,1,216.27,142.45Z" fill="#f7f7f7"/><path d="M175.3,113.05A110,110,0,0,0,200,137.13,71,71,0,0,0,239.31,139l-17.69,17.38a38,38,0,0,1-28-3.56,158.55,158.55,0,0,1-15.4-20.42,159.65,159.65,0,0,1-9.28-16.81Z" fill="#c6a195"/><path d="M248.91,217.8c-1.71,10,.76,63.21,1.54,72.43,1.12,13.28-1.38,18.75-.73,29.81a38.42,38.42,0,0,0,.63,6c1.39,6.92,4.22,9.32,3,11.56-.39.73-1.32,1.63-7.9,2.31a80.55,80.55,0,0,1-12.13.34,5.16,5.16,0,0,1-2.05-1.55c-1.91-2.5-.69-6.38-.44-7.26,3-10.63-.39-22.12.21-33.16.54-9.88-1.44-27.95-13.15-64l-10.19-13-6.18-10.62,43.39.39Z" fill="#2a223c"/><path d="M196.77,217.14a51.3,51.3,0,0,1,1.82-5.57,52.5,52.5,0,0,1,2.87-6.15c2.85-5.24,6-13.44,8-18.8A172.57,172.57,0,0,0,217,160.89a11.67,11.67,0,0,1,.5-4.88,12.39,12.39,0,0,1,2.71-4.42c2.61-2.89,8.65-7.48,17-12.46a11.77,11.77,0,0,1,2.06-.13,12.14,12.14,0,0,1,4,.81,3.13,3.13,0,0,0-1,2.28c.14,1.64,2.16,2.57,3.18,3,4.81,2.21,11.31-1,13.14-2l12.22,10.28a234.46,234.46,0,0,0-17.73,54.77c-1.34,7-2.29,13.72-2.93,20.11a70,70,0,0,1-53.46-11.14Z" fill="#eaeff7"/><path d="M220.49,175c1.92-2.56,1.7-5.32,1.87-8.32.65-11.83,6.81-18.17,5.5-19-1.92-1.24-15,12.21-12.45,16.38a2,2,0,0,0,.66.66q-2,7.26-3.92,14.52C214.9,178.77,218.39,177.77,220.49,175Z" fill="#cfdef7"/><path d="M203.79,138.3a43,43,0,0,1,.6,10.58,42,42,0,0,1-1.82,9.79l13.5,6A85.77,85.77,0,0,1,239.31,139,78.69,78.69,0,0,0,228.19,138c-3.74-.08-5.93.13-10.2.29C214.69,138.37,209.83,138.47,203.79,138.3Z" fill="#eaeff7"/><path d="M247.17,135.94c-.5.48-1.22,1.19-2,2.11a37.69,37.69,0,0,0-6.31,10c-3.86,8.5-5.8,12.75-7.18,16.46-2,5.51-4.54,12.73-7,21.4L223,184.56a200,200,0,0,1,8.61-24.22A175.66,175.66,0,0,1,241.83,140c.75-1.26,1.39-2.3,1.84-3a2.48,2.48,0,0,1,1.65-1.43A2.43,2.43,0,0,1,247.17,135.94Z" fill="#2a223c"/><path d="M258.67,143.12a7.5,7.5,0,0,1-2-3.06,8.47,8.47,0,0,1,1-7c-.49-.55-3.93-4.26-7.38-3.42-2.52.61-3.94,3.05-5.15,5.18a16.59,16.59,0,0,0-1.86,5,6.35,6.35,0,0,0-1,2.28,5.18,5.18,0,0,0,.09,2.83c.78,1.88,3.6,2.3,4.71,2.46C252.47,148.16,257.17,144.42,258.67,143.12Z" fill="#b7958a"/><path d="M162.84,96.62l3.74,6.6a23.38,23.38,0,0,0,.22,5.76,23.14,23.14,0,0,0,2.14,6.61,5.74,5.74,0,0,0,2.59.07,6,6,0,0,0,3.53-2.3l1.36-4.72,3-4.09a1,1,0,0,0-.2-.4,1.16,1.16,0,0,0-1-.27,6.49,6.49,0,0,0-1.29.65,6.14,6.14,0,0,0-2.12,2.55l-.36-5.25,1.1-5.11-1.05-5.41a1,1,0,0,0-.67-.42,1.05,1.05,0,0,0-.84,1.18c.12,1.43.25,2.86.37,4.29l-1.08,4.38.28-5.21-1.2-6.28a1.18,1.18,0,0,0-1.05-.2,1.12,1.12,0,0,0-.7,1.17c.27,1.58.53,3.16.8,4.74a18.41,18.41,0,0,0-.31,2.08,17.43,17.43,0,0,0,.08,3.46c-.24-1.75-.48-3.51-.73-5.27l-1.26-4.55a1.66,1.66,0,0,0-.74.35,1.89,1.89,0,0,0-.49,1.71c.21,1.08.43,2.15.65,3.22a17.22,17.22,0,0,0,.06,2,17.78,17.78,0,0,0,.57,3.1l-.37.44-3.83-6.16a1,1,0,0,0-.88,0A1,1,0,0,0,162.84,96.62Z" fill="#c6a195"/><path d="M239.29,139.06C236,136.4,237,130.89,238,124.65a26.33,26.33,0,0,1,4.81-10.34,3,3,0,0,1,1.87-1.43c2.2-.28,3.22,3.5,7,4.81,3.3,1.13,5.72-.61,6.9.75.75.86.15,2-.2,4.47a22.36,22.36,0,0,0,.05,6.33,5.71,5.71,0,0,1,3.35-1.57c.73-.07,1.77-.18,2.2.32.76.88-.56,3.23-2.26,4.54a8.17,8.17,0,0,1-4.4,1.56l-.3.39a14.92,14.92,0,0,1-3.06,3,16.19,16.19,0,0,1-2,1.23C251.46,138.92,243.44,142.42,239.29,139.06Z" fill="#c6a195"/><path d="M258.16,119.78a6.06,6.06,0,0,0-2.47-1.44c-2-.57-2.71.42-4.92.15-2.48-.3-2.39-2.21-5-2.66a5.35,5.35,0,0,0-4.37,1,4.73,4.73,0,0,0-1.45,2.64c-3.45-1.19-5.56-4.35-5.22-7.38.3-2.72,2.59-5.67,5.42-5.68a5.26,5.26,0,0,1,3.48,1.53,7.17,7.17,0,0,1,3.77-4.67c2.89-1.22,6.69,0,8.8,3.28A14.4,14.4,0,0,1,262,107c1.88.55,4.16,1.21,5.5,3.36a7.21,7.21,0,0,1,.86,4.89Z" fill="#423633"/><polygon points="230.98 203.16 211.36 197.49 214.3 184.96 233.93 190.63 230.98 203.16" fill="#31383d"/><path d="M233.42,192.85l-12.53-3.79-7-2.09.44-2,15,4.49Z" fill="#3b434a"/><path d="M232.5,190.22,214.3,185l4-1.59,18,5.6Z" fill="#2a223c"/><polygon points="230.98 203.16 235.11 200.25 237.9 190.61 233.93 190.63 230.98 203.16" fill="#2a223c"/><path d="M256.66,140.06a25.84,25.84,0,0,1,.22,2.93c.08,4.74-1.17,8.3-2.68,12.28-2.47,6.54-3.71,9.81-5.09,12.62a150.49,150.49,0,0,1-15.69,25l1.68,1.22a177.74,177.74,0,0,0,16.56-27.81c4.44-9.58,5.85-16,6.49-19.64.26-1.45.42-2.66.52-3.5a2.47,2.47,0,0,0-.35-2.15A2.4,2.4,0,0,0,256.66,140.06Z" fill="#2a223c"/><path d="M257.68,119.55a6.39,6.39,0,0,0-.64,4.66,2,2,0,0,0,.14.42c.2.51.38.89.41,1,.48,1,.14,3.23.53,3.34s.55-1.27,1.61-1.92,3-.28,4.49.32a11.25,11.25,0,0,0,3.58-3.53c.35-.55,3-4.85,1.17-7.62a3.81,3.81,0,0,0-1-1.05Z" fill="#423633"/><path d="M225,199.8l-8.66,3.31-3.83-11.36,8.41-2.69a7.34,7.34,0,0,1,4.51,3.66A7.68,7.68,0,0,1,225,199.8Z" fill="#252a2e"/><path d="M222.47,175.36a14.59,14.59,0,0,1-5.67-8.09c-.72-2.33-2.35-5.72-6.38-10.2a.94.94,0,0,0-.81,1.31c-.14,0-.72.15-.89.58-.11.27,0,.57.33,1.14A9.65,9.65,0,0,0,210.6,162a1.15,1.15,0,1,0-1.66,1.47l2.09,2.76,1.8,4.18-3.61-1a1.15,1.15,0,0,0-1.49.38,1.17,1.17,0,0,0,.94,1.41l1.78.92c1.51.81,2.26,1.21,2.52,1.4,1.77,1.27,1.19,3.34,2.32,5.45.66,1.21,2,2.7,5.21,3.7a34.27,34.27,0,0,0,7.49,8.68c4.55,3.73,8.25,4.68,17.75,10.88,1.24.8,2.25,1.48,2.92,1.94a11.29,11.29,0,0,0,3.56-.64,12.34,12.34,0,0,0,6.2-5c14.48-19,19.91-35.76,14.2-41.94-1.28-1.38-4.18-3.39-11.36-2.63q-5.47,16.78-11,33.56a64.41,64.41,0,0,1-27.83-12.14Z" fill="#c6a195"/><ellipse cx="214.42" cy="197.42" rx="4.1" ry="6" transform="translate(-52.14 79.54) rotate(-18.78)" fill="#3b434a"/><ellipse cx="214.22" cy="197.31" rx="3.11" ry="4.55" transform="translate(-52.12 79.47) rotate(-18.78)" fill="#455d70"/><ellipse cx="214.19" cy="197.25" rx="2.21" ry="3.24" transform="translate(-52.1 79.46) rotate(-18.78)" fill="#322947"/><path d="M262.5,349c-1,.06-2.38.14-4.07.22a125.84,125.84,0,0,1-13.23.14,62.56,62.56,0,0,1-12.23-2,13.28,13.28,0,0,0,.11,2.19,12.64,12.64,0,0,0,.62,2.59,149.71,149.71,0,0,0,16.57.7c4.47-.06,8.67-.32,12.56-.7,0-.42-.07-.84-.11-1.26C262.66,350.24,262.58,349.61,262.5,349Z" fill="#88aed3"/><path d="M232.71,154.26c-.14,1.47-.27,3-.41,4.43h0l1.75,0,2.86-3.24,6-14.61-2.29-.94Z" fill="#2a223c"/><path d="M249.82,162.21c.06,1.26.11,2.53.17,3.79l1.29,1.08,3-3a76.56,76.56,0,0,0,4.16-15.06c.34-2,.58-3.89.75-5.72l-2.33-.34Q253.36,152.61,249.82,162.21Z" fill="#2a223c"/><path d="M262.12,146.84c-1.56,3.94-3.08,8.09-4.52,12.46a223.72,223.72,0,0,0-6.7,25.16L266,193.7a116.45,116.45,0,0,0,5.95-14c3.52-10.12,5.17-15.75,2.84-21.26a15.75,15.75,0,0,0-4.89-6.21Z" fill="#eaeff7"/><path d="M130.45,255.72l4.5-.7" fill="#0d69b5"/></svg>