<svg id="Layer_1" data-name="Layer 1" xmlns="http://www.w3.org/2000/svg" xmlns:xlink="http://www.w3.org/1999/xlink" viewBox="0 0 352.58 315.67"><defs><linearGradient id="linear-gradient" x1="181.41" y1="157.6" x2="181.41" y2="26.66" gradientUnits="userSpaceOnUse"><stop offset="0.19" stop-color="#d1d1b0"/><stop offset="0.59" stop-color="#f4f4ce"/></linearGradient><linearGradient id="linear-gradient-2" x1="84.13" y1="174.13" x2="107.18" y2="230.71" gradientUnits="userSpaceOnUse"><stop offset="0.42" stop-color="#edfff3"/><stop offset="1" stop-color="#d0efdd"/></linearGradient></defs><path d="M.41,121.05c5,34.64,58.73,48.42,54.52,65.31-2.26,9-19.28,4.66-32.15,18.53C6.9,222,5.77,257.5,21.21,271.39c14.34,12.9,34.22-.65,60.59,13.16a66,66,0,0,1,24.64,21.26,58.83,58.83,0,0,1,3.7,6.21l133.21-31.13c64.08-16.8,108.35-66.75,109.23-116.44,0,0,1-68.93-86.94-121-3.66-2.17-6.54-3.74-8.34-4.72C248.54,33.9,187.16.39,158,17.26c-28.46,16.47-1,66.32-27.6,79.17-28.2,13.66-76.29-34.25-109.59-19C5.31,84.47-1.86,105.47.41,121.05Z" fill="#7eeaaa"/><path d="M258.07,90.73c12.45,8.53,18.91,25.17,16,34.67a13,13,0,0,0-1,6.46c1.14,7.25,9.49,8.57,9.64,12.78.24,6.64-21.2,7.91-22.57,18.13-1.07,8,8.81,14.32,6.51,19.93-1.65,4.06-9.88,3.22-13.09,3-2.07-.17-14.26-1.13-17.77-8.63-3.83-8.2,6.31-16.52,2.55-21.81-4-5.61-17.47.85-21.83-5.69-2.31-3.46-.58-8.32-.34-9,.11-.29,2.42-6.36,7.61-6.93a6.71,6.71,0,0,1,5.07,1.32c2.37,2.11.95,5.14,2.81,6.58,2.08,1.61,6.89.18,9.41-2.67,3.76-4.23,2.79-11.95-.79-16.45-4.82-6.06-14.64-6.59-21.3-4-8.58,3.34-9.78,11.12-15.38,11.24-3,.06-7.2-2.07-12.36-12.1.95-2.7,7.4-20,26.65-28.1C222.16,87.65,241.54,79.41,258.07,90.73Z" fill="#bbffd1"/><path d="M234.6,111.41c1.72.94,12.23,6.89,13.79,17.48.26,1.75,1,6.67-1.87,11a9.8,9.8,0,0,1-5.37,4.2c-4.9,1.4-9.1-2.21-9.48-2.55a9.93,9.93,0,0,0,6.09-1.24c4.32-2.61,5.09-8.35,4.5-12-1.18-7.35-8.44-10.43-8.92-10.62Z" fill="#a3ffc1"/><path d="M211,44.28c8-10.64,25.31-12.88,31.42-7,5,4.73,1.71,13.89,6.69,16.08,4,1.77,8.63-3.22,11.29-1,1.87,1.53,1.63,5.69-.09,8.25-2.61,3.88-8.77-.78-13.23,3.22-4.14,3.72-1.24,9.63-5.85,12.81-2.77,1.92-7.32,2.08-9.31-.13a5.06,5.06,0,0,1-.81-5.32c.5-.94,1.07-.89,2-2a7,7,0,0,0,1.9-5c-.47-3.23-6-6.29-9.63-4.7-4,1.77-5.27,8-4.78,12.15.68,5.61,4.61,7.44,4,10.8-.34,1.79-2,4-7.9,5.66A30.29,30.29,0,0,1,205.25,68.1C205.11,67.14,203.46,54.29,211,44.28Z" fill="#c1a0ff"/><path d="M203.52,69.36l15.36,18c2.29-.91,5.35-2.49,5.69-4.94.5-3.49-5-5-8-10.13-4.92-8.43.08-21.19,5.48-28.34a34.25,34.25,0,0,1,11.8-9.78c-1.26-.07-15.79-.65-25,11.24C200.83,55.78,203.15,67.65,203.52,69.36Z" fill="#b58eff"/><path d="M134.58,123.13c6.34-8.33,13.58-20.85,12.32-35.3-1.65-18.9-16.52-25.71-18.48-42.63-1.16-10.11,2.14-25.05,23.4-45.2l82.09,18.88h0c-15,20-17.24,24.63-17.24,24.63-2.86,5.94-8.38,17.43-5.74,29.55,3.82,17.61,21.23,19.92,23.45,35,.89,6.07-.56,14.88-11.1,26.77Z" fill="url(#linear-gradient)"/><path d="M197.07,138.82c4.89-.5,10-1.15,15.3-2,3.76-.59,7.4-1.25,10.91-1.95,3.32-7.47,2.52-15.36-2-19.86a13.7,13.7,0,0,0-6.91-3.6A34.42,34.42,0,0,0,205,119.3,35.64,35.64,0,0,0,197.07,138.82Z" fill="#cecead"/><path d="M126.62,235.21c8.41-32.9,3.8-54.36-2.78-68.35-5.39-11.46-15.57-25.26-10.41-37.79,2.42-5.89,7.41-9.52,11.43-11.71l89.52-6c-3.75,3.31-8.52,8.57-10.57,16-3.75,13.62,3.83,26.42,6.6,31.79,7.19,14,13,37,4.81,75.83Z" fill="#f4f4ce"/><path d="M155.34,104.59l.25-.23c.6.49.76.48,1,0s.49-1,.86-1.72l-1.79-1.86-1.45.65c-.74.34-.69.53-.1,1.32l-.24.23-1.92-2,.25-.23c.59.48.78.56,1.84.11l6.24-2.56.32.22-3,6.1c-.48,1-.48,1.14,0,1.81l-.24.24Zm3.77-5.28-3,1.3,1.55,1.61Z" fill="#5e6f87"/><path d="M126.07,17.46c1.15.19,2.08.74,2.08,1.91A2.06,2.06,0,0,1,127,21.21a4,4,0,0,1-2.08.47h-3v-.34c1-.09,1.08-.2,1.08-1.15V15.38c0-1-.1-1.08-1.08-1.16v-.34h3.15a3.19,3.19,0,0,1,1.84.42,1.58,1.58,0,0,1,.71,1.35A1.91,1.91,0,0,1,126.07,17.46Zm-1.38-.15c1.32,0,1.86-.52,1.86-1.51s-.52-1.48-1.67-1.48a1.18,1.18,0,0,0-.67.12c-.1.07-.14.2-.14.58v2.29Zm-.62,2.86c0,.86.21,1.08,1.06,1.08A1.69,1.69,0,0,0,127,19.49c0-1.23-.87-1.76-2.33-1.76h-.58Z" fill="#5e6f87"/><path d="M150.35,45.41a15.59,15.59,0,0,1-.66,1.8,10.89,10.89,0,0,1-2.18.29,4,4,0,0,1-4.32-4c0-2.44,1.86-4.12,4.53-4.12a12.35,12.35,0,0,1,2.26.27c.05.54.13,1.25.23,1.85l-.37.09a2.08,2.08,0,0,0-1.14-1.55,3.33,3.33,0,0,0-1.25-.22c-2,0-3,1.46-3,3.43,0,2.3,1.19,3.78,3.13,3.78,1.21,0,1.81-.56,2.42-1.75Z" fill="#5e6f87"/><path d="M112.39,52.89l-.23-.25c.48-.57.45-.7,0-.84s-1.52-.44-2.86-.78c.19,1,.38,2,.58,2.76.14.56.3.59.95.1l.23.25-2,1.91-.23-.24a1.75,1.75,0,0,0,.54-1.47c-.08-.72-.21-1.55-.56-3.42L106,50.17c-.93-.23-1.15-.23-1.85.3l-.23-.24,2.16-2,.23.24c-.48.56-.41.68-.05.78.74.22,1.53.42,2.48.65-.16-.84-.32-1.63-.47-2.25s-.3-.61-.94-.14l-.23-.24,2-1.88.23.25a1.8,1.8,0,0,0-.53,1.8c.11.68.17,1.09.43,2.56,1.16.3,2.29.6,3.3.84s1.3.2,2-.33l.23.24Z" fill="#5e6f87"/><path d="M123.09,99.2a4.72,4.72,0,0,1,3.62-.33,3.42,3.42,0,0,1,1.9,2,3.92,3.92,0,0,1-.19,3.55,5.67,5.67,0,0,1-2.93,2.19l-2.59,1-.12-.31c.91-.47.93-.56.56-1.47l-1.78-4.42c-.38-1-.53-1-1.43-.69l-.13-.31Zm1.18,6.18c.33.83.78.92,1.61.59,2-.8,2.47-2.58,1.69-4.52a3.1,3.1,0,0,0-2.35-2.14,3.77,3.77,0,0,0-2.08.32c-.5.2-.74.37-.81.51s-.07.24.1.68Z" fill="#5e6f87"/><path d="M160.05,70.66c-.87.47-.94.57-.55,1.49l1.87,4.41c.39.93.5.92,1.45.63l.13.31L160,78.75l-.13-.31c.87-.5.95-.55.55-1.48l-.93-2.2-3.76,1.6.93,2.2c.39.91.49.9,1.44.63l.13.31-2.94,1.24-.13-.3c.85-.48.94-.56.54-1.48l-1.86-4.41c-.39-.92-.52-.94-1.45-.65l-.13-.31,2.94-1.24.13.31c-.85.45-.92.57-.54,1.48l.74,1.75,3.77-1.59-.74-1.75c-.39-.91-.54-.94-1.46-.64L157,71.6l2.95-1.25Z" fill="#5e6f87"/><path d="M131.38,77.54c-.07.31-.4,1.54-.51,1.9h-5.81v-.33c1.11-.09,1.19-.19,1.19-1.17V73.22c0-1.07-.13-1.13-1-1.21v-.33h3.65c1.12,0,1.59,0,1.73,0,0,.3.06,1.2.11,1.83l-.36.06a3.31,3.31,0,0,0-.36-.91c-.19-.39-.46-.48-1.18-.48h-1.13c-.37,0-.4,0-.4.39v2.64h1.33c.89,0,.95-.18,1.1-1h.37v2.47h-.37c-.16-.86-.25-1-1.11-1h-1.32V78c0,.84.27.91.86.92h1.11c.73,0,.85-.1,1.11-.41a5.6,5.6,0,0,0,.65-1.1Z" fill="#5e6f87"/><path d="M180.5,95.25a3.84,3.84,0,0,1,3.87,3.94,4,4,0,1,1-7.91.18A4,4,0,0,1,180.5,95.25Zm-.24.44c-1.34,0-2.55,1.12-2.55,3.36s1.21,3.86,2.91,3.86c1.34,0,2.53-1.08,2.53-3.39C183.15,97,181.83,95.69,180.26,95.69Zm.8,6.89a16,16,0,0,0,3.69,2.23l-.08.28a7.94,7.94,0,0,1-1.61-.15,14.7,14.7,0,0,1-3.2-1.94Z" fill="#5e6f87"/><path d="M265.26,116l2,1.08,3.87-.39a1.79,1.79,0,0,0,.91-.62,1.9,1.9,0,0,0,.08-2q-.93-3.8-1.85-7.61l-8.43-3.95-.9,1.42-4.54,1.09-.64,1-1.4,0,.08,1.9,2.35,1.21,3,5.05Z" fill="#ffc1b0"/><polygon points="249.76 93.8 276.76 122.44 277.35 121.5 251.1 93.03 249.76 93.8" fill="#d19f92"/><path d="M269.21,115.19c-1-.46-1.66-.27-2.95-.76a13.22,13.22,0,0,1-1.88-.91,15.81,15.81,0,0,1-.44-2.59,16.22,16.22,0,0,1,.38-5.06,2.29,2.29,0,1,0-4.37,1.36l.18,6.42a13.11,13.11,0,0,0-2.66,5.55,15.81,15.81,0,0,0-.26,2.52c-.1,1.8-.26,4.38-.56,7.66q-.19,6-.38,12l11.13-.12-2.34-13.45q3-5.55,6.05-11.09A5.16,5.16,0,0,0,269.21,115.19Z" fill="#ffc1b0"/><path d="M250.77,94.91a6.33,6.33,0,0,1-4.94-1.38c-2.16-2.07-2.28-6.35.47-9.75-.5,2.8.17,4.15.94,4.87,1.14,1.07,2.62.84,3.71,2.06a4.13,4.13,0,0,1,.82,3.32Z" fill="#eaeff7"/><path d="M251.63,92.06c-.32-.1-.76,1.81-1.52,1.83s-1.17-1.61-1.82-1.5c-.5.08-.5,1.08-1,1.16s-1.19-1.24-1.58-1.1c-.17.07-.21.39-.22.68a4.73,4.73,0,0,0,.37.4,6.33,6.33,0,0,0,4.94,1.38l1-.88a4.36,4.36,0,0,0,0-1C251.79,92.56,251.78,92.1,251.63,92.06Z" fill="#d1e0f7"/><path d="M249.23,89.67a4.33,4.33,0,0,1-2.84-2.78,5.77,5.77,0,0,1-.09-3.39c-.25.2-2.94,2.44-2.58,5.62a5.81,5.81,0,0,0,1.08,2.69,1.35,1.35,0,0,1,0-1.77,1,1,0,0,1,.9-.19c.49.18.38.72.88,1.1s1,.28,2,.17c.76-.08,1.26-.13,1.34-.42S249.73,89.94,249.23,89.67Z" fill="#c1a0ff"/><path d="M76.72,129.58c-2.07,1.46-10.3-3.34-9.72-8.12a4.49,4.49,0,0,1,3.15-3.81c2.88-.54,6.1,3.9,6.88,7.77C77.29,126.68,77.73,128.87,76.72,129.58Z" fill="#2a223c"/><path d="M73.15,148.72A49.2,49.2,0,0,1,55.37,117.5q1.23-18.68,2.47-37.35l2.88-16-2.79-6.88V46.69a1.85,1.85,0,0,0-1.38.34,1.89,1.89,0,0,0-.71,1.58q-.63,3.95-1.27,7.91l-3.26-5.41a1.36,1.36,0,0,0-1.17.09c-.51.41-.51,1.6.36,2.74L53,58.46l-2.27,4.35-3-1.81-1.19-3.45a1.33,1.33,0,0,0-2.61.1L48.44,70.5a10.4,10.4,0,0,1,2.66,3.6c2.91,6.72-3.41,13.46-6.38,24.12a46,46,0,0,0-1.33,17.33,81.9,81.9,0,0,0,14,38.31q1.65,7.39,3.31,14.79Z" fill="#ffa990"/><path d="M74.48,145.37A53.9,53.9,0,0,0,64.3,156.49c-3.3,4.82-5.15,7.09-5.48,10.17s1.63,7.52,5.53,16.48c1.57,3.62,1.2,2.48,2.85,6.25,3.22,7.36,3.5,9.15,5.16,9.84.67.27,3.55,1.21,9.5-4.55l10.2-4.37a19.33,19.33,0,0,0,7.54-8.78,20.12,20.12,0,0,0-.41-15.78l7.11-21.52a21.08,21.08,0,0,1-7.29-.9,20.08,20.08,0,0,1-3.9-1.67Z" fill="#ffa990"/><path d="M75.11,122.78a33.57,33.57,0,0,1,1.37,5.29,26.85,26.85,0,0,1-.67,13.74,23.34,23.34,0,0,1-2.92,5.74L99,143.33a9.37,9.37,0,0,1-6.13-14.5c-3.62-2.76-14.07-10.44-17-7.9A2.54,2.54,0,0,0,75.11,122.78Z" fill="#ffa990"/><path d="M84.65,132.78c-4.44-.77-8.11-5-8.82-10.43l16,8.79A10.38,10.38,0,0,1,84.65,132.78Z" fill="#ff9c80"/><path d="M99,143.33l2,.39a32.9,32.9,0,0,0-5.79,7.14c-2,3.34-4.52,7.54-4.15,12.53.59,7.9,8,12.67,9.22,13.41A38.54,38.54,0,0,0,113.23,206l-32,21.35A207,207,0,0,1,64,196.46a61.44,61.44,0,0,1-4.29-13c-1.27-6.15-1.88-11.09-.84-16.82,2.24-12.25,14.6-19.62,14.07-19.11-1.57,1.53-9,9.07-8.27,19.64a22.15,22.15,0,0,0,2,7.72q3.35-3.58,6.84-7.19C82,158.93,90.56,150.82,99,143.33Z" fill="url(#linear-gradient-2)"/><path d="M84.66,130.84c.54.17,6.83,2,11-1.59a9.72,9.72,0,0,0,2.76-4.37c2.76-7.88,1.4-17.93.66-22.23l-6.33-5a11.88,11.88,0,0,0-4.43-.85c-5.73.08-10.61,5.15-12.66,10a17.32,17.32,0,0,0-1.26,8.06c-3-1.7-4.17-1.65-4.7-1.2-1.64,1.43.52,8.77,4,9.23a3.33,3.33,0,0,0,2.16-.54C76.17,123.2,78.56,129,84.66,130.84Z" fill="#ffa990"/><path d="M74.76,127.56c.13.11,1.06.83,1.72.51s.68-2,.55-2.65a9.83,9.83,0,0,0-.65-1.82c-.21-.53-.41-1-.55-1.25a5,5,0,0,1-1.49,0,3.87,3.87,0,0,1-2.13-.81c-2.29-1.94-2.79-6.31-1.39-7.21,1-.63,2.16,1,3.57.5,2-.71,1.34-4.7,2.74-8.4C79.48,100.22,87,95.8,91.3,97.19a12.82,12.82,0,0,1,2.82,1.55c3.32,2.13,4.68,4.11,4.95,3.91s-1.14-3.4-3.91-6a13.74,13.74,0,0,0-4.7-3.15c-5.43-2-10.65.51-11.85,1.15l-.39.21c-4,2.27-5.92,5.78-7.63,9a18.51,18.51,0,0,0-2.27,6.32,17.68,17.68,0,0,0,.56,7.53A21.88,21.88,0,0,0,74.76,127.56Z" fill="#2a223c"/><path d="M21.21,271.39C25.14,276,31.5,282,40.6,284.45c10.17,2.71,14.61-1.44,24.07.23,15,2.65,17.9,15.54,29.3,21.48,9.38,4.89,25.69,5.7,56-13.37-13.73-8.55-44.1-26.34-75.62-34.71-9.95-2.65-20.18-4.41-31.53-.84A49.32,49.32,0,0,0,21.21,271.39Z" fill="#aab5ae"/><path d="M81.22,227.32C69.89,245.49,45,239.46,30.07,257.41a64.16,64.16,0,0,0-8.86,14C36,263.81,55.83,256.67,70.59,265c13.88,7.8,13.62,27.55,25.31,29.14,9.28,1.26,13.29-10.26,26.42-12,10.75-1.39,20.59,4.7,27.68,10.67l-13.92-86.4c-3.57.22-7.43.33-11.56.25s-7.8-.32-11.29-.67c-10,2-22.38,6.33-29.66,17.2C82.2,225.21,82.48,225.3,81.22,227.32Z" fill="#edfff3"/><path d="M100.67,293.6c-3.12-9.21-3-16.54-1.84-22.13,1.59-7.71,4.82-10.62,5.72-17.76,1-8-1.64-15.25-5-21.11a21.68,21.68,0,0,1-.42,13c-1.32,3.52-3.35,5.73-6.16,8.59-3.92,4-9.32,9.19-16.22,15.06,1.14,1.78,2.85,4.51,4.82,7.92,6.33,10.93,7.78,15.67,12.29,17A10.09,10.09,0,0,0,100.67,293.6Z" fill="#dae8df"/><path d="M112.44,212.2a65.65,65.65,0,0,0,23.06,45.33l3.36-40.37a24,24,0,0,1-16.56,1.14A23.21,23.21,0,0,1,112.44,212.2Z" fill="#dae8df"/><path d="M113.33,151.16c-.31-.84-2.09-5.55-5.62-6.31-4.14-.88-10.21,3.78-11.82,12.48q-2.72,12.22-5.45,24.44a193.59,193.59,0,0,1-27.52,16.82c-3.8,1.91-13.23,8-12.91,8.46l-8,5.45-12.31,5a1.6,1.6,0,0,0,.46,1,1.94,1.94,0,0,0,2.24.17l6.7-1.79a40.3,40.3,0,0,0-8.58,10.08.91.91,0,1,0,1.5,1l3-2.67-3.35,5.41a2.37,2.37,0,0,0,.24,1.43,2.55,2.55,0,0,0,2.35,1.24l7.09-8.06,6.2-4-.4,2.73c-2,1.41-2.62,3.32-2,4.3a2,2,0,0,0,1.58.83l4-5.56,3.68-9.26.37-.27a60.52,60.52,0,0,1,6.81-4c7.9-4,13-4.33,19.49-6.62A57.4,57.4,0,0,0,99.1,192.92a72,72,0,0,0,7.23-12A73.53,73.53,0,0,0,113.33,151.16Z" fill="#ffa990"/><path d="M267.4,141.23c.13,1.15.27,2.3.41,3.45,6,6.5,6.48,10,5.66,12-.7,1.69-2.34,2.38-2.42,4.24-.11,2.63,3.63,5.18,4.35,5.67,3.71,2.51,8.27,9.2,12.22,27.16l-27,30.78c-13.93-32.6-13.68-44.52-10.3-49,.8-1.06,5-6.14,3.55-10.32-.6-1.68-1.72-2-2.61-3.4-1.48-2.26-1.83-6.46,2.9-15-.11-1.28-.23-2.55-.34-3.82a12.78,12.78,0,0,1,9.21-3.1A11.65,11.65,0,0,1,267.4,141.23Z" fill="#cfdff7"/><path d="M273.64,168.8c-1,.11-.34,5.36-4,8.24-2.63,2.08-4.44.51-7.19,2.26-4.9,3.13-5.74,12.33-3.18,18.69a20.06,20.06,0,0,0,1.32,2.59c2.23,4,3.75,11,0,23.95l19-34.95C276.38,173.29,274.63,168.69,273.64,168.8Z" fill="#bbd3f7"/><path d="M306,140.3a19.11,19.11,0,0,0-12.35,11.48,22.08,22.08,0,0,0-7.7,8.77c-4.16,8.66-.88,17-.27,18.53l-2.93,12.7,27.82-1.51a9.18,9.18,0,0,1,.73-6.17,8.84,8.84,0,0,1,2.52-3c1.59-6.45,6.12-27.85-5.38-38.84A21.1,21.1,0,0,0,306,140.3Z" fill="#ffc1b0"/><path d="M305.48,155c1,2.95.9,3.92.5,4.17-1,.61-3.21-3.18-5.92-2.77-2.18.33-3.78,3.25-4.16,5.62a5,5,0,0,0-.06.51,6.09,6.09,0,0,0,0,1.08c.08,1.05-4.85,4.43-6.28,7.85a48,48,0,0,0-.3,5.24c-.21,5.11-.13,7.36-1.35,7.92-.85.39-1.44-.47-2.4-.05-1.62.71-.66,3.66-2.23,4.8-2,1.43-6.17-.27-8.61-2.76a12.12,12.12,0,0,1-2.93-5.74c-1.56-6.12-.56-15.14,3.91-17,2.35-1,4.5.46,7.11-1.34a7.29,7.29,0,0,0,2.43-3s-.45-2.1.43-2.94a1.76,1.76,0,0,1,.84-.37,8.16,8.16,0,0,1,3-.23c-2.5,3-2.82,3.83-2.62,4,.41.44,3.71-1,6.14-3.73,1.92-2.12,2.43-4,4.54-4.56,1.1-.3,1.43.07,2.38-.19,1.32-.36,2.94-1.68,4.19-5.94Z" fill="#6e5328"/><path d="M304.47,156.79c-.15.6-.41,1.51-.76,2.6-1.14,3.47-1.69,3.75-2.06,5.39,0,.23-.84,4,.81,7a20.37,20.37,0,0,1,2,4.42c.07.22.11.37.14.44.39,1.21,2.45,7.65,6.06,8,2.91.31,7.41-5.37,8.62-11.79,2.61-13.79-10.38-28.87-11.33-34.2a4.35,4.35,0,0,0-1-2.1c-.88-1.07-2.59-2-3.64-1.49-1.57.78-1,4.45-.88,5.56a16.53,16.53,0,0,0,1.6,4.9C305.11,147.78,305.84,151.29,304.47,156.79Z" fill="#6e5328"/><path d="M306,159.16l-1.88-13.63,3.26-6.22a20.72,20.72,0,0,1,15.16-.39c9.44,3.59,12.13,13,12.4,14a20.27,20.27,0,0,1,.66,13.64c-3,9.41-12.11,12.62-13.12,13a8,8,0,0,1-3.35.35C313.05,179.14,308,170.75,306,159.16Z" fill="#5a51c8"/><path d="M335.65,156.5c-.35.09-.84-.56-1.06-1-.39-.85-.31-2,.09-2.15s.89.46,1.14,1C336.26,155.18,336.06,156.38,335.65,156.5Z" fill="#3d3787"/><path d="M306,159.16a31,31,0,0,0,3.92,20.3,85.31,85.31,0,0,0,6.58,7.75c1.75,1.83,5.63,5.88,6.55,5.25.66-.46-1-2.86-1.22-7a18.31,18.31,0,0,1,.65-6,8,8,0,0,1-3.35.35C313.05,179.14,308,170.75,306,159.16Z" fill="#3d3787"/><path d="M251.34,293.25A114.71,114.71,0,0,1,251,247.6c2.3-11.38,6-20,12.38-34.84a66.15,66.15,0,0,1,5-9.55,73.45,73.45,0,0,1,6.74-8.89c7.3-8.47,11.5-9.46,12.87-9.71s4.75.16,11.2,1c3.32.45,6.33,1,9.39,3,0,0,.27.18.66.47,0,0,.72.53,1.39,1.14s16.24,22.35,5.15,62.4c-4.22,15.27-6.43,23.25-14.13,30.53C283.44,300.34,255.34,294.19,251.34,293.25Z" fill="#eaeff7"/><path d="M298.15,198.06c3.16,1.36,6.85,4.69,9.85,17,7.86,32.37-4.67,62.7-14.55,68.15-5.07,2.8-10.15,3.82-19.83,2.46a267.15,267.15,0,0,1-47.06-11.17q1.44-7.84,2.89-15.7l41.23-5c-.45-1.76-9.28-37.59,8.86-51.31C280.7,201.61,290.19,194.63,298.15,198.06Z" fill="#cfdff7"/><rect x="103.2" y="222.06" width="147.46" height="93.62" fill="#2f3b52"/><path d="M106.19,195.4H249.52a0,0,0,0,1,0,0v15.3a0,0,0,0,1,0,0H102.06a0,0,0,0,1,0,0V199.53a4.13,4.13,0,0,1,4.13-4.13Z" transform="translate(-28.89 29.16) rotate(-8.76)" fill="#1c2330"/><rect x="103.2" y="222.06" width="147.46" height="15.3" fill="#1c2330"/><polygon points="124.48 203.25 110.96 220.82 128.63 218.1 142.21 200.45 124.48 203.25" fill="#fff"/><polygon points="174.05 195.61 160.53 213.18 178.2 210.46 191.78 192.81 174.05 195.61" fill="#fff"/><polygon points="229.76 187.02 216.24 204.59 233.91 201.87 247.49 184.22 229.76 187.02" fill="#fff"/><polygon points="125.76 237.43 109.72 222.12 127.6 222.12 143.71 237.49 125.76 237.43" fill="#fff"/><polygon points="178.1 237.04 162.06 221.74 179.94 221.74 196.05 237.1 178.1 237.04" fill="#fff"/><polygon points="232.35 237.39 216.31 222.09 234.19 222.09 250.3 237.46 232.35 237.39" fill="#fff"/><rect x="94.04" y="275.6" width="78.18" height="1.96" transform="translate(-143.46 409.71) rotate(-90)" fill="#4f6387"/><rect x="102.71" y="261.81" width="147.96" height="1.96" transform="translate(353.38 525.58) rotate(180)" fill="#4f6387"/><rect x="102.96" y="282.45" width="91.11" height="1.96" transform="translate(297.02 566.85) rotate(180)" fill="#4f6387"/><rect x="154.97" y="275.6" width="78.18" height="1.96" transform="translate(-82.52 470.65) rotate(-90)" fill="#4f6387"/><path d="M250.67,315.19H103.2c8.93-27.34,22.49-56.32,42-58.17,12-1.14,18.06,8.78,31.73,11.36,15.85,3,39.31-4.41,73.73-46.81Z" fill="#1a2438" opacity="0.53"/><rect x="106.83" y="213.18" width="15.08" height="15.78" rx="2.37" fill="#7684a8"/><path d="M77.27,70.79,80,69.17l.17.29c-.76.54-.86.7-.32,1.62l1,1.76a1.69,1.69,0,0,0,.46-.91c.25-.88.53-2,.68-2.8.1-.54,0-.65-.48-.45l-.31.14-.17-.29,2.5-1.48.17.29a2.52,2.52,0,0,0-1.22,1.87c-.14.49-.48,1.74-.75,2.78,1.33.46,3.25,1.1,4.12,1.35a1.82,1.82,0,0,0,1.72,0l.17.29-1.64,1c-1.33-.42-2.75-.93-4.33-1.46a.71.71,0,0,0-.75,0l1.15,2c.53.89.67.91,1.57.47l.17.29-2.75,1.63-.17-.29c.8-.57.84-.69.31-1.59l-2.37-4c-.55-.92-.66-1-1.55-.51Z" fill="#5e6f87"/><path d="M115.47,38.31c-.27.31-1.09,1.14-1.45,1.53l-5.41-3.1v-.22c2.59-1.17,5.22-2.41,7.9-3.68l-2-1.18c-.93-.53-1.12-.56-1.52-.36a4.45,4.45,0,0,0-.9.65l-.3-.19c.36-.51,1-1.35,1.29-1.79l.27.15c0,.32.1.38.41.56l4.2,2.41v.21c-2.61,1.2-5.17,2.42-7.81,3.69.31.21,1,.61,1.69,1,1.36.79,1.7.91,2.18.76a4.45,4.45,0,0,0,1.24-.7Z" fill="#5e6f87"/><path d="M279.12,266.64c.79-.37.11-5.75-3.47-9.54a13.58,13.58,0,0,0-5-3.3l-5.86,1.52a21.56,21.56,0,0,1,5.35,2.33C276.39,261.44,278.27,267,279.12,266.64Z" fill="#bbd3f7"/><path d="M260.43,164.37c-2-1.33-2-7.25,1.64-10.44,4.26-3.71,11-1.52,11.7.86C274.83,158.35,263.69,166.52,260.43,164.37Z" fill="#bbd3f7"/><path d="M257.06,147.14c.19.42,2-.42,8.75-1.85,1.37-.29,2-.41,2-.61,0-.47-3.11-1.4-6.12-.62C259,144.74,256.84,146.64,257.06,147.14Z" fill="#bbd3f7"/><path d="M234.88,82.88c-.77,1,.18,3.32,1.45,3.47s2.71-1.73,2.24-2.91S235.64,81.91,234.88,82.88Z" fill="#c1a0ff"/><path d="M253.31,79.2c-1,1.34.24,4.5,2,4.71s3.66-2.35,3-4S254.35,77.89,253.31,79.2Z" fill="#c1a0ff"/><path d="M255.12,72c-1.58-.55-3-2.44-2.55-3.74.81-2.46,8.25-2.93,9-1.24C262.16,68.49,258.35,73.12,255.12,72Z" fill="#c1a0ff"/><path d="M268.41,60.63c1.36-1.71,4.38-2.06,5.49-.91,1.81,1.88-1.06,8.3-3.11,8.23C269.07,67.9,266.31,63.26,268.41,60.63Z" fill="#b58eff"/><path d="M231.9,74.19c1.68,1.21,6-.67,7.08-3.6s-.92-6.85-5.18-8.8c1.26,3.2.86,4.94.26,5.93-.92,1.51-2.55,1.7-3,3.39A3.06,3.06,0,0,0,231.9,74.19Z" fill="#b58eff"/><circle cx="279.33" cy="92.52" r="4.86" fill="#bbffd1"/><path d="M290.26,114.92c-.28,2.83,10.09,8,13.41,5,1.66-1.51,1.55-5.07,0-7C300.36,108.83,290.53,112.27,290.26,114.92Z" fill="#bbffd1"/></svg>